*
*
G04 PADS VX.2.4 Build Number: 11282995 generated Gerber (RS-274-X) file*
G04 PC Version=2.1*
*
%IN "Uno_Led_Servo_Pwm_test_"*%
*
%MOIN*%
*
%FSLAX35Y35*%
*
*
*
*
G04 PC Standard Apertures*
*
*
G04 Thermal Relief Aperture macro.*
%AMTER*
1,1,$1,0,0*
1,0,$1-$2,0,0*
21,0,$3,$4,0,0,45*
21,0,$3,$4,0,0,135*
%
*
*
G04 Annular Aperture macro.*
%AMANN*
1,1,$1,0,0*
1,0,$2,0,0*
%
*
*
G04 Odd Aperture macro.*
%AMODD*
1,1,$1,0,0*
1,0,$1-0.005,0,0*
%
*
*
G04 PC Custom Aperture Macros*
*
*
*
*
*
*
G04 PC Aperture Table*
*
%ADD010C,0.001*%
%ADD011C,0.01*%
*
*
*
*
G04 PC Circuitry*
G04 Layer Name Uno_Led_Servo_Pwm_test_ - circuitry*
%LPD*%
*
*
G04 PC Custom Flashes*
G04 Layer Name Uno_Led_Servo_Pwm_test_ - flashes*
%LPD*%
*
*
G04 PC Circuitry*
G04 Layer Name Uno_Led_Servo_Pwm_test_ - circuitry*
%LPD*%
*
G54D10*
G54D11*
G01X146523Y217126D02*
X139961D01*
X144336Y214853D02*
X141211Y217126D01*
X142461Y216217D02*
X139961Y214626D01*
X144336Y209853D02*
X139961D01*
X143398D02*
X144023Y210308D01*
X144336Y210762*
Y211444*
X144023Y211899*
X143398Y212353*
X142461Y212581*
X141836*
X140898Y212353*
X140273Y211899*
X139961Y211444*
Y210762*
X140273Y210308*
X140898Y209853*
X144336Y207808D02*
X139961D01*
X143086D02*
X144023Y207126D01*
X144336Y206671*
Y205990*
X144023Y205535*
X143086Y205308*
X139961*
X144336Y200535D02*
X139336D01*
X138398Y200762*
X138086Y200990*
X137773Y201444*
Y202126*
X138086Y202581*
X143398Y200535D02*
X144023Y200990D01*
X144336Y201444*
Y202126*
X144023Y202581*
X143398Y203035*
X142461Y203262*
X141836*
X140898Y203035*
X140273Y202581*
X139961Y202126*
Y201444*
X140273Y200990*
X140898Y200535*
X142773Y198490D02*
Y194399D01*
X146523Y189626D02*
X139961D01*
X143398D02*
X144023Y190081D01*
X144336Y190535*
Y191217*
X144023Y191671*
X143398Y192126*
X142461Y192353*
X141836*
X140898Y192126*
X140273Y191671*
X139961Y191217*
Y190535*
X140273Y190081*
X140898Y189626*
X144336Y184853D02*
X139961D01*
X143398D02*
X144023Y185308D01*
X144336Y185762*
Y186444*
X144023Y186899*
X143398Y187353*
X142461Y187581*
X141836*
X140898Y187353*
X140273Y186899*
X139961Y186444*
Y185762*
X140273Y185308*
X140898Y184853*
X146523Y182808D02*
X139961D01*
X143086D02*
X144023Y182126D01*
X144336Y181671*
Y180990*
X144023Y180535*
X143086Y180308*
X139961*
X142461Y178262D02*
Y175535D01*
X143086*
X143711Y175762*
X144023Y175990*
X144336Y176444*
Y177126*
X144023Y177581*
X143398Y178035*
X142461Y178262*
X141836*
X140898Y178035*
X140273Y177581*
X139961Y177126*
Y176444*
X140273Y175990*
X140898Y175535*
X144336Y172353D02*
X144023Y172808D01*
X143398Y173262*
X142461Y173490*
X141836*
X140898Y173262*
X140273Y172808*
X139961Y172353*
Y171671*
X140273Y171217*
X140898Y170762*
X141836Y170535*
X142461*
X143398Y170762*
X144023Y171217*
X144336Y171671*
Y172353*
X146523Y168490D02*
X139961D01*
X144336Y166217D02*
X141211Y168490D01*
X142461Y167581D02*
X139961Y165990D01*
X113465Y216899D02*
X113777D01*
X114402Y216671*
X114715Y216444*
X115027Y215990*
Y215081*
X114715Y214626*
X114402Y214399*
X113777Y214171*
X113152*
X112527Y214399*
X111590Y214853*
X108465Y217126*
Y213944*
X115027Y210535D02*
X114715Y211217D01*
X113777Y211671*
X112215Y211899*
X111277*
X109715Y211671*
X108777Y211217*
X108465Y210535*
Y210081*
X108777Y209399*
X109715Y208944*
X111277Y208717*
X112215*
X113777Y208944*
X114715Y209399*
X115027Y210081*
Y210535*
X113465Y206444D02*
X113777D01*
X114402Y206217*
X114715Y205990*
X115027Y205535*
Y204626*
X114715Y204171*
X114402Y203944*
X113777Y203717*
X113152*
X112527Y203944*
X111590Y204399*
X108465Y206671*
Y203490*
X113777Y201444D02*
X114090Y200990D01*
X115027Y200308*
X108465*
X111277Y198262D02*
Y194171D01*
X115027Y190762D02*
X114715Y191444D01*
X113777Y191899*
X112215Y192126*
X111277*
X109715Y191899*
X108777Y191444*
X108465Y190762*
Y190308*
X108777Y189626*
X109715Y189171*
X111277Y188944*
X112215*
X113777Y189171*
X114715Y189626*
X115027Y190308*
Y190762*
Y184626D02*
X110652Y186899D01*
Y183490*
X115027Y184626D02*
X108465D01*
X111277Y181444D02*
Y177353D01*
X113465Y175081D02*
X113777D01*
X114402Y174853*
X114715Y174626*
X115027Y174171*
Y173262*
X114715Y172808*
X114402Y172581*
X113777Y172353*
X113152*
X112527Y172581*
X111590Y173035*
X108465Y175308*
Y172126*
X113465Y169853D02*
X113777D01*
X114402Y169626*
X114715Y169399*
X115027Y168944*
Y168035*
X114715Y167581*
X114402Y167353*
X113777Y167126*
X113152*
X112527Y167353*
X111590Y167808*
X108465Y170081*
Y166899*
X131563Y201711D02*
Y199211D01*
X131563D02*
X129063Y200574D01*
X129063D02*
Y199893D01*
X129063D02*
X128750Y199438D01*
X128438Y199211*
X128438D02*
X127500Y198984D01*
X126875*
X125938Y199211*
X125938D02*
X125313Y199665D01*
X125313D02*
X125000Y200347D01*
Y201029*
X125313Y201711*
X125313D02*
X125625Y201938D01*
X126250Y202165*
X131563Y196484D02*
Y193984D01*
X131563D02*
X129063Y195347D01*
X129063D02*
Y194665D01*
X129063D02*
X128750Y194211D01*
X128438Y193984*
X128438D02*
X127500Y193756D01*
X126875*
X125938Y193984*
X125938D02*
X125313Y194438D01*
X125313D02*
X125000Y195120D01*
Y195802*
X125313Y196484*
X125313D02*
X125625Y196711D01*
X126250Y196938*
X131563Y190347D02*
X131250Y191029D01*
X130313Y191484*
X130313D02*
X128750Y191711D01*
X127813*
X127813D02*
X126250Y191484D01*
X125313Y191029*
X125313D02*
X125000Y190347D01*
Y189893*
X125313Y189211*
X125313D02*
X126250Y188756D01*
X127813Y188529*
X127813D02*
X128750D01*
X130313Y188756*
X130313D02*
X131250Y189211D01*
X131563Y189893*
X131563D02*
Y190347D01*
Y186029D02*
Y183529D01*
X131563D02*
X129063Y184893D01*
X129063D02*
Y184211D01*
X129063D02*
X128750Y183756D01*
X128438Y183529*
X128438D02*
X127500Y183302D01*
X126875*
X125938Y183529*
X125938D02*
X125313Y183984D01*
X125313D02*
X125000Y184665D01*
Y185347*
X125313Y186029*
X125313D02*
X125625Y186256D01*
X126250Y186484*
X169965Y298126D02*
X177965Y306126D01*
X169965D02*
X177965Y298126D01*
X179965D02*
X187965Y306126D01*
X179965D02*
X187965Y298126D01*
X189965D02*
X197965Y306126D01*
X189965D02*
X197965Y298126D01*
X199965D02*
X207965Y306126D01*
X199965D02*
X207965Y298126D01*
X209965D02*
X217965Y306126D01*
X209965D02*
X217965Y298126D01*
X219965D02*
X227965Y306126D01*
X219965D02*
X227965Y298126D01*
X229965D02*
X237965Y306126D01*
X229965D02*
X237965Y298126D01*
X239965D02*
X247965Y306126D01*
X239965D02*
X247965Y298126D01*
X249965D02*
X257965Y306126D01*
X249965D02*
X257965Y298126D01*
X259965D02*
X267965Y306126D01*
X259965D02*
X267965Y298126D01*
X275965D02*
X283965Y306126D01*
X275965D02*
X283965Y298126D01*
X285965D02*
X293965Y306126D01*
X285965D02*
X293965Y298126D01*
X295965D02*
X303965Y306126D01*
X295965D02*
X303965Y298126D01*
X305965D02*
X313965Y306126D01*
X305965D02*
X313965Y298126D01*
X315965D02*
X323965Y306126D01*
X315965D02*
X323965Y298126D01*
X325965D02*
X333965Y306126D01*
X325965D02*
X333965Y298126D01*
X335965D02*
X343965Y306126D01*
X335965D02*
X343965Y298126D01*
X345965D02*
X353965Y306126D01*
X345965D02*
X353965Y298126D01*
X205965Y108126D02*
X213965Y116126D01*
X205965D02*
X213965Y108126D01*
X215965D02*
X223965Y116126D01*
X215965D02*
X223965Y108126D01*
X225965D02*
X233965Y116126D01*
X225965D02*
X233965Y108126D01*
X235965D02*
X243965Y116126D01*
X235965D02*
X243965Y108126D01*
X245965D02*
X253965Y116126D01*
X245965D02*
X253965Y108126D01*
X255965D02*
X263965Y116126D01*
X255965D02*
X263965Y108126D01*
X265965D02*
X273965Y116126D01*
X265965D02*
X273965Y108126D01*
X275965D02*
X283965Y116126D01*
X275965D02*
X283965Y108126D01*
X293638Y215882D02*
X301638D01*
Y223882*
X293638*
Y215882*
X297638Y219882D02*
Y223882D01*
X283638Y215882D02*
X291638D01*
Y223882*
X283638*
Y215882*
X287638Y219882D02*
Y223882D01*
X273638Y215882D02*
X281638D01*
Y223882*
X273638*
Y215882*
X277638Y219882D02*
Y223882D01*
X293638Y238126D02*
X301638D01*
Y246126*
X293638*
Y238126*
X297638Y242126D02*
Y246126D01*
X283638Y238126D02*
X291638D01*
Y246126*
X283638*
Y238126*
X287638Y242126D02*
Y246126D01*
X273638Y238126D02*
X281638D01*
Y246126*
X273638*
Y238126*
X277638Y242126D02*
Y246126D01*
X121197Y109780D02*
X129197Y117780D01*
X121197D02*
X129197Y109780D01*
X131197D02*
X139197Y117780D01*
X131197D02*
X139197Y109780D01*
X141197D02*
X149197Y117780D01*
X141197D02*
X149197Y109780D01*
X151197D02*
X159197Y117780D01*
X151197D02*
X159197Y109780D01*
X161197D02*
X169197Y117780D01*
X161197D02*
X169197Y109780D01*
X171197D02*
X179197Y117780D01*
X171197D02*
X179197Y109780D01*
X181197D02*
X189197Y117780D01*
X181197D02*
X189197Y109780D01*
X191197D02*
X199197Y117780D01*
X191197D02*
X199197Y109780D01*
X182811Y250528D02*
X190811Y258528D01*
X182811D02*
X190811Y250528D01*
X192811D02*
X200811Y258528D01*
X192811D02*
X200811Y250528D01*
X202811D02*
X210811Y258528D01*
X202811D02*
X210811Y250528D01*
X212811D02*
X220811Y258528D01*
X212811D02*
X220811Y250528D01*
X296016Y108055D02*
X304016Y116055D01*
X296016D02*
X304016Y108055D01*
X306016D02*
X314016Y116055D01*
X306016D02*
X314016Y108055D01*
X316016D02*
X324016Y116055D01*
X316016D02*
X324016Y108055D01*
X326016D02*
X334016Y116055D01*
X326016D02*
X334016Y108055D01*
X336016D02*
X344016Y116055D01*
X336016D02*
X344016Y108055D01*
X346016D02*
X354016Y116055D01*
X346016D02*
X354016Y108055D01*
X182811Y236945D02*
X190811Y244945D01*
X182811D02*
X190811Y236945D01*
X192811D02*
X200811Y244945D01*
X192811D02*
X200811Y236945D01*
X202811D02*
X210811Y244945D01*
X202811D02*
X210811Y236945D01*
X212811D02*
X220811Y244945D01*
X212811D02*
X220811Y236945D01*
X183008Y215685D02*
X191008Y223685D01*
X183008D02*
X191008Y215685D01*
X193008D02*
X201008Y223685D01*
X193008D02*
X201008Y215685D01*
X203008D02*
X211008Y223685D01*
X203008D02*
X211008Y215685D01*
X213008D02*
X221008Y223685D01*
X213008D02*
X221008Y215685D01*
X183008Y202102D02*
X191008Y210102D01*
X183008D02*
X191008Y202102D01*
X193008D02*
X201008Y210102D01*
X193008D02*
X201008Y202102D01*
X203008D02*
X211008Y210102D01*
X203008D02*
X211008Y202102D01*
X213008D02*
X221008Y210102D01*
X213008D02*
X221008Y202102D01*
X290945Y272969D02*
X294945Y276969D01*
X290945Y280969*
X286945Y276969*
X290945Y272969*
Y276969D02*
Y280969D01*
X323228Y261748D02*
X327228Y265748D01*
X323228Y269748*
X319228Y265748*
X323228Y261748*
Y265748D02*
Y269748D01*
X100000Y106213D02*
X375591D01*
Y308248*
X100000*
Y106213*
X119685Y432220D02*
X377685D01*
X119685Y408220D02*
X377685D01*
X119685Y384220D02*
X377685D01*
X119685Y360220D02*
X377685D01*
X119685Y336220D02*
X377685D01*
X119685Y432220D02*
Y336220D01*
X203685Y432220D02*
Y336220D01*
X239685Y432220D02*
Y336220D01*
X275685Y432220D02*
Y336220D01*
X329685Y432220D02*
Y336220D01*
X377685Y432220D02*
Y336220D01*
X155185Y420970D02*
X154640Y421720D01*
X153821Y422095*
X152730*
X151912Y421720*
X151367Y420970*
Y420220*
X151640Y419470*
X151912Y419095*
X152458Y418720*
X154094Y417970*
X154640Y417595*
X154912Y417220*
X155185Y416470*
Y415345*
X154640Y414595*
X153821Y414220*
X152730*
X151912Y414595*
X151367Y415345*
X157640Y422095D02*
Y414220D01*
X163912Y422095D02*
X160094Y414220D01*
Y422095D02*
X163912D01*
X160094Y414220D02*
X163912D01*
X166367Y422095D02*
Y414220D01*
Y422095D02*
X169912D01*
X166367Y418345D02*
X168549D01*
X166367Y414220D02*
X169912D01*
X213549Y422095D02*
X213003Y421720D01*
X212458Y420970*
X212185Y420220*
X211912Y419095*
Y417220*
X212185Y416095*
X212458Y415345*
X213003Y414595*
X213549Y414220*
X214640*
X215185Y414595*
X215730Y415345*
X216003Y416095*
X216276Y417220*
Y419095*
X216003Y420220*
X215730Y420970*
X215185Y421720*
X214640Y422095*
X213549*
X214367Y415720D02*
X216003Y413470D01*
X220640Y422095D02*
Y414220D01*
X218730Y422095D02*
X222549D01*
X225003D02*
X227185Y418345D01*
Y414220*
X229367Y422095D02*
X227185Y418345D01*
X251730Y420970D02*
X251185Y421720D01*
X250367Y422095*
X249276*
X248458Y421720*
X247912Y420970*
Y420220*
X248185Y419470*
X248458Y419095*
X249003Y418720*
X250640Y417970*
X251185Y417595*
X251458Y417220*
X251730Y416470*
Y415345*
X251185Y414595*
X250367Y414220*
X249276*
X248458Y414595*
X247912Y415345*
X254185Y422095D02*
X256367Y418345D01*
Y414220*
X258549Y422095D02*
X256367Y418345D01*
X261003Y422095D02*
Y414220D01*
Y422095D02*
X263185Y414220D01*
X265367Y422095D02*
X263185Y414220D01*
X265367Y422095D02*
Y414220D01*
X287185Y422095D02*
Y414220D01*
Y422095D02*
X289640D01*
X290458Y421720*
X290730Y421345*
X291003Y420595*
Y419470*
X290730Y418720*
X290458Y418345*
X289640Y417970*
X287185*
X293458Y422095D02*
Y414220D01*
X296730*
X301367Y422095D02*
X299185Y414220D01*
X301367Y422095D02*
X303549Y414220D01*
X300003Y416845D02*
X302730D01*
X307912Y422095D02*
Y414220D01*
X306003Y422095D02*
X309821D01*
X312276D02*
Y414220D01*
Y422095D02*
X315821D01*
X312276Y418345D02*
X314458D01*
X312276Y414220D02*
X315821D01*
X318276Y422095D02*
Y414220D01*
Y422095D02*
X320185D01*
X321003Y421720*
X321549Y420970*
X321821Y420220*
X322094Y419095*
Y417220*
X321821Y416095*
X321549Y415345*
X321003Y414595*
X320185Y414220*
X318276*
X346367Y422095D02*
Y414220D01*
X344458Y422095D02*
X348276D01*
X352367D02*
X351821Y421720D01*
X351276Y420970*
X351003Y420220*
X350730Y419095*
Y417220*
X351003Y416095*
X351276Y415345*
X351821Y414595*
X352367Y414220*
X353458*
X354003Y414595*
X354549Y415345*
X354821Y416095*
X355094Y417220*
Y419095*
X354821Y420220*
X354549Y420970*
X354003Y421720*
X353458Y422095*
X352367*
X357549D02*
Y414220D01*
X360821*
X126230Y398095D02*
X129230D01*
X127594Y395095*
X128412*
X128958Y394720*
X129230Y394345*
X129503Y393220*
Y392470*
X129230Y391345*
X128685Y390595*
X127867Y390220*
X127049*
X126230Y390595*
X125958Y390970*
X125685Y391720*
X135503Y398095D02*
X132776D01*
X132503Y394720*
X132776Y395095*
X133594Y395470*
X134412*
X135230Y395095*
X135776Y394345*
X136049Y393220*
X135776Y392470*
X135503Y391345*
X134958Y390595*
X134140Y390220*
X133321*
X132503Y390595*
X132230Y390970*
X131958Y391720*
X219140Y398095D02*
X216412D01*
X216140Y394720*
X216412Y395095*
X217230Y395470*
X218049*
X218867Y395095*
X219412Y394345*
X219685Y393220*
X219412Y392470*
X219140Y391345*
X218594Y390595*
X217776Y390220*
X216958*
X216140Y390595*
X215867Y390970*
X215594Y391720*
X225412Y396970D02*
X225140Y397720D01*
X224321Y398095*
X223776*
X222958Y397720*
X222412Y396595*
X222140Y394720*
Y392845*
X222412Y391345*
X222958Y390595*
X223776Y390220*
X224049*
X224867Y390595*
X225412Y391345*
X225685Y392470*
Y392845*
X225412Y393970*
X224867Y394720*
X224049Y395095*
X223776*
X222958Y394720*
X222412Y393970*
X222140Y392845*
X251685Y390220D02*
X263685Y402220D01*
X251685D02*
X263685Y390220D01*
X284321Y398095D02*
X286503Y394345D01*
Y390220*
X288685Y398095D02*
X286503Y394345D01*
X291140Y398095D02*
Y390220D01*
Y398095D02*
X294685D01*
X291140Y394345D02*
X293321D01*
X291140Y390220D02*
X294685D01*
X300958Y396970D02*
X300412Y397720D01*
X299594Y398095*
X298503*
X297685Y397720*
X297140Y396970*
Y396220*
X297412Y395470*
X297685Y395095*
X298230Y394720*
X299867Y393970*
X300412Y393595*
X300685Y393220*
X300958Y392470*
Y391345*
X300412Y390595*
X299594Y390220*
X298503*
X297685Y390595*
X297140Y391345*
X337503Y396970D02*
Y390220D01*
X335049Y393595D02*
X339958D01*
X347321Y399595D02*
X342412Y387595D01*
X349776Y393595D02*
X354685D01*
X358776Y398095D02*
X357958Y397720D01*
X357412Y396595*
X357140Y394720*
Y393595*
X357412Y391720*
X357958Y390595*
X358776Y390220*
X359321*
X360140Y390595*
X360685Y391720*
X360958Y393595*
Y394720*
X360685Y396595*
X360140Y397720*
X359321Y398095*
X358776*
X363685Y390970D02*
X363412Y390595D01*
X363685Y390220*
X363958Y390595*
X363685Y390970*
X368049Y398095D02*
X367230Y397720D01*
X366685Y396595*
X366412Y394720*
Y393595*
X366685Y391720*
X367230Y390595*
X368049Y390220*
X368594*
X369412Y390595*
X369958Y391720*
X370230Y393595*
Y394720*
X369958Y396595*
X369412Y397720*
X368594Y398095*
X368049*
X126230Y374095D02*
X129230D01*
X127594Y371095*
X128412*
X128958Y370720*
X129230Y370345*
X129503Y369220*
Y368470*
X129230Y367345*
X128685Y366595*
X127867Y366220*
X127049*
X126230Y366595*
X125958Y366970*
X125685Y367720*
X135776Y374095D02*
X133049Y366220D01*
X131958Y374095D02*
X135776D01*
X138503Y366970D02*
X138230Y366595D01*
X138503Y366220*
X138776Y366595*
X138503Y366970*
X143958Y374095D02*
X141230Y368845D01*
X145321*
X143958Y374095D02*
Y366220D01*
X222140Y372970D02*
X221867Y373720D01*
X221049Y374095*
X220503*
X219685Y373720*
X219140Y372595*
X218867Y370720*
Y368845*
X219140Y367345*
X219685Y366595*
X220503Y366220*
X220776*
X221594Y366595*
X222140Y367345*
X222412Y368470*
Y368845*
X222140Y369970*
X221594Y370720*
X220776Y371095*
X220503*
X219685Y370720*
X219140Y369970*
X218867Y368845*
X251685Y366220D02*
X263685D01*
Y378220*
X251685*
Y366220*
X257685Y372220D02*
Y378220D01*
X284321Y374095D02*
X286503Y370345D01*
Y366220*
X288685Y374095D02*
X286503Y370345D01*
X291140Y374095D02*
Y366220D01*
Y374095D02*
X294685D01*
X291140Y370345D02*
X293321D01*
X291140Y366220D02*
X294685D01*
X300958Y372970D02*
X300412Y373720D01*
X299594Y374095*
X298503*
X297685Y373720*
X297140Y372970*
Y372220*
X297412Y371470*
X297685Y371095*
X298230Y370720*
X299867Y369970*
X300412Y369595*
X300685Y369220*
X300958Y368470*
Y367345*
X300412Y366595*
X299594Y366220*
X298503*
X297685Y366595*
X297140Y367345*
X337503Y372970D02*
Y366220D01*
X335049Y369595D02*
X339958D01*
X347321Y375595D02*
X342412Y363595D01*
X349776Y369595D02*
X354685D01*
X358776Y374095D02*
X357958Y373720D01*
X357412Y372595*
X357140Y370720*
Y369595*
X357412Y367720*
X357958Y366595*
X358776Y366220*
X359321*
X360140Y366595*
X360685Y367720*
X360958Y369595*
Y370720*
X360685Y372595*
X360140Y373720*
X359321Y374095*
X358776*
X363685Y366970D02*
X363412Y366595D01*
X363685Y366220*
X363958Y366595*
X363685Y366970*
X368049Y374095D02*
X367230Y373720D01*
X366685Y372595*
X366412Y370720*
Y369595*
X366685Y367720*
X367230Y366595*
X368049Y366220*
X368594*
X369412Y366595*
X369958Y367720*
X370230Y369595*
Y370720*
X369958Y372595*
X369412Y373720*
X368594Y374095*
X368049*
X126230Y350095D02*
X129230D01*
X127594Y347095*
X128412*
X128958Y346720*
X129230Y346345*
X129503Y345220*
Y344470*
X129230Y343345*
X128685Y342595*
X127867Y342220*
X127049*
X126230Y342595*
X125958Y342970*
X125685Y343720*
X135776Y350095D02*
X133049Y342220D01*
X131958Y350095D02*
X135776D01*
X219003Y348220D02*
Y348595D01*
X219276Y349345*
X219549Y349720*
X220094Y350095*
X221185*
X221730Y349720*
X222003Y349345*
X222276Y348595*
Y347845*
X222003Y347095*
X221458Y345970*
X218730Y342220*
X222549*
X257685D02*
X263685Y348220D01*
X257685Y354220*
X251685Y348220*
X257685Y342220*
Y348220D02*
Y354220D01*
X284321Y350095D02*
X286503Y346345D01*
Y342220*
X288685Y350095D02*
X286503Y346345D01*
X291140Y350095D02*
Y342220D01*
Y350095D02*
X294685D01*
X291140Y346345D02*
X293321D01*
X291140Y342220D02*
X294685D01*
X300958Y348970D02*
X300412Y349720D01*
X299594Y350095*
X298503*
X297685Y349720*
X297140Y348970*
Y348220*
X297412Y347470*
X297685Y347095*
X298230Y346720*
X299867Y345970*
X300412Y345595*
X300685Y345220*
X300958Y344470*
Y343345*
X300412Y342595*
X299594Y342220*
X298503*
X297685Y342595*
X297140Y343345*
X337503Y348970D02*
Y342220D01*
X335049Y345595D02*
X339958D01*
X347321Y351595D02*
X342412Y339595D01*
X349776Y345595D02*
X354685D01*
X358776Y350095D02*
X357958Y349720D01*
X357412Y348595*
X357140Y346720*
Y345595*
X357412Y343720*
X357958Y342595*
X358776Y342220*
X359321*
X360140Y342595*
X360685Y343720*
X360958Y345595*
Y346720*
X360685Y348595*
X360140Y349720*
X359321Y350095*
X358776*
X363685Y342970D02*
X363412Y342595D01*
X363685Y342220*
X363958Y342595*
X363685Y342970*
X368049Y350095D02*
X367230Y349720D01*
X366685Y348595*
X366412Y346720*
Y345595*
X366685Y343720*
X367230Y342595*
X368049Y342220*
X368594*
X369412Y342595*
X369958Y343720*
X370230Y345595*
Y346720*
X369958Y348595*
X369412Y349720*
X368594Y350095*
X368049*
X0Y0D02*
M02*
