M48
;FILE_FORMAT=2:4
INCH,LZ
FMAT,2
ICI,OFF
;TYPE=PLATED
T1C.035
T2C.037
T3C.0374
%
M72
G90
G93X0Y0
T1C.035F197S55
X01252Y011378
X01352Y011378
X01452Y011378
X01552Y011378
X01652Y011378
X017396Y030213
X018396Y030213
X019396Y030213
X018681Y025453
X019681Y025453
X018681Y024094
X019681Y024094
X018701Y021969
X019701Y021969
X018701Y02061
X019701Y02061
X01952Y011378
X01752Y011378
X01852Y011378
X021996Y011213
X020996Y011213
X020701Y02061
X021701Y02061
X020701Y021969
X021701Y021969
X020681Y024094
X021681Y024094
X020681Y025453
X021681Y025453
X020396Y030213
X021396Y030213
X022396Y030213
X023396Y030213
X024396Y030213
X026396Y030213
X025396Y030213
X024996Y011213
X026996Y011213
X022996Y011213
X025996Y011213
X023996Y011213
X030002Y011206
X031002Y011206
X032002Y011206
X027996Y011213
X029996Y030213
X030996Y030213
X031996Y030213
X028996Y030213
X027996Y030213
X034996Y030213
X032996Y030213
X033996Y030213
X034002Y011206
X033002Y011206
X035002Y011206
T2C.037F197S55
X032323Y026575
X029094Y027697
T3C.0374F197S55
X029764Y021988
X028764Y021988
X027764Y021988
X029764Y024213
X028764Y024213
X027764Y024213
M30
