*
*
G04 PADS VX.2.4 Build Number: 11282995 generated Gerber (RS-274-X) file*
G04 PC Version=2.1*
*
%IN "Uno_Led_Servo_Pwm_test_"*%
*
%MOIN*%
*
%FSLAX35Y35*%
*
*
*
*
G04 PC Standard Apertures*
*
*
G04 Thermal Relief Aperture macro.*
%AMTER*
1,1,$1,0,0*
1,0,$1-$2,0,0*
21,0,$3,$4,0,0,45*
21,0,$3,$4,0,0,135*
%
*
*
G04 Annular Aperture macro.*
%AMANN*
1,1,$1,0,0*
1,0,$2,0,0*
%
*
*
G04 Odd Aperture macro.*
%AMODD*
1,1,$1,0,0*
1,0,$1-0.005,0,0*
%
*
*
G04 PC Custom Aperture Macros*
*
*
*
*
*
*
G04 PC Aperture Table*
*
%ADD010C,0.001*%
%ADD011C,0.01*%
%ADD012C,0.005*%
%ADD019C,0.006*%
%ADD033C,0.00551*%
*
*
*
*
G04 PC Circuitry*
G04 Layer Name Uno_Led_Servo_Pwm_test_ - circuitry*
%LPD*%
*
*
G04 PC Custom Flashes*
G04 Layer Name Uno_Led_Servo_Pwm_test_ - flashes*
%LPD*%
*
*
G04 PC Circuitry*
G04 Layer Name Uno_Led_Servo_Pwm_test_ - circuitry*
%LPD*%
*
G54D10*
G54D11*
G01X168965Y307126D02*
X268965D01*
Y297126*
X168965*
Y307126*
X274965D02*
X354965D01*
Y297126*
X274965*
Y307126*
X204965Y117126D02*
X284965D01*
Y107126*
X204965*
Y117126*
X303858Y225630D02*
X271575D01*
Y213819*
X303858*
Y225630*
Y247874D02*
X271575D01*
Y236063*
X303858*
Y247874*
X120197Y118780D02*
X200197D01*
Y108780*
X120197*
Y118780*
X181811Y259528D02*
X221811D01*
Y249528*
X181811*
Y259528*
X295016Y117055D02*
X355016D01*
Y107055*
X295016*
Y117055*
X181811Y245945D02*
X221811D01*
Y235945*
X181811*
Y245945*
X182008Y224685D02*
X222008D01*
Y214685*
X182008*
Y224685*
Y211102D02*
X222008D01*
Y201102*
X182008*
Y211102*
X174285Y251547D02*
X177316D01*
X177885Y251409*
X178074Y251272*
X178264Y250996*
Y250720*
X178074Y250445*
X177885Y250307*
X177316Y250169*
X176938*
X175043Y252787D02*
X174853Y253063D01*
X174285Y253476*
X178264*
X174285Y256094D02*
X176938Y254717D01*
X176938D02*
Y256783D01*
X174285Y256094D02*
X178264D01*
X360827Y113625D02*
Y110593D01*
X360689Y110025*
X360551Y109835*
X360276Y109646*
X360000*
X359724Y109835*
X359587Y110025*
X359449Y110593*
Y110972*
X362067Y112867D02*
X362343Y113056D01*
X362756Y113625*
Y109646*
X365787Y113625D02*
X364409D01*
X364272Y111919*
X364409Y112109*
X364823Y112298*
X365236*
X365650Y112109*
X365925Y111730*
X366063Y111161*
X365925Y110782*
X365787Y110214*
X365512Y109835*
X365098Y109646*
X364685*
X364272Y109835*
X364134Y110025*
X363996Y110404*
X174285Y237965D02*
X177316D01*
X177885Y237827*
X178074Y237689*
X178264Y237413*
Y237138*
X178074Y236862*
X177885Y236724*
X177316Y236587*
X176938*
X174285Y240996D02*
Y239618D01*
X175990Y239480*
X175801Y239618*
X175611Y240031*
Y240445*
X175801Y240858*
X176180Y241134*
X176748Y241272*
X177127Y241134*
X177695Y240996*
X178074Y240720*
X178264Y240307*
Y239894*
X178074Y239480*
X177885Y239343*
X177506Y239205*
X174482Y216705D02*
X177513D01*
X178082Y216567*
X178271Y216429*
X178461Y216154*
Y215878*
X178271Y215602*
X178082Y215465*
X177513Y215327*
X177134*
X175050Y219598D02*
X174671Y219461D01*
X174482Y219047*
Y218772*
X174671Y218358*
X175240Y218083*
X176187Y217945*
X177134*
X177892Y218083*
X178271Y218358*
X178461Y218772*
Y218909*
X178271Y219323*
X177892Y219598*
X177324Y219736*
X177134*
X176566Y219598*
X176187Y219323*
X175998Y218909*
Y218772*
X176187Y218358*
X176566Y218083*
X177134Y217945*
X174482Y203122D02*
X177513D01*
X178082Y202984*
X178271Y202846*
X178461Y202571*
Y202295*
X178271Y202020*
X178082Y201882*
X177513Y201744*
X177134*
X174482Y205051D02*
X174671Y204638D01*
X175050Y204500*
X175429*
X175808Y204638*
X175998Y204913*
X176187Y205465*
X176376Y205878*
X176755Y206154*
X177134Y206291*
X177703*
X178082Y206154*
X178271Y206016*
X178461Y205602*
Y205051*
X178271Y204638*
X178082Y204500*
X177703Y204362*
X177134*
X176755Y204500*
X176376Y204776*
X176187Y205189*
X175998Y205740*
X175808Y206016*
X175429Y206154*
X175050*
X174671Y206016*
X174482Y205602*
Y205051*
X329166Y246964D02*
X328712Y247589D01*
X328030Y247901*
X327121*
X326439Y247589*
X325984Y246964*
Y246339*
X326212Y245714*
X326439Y245401*
X326893Y245089*
X328257Y244464*
X328712Y244151*
X328939Y243839*
X329166Y243214*
Y242276*
X328712Y241651*
X328030Y241339*
X327121*
X326439Y241651*
X325984Y242276*
X331212Y243839D02*
X333939D01*
Y244464*
X333712Y245089*
X333484Y245401*
X333030Y245714*
X332348*
X331893Y245401*
X331439Y244776*
X331212Y243839*
Y243214*
X331439Y242276*
X331893Y241651*
X332348Y241339*
X333030*
X333484Y241651*
X333939Y242276*
X335984Y245714D02*
Y241339D01*
Y243839D02*
X336212Y244776D01*
X336666Y245401*
X337121Y245714*
X337802*
X339848D02*
X341212Y241339D01*
X342575Y245714D02*
X341212Y241339D01*
X345757Y245714D02*
X345302Y245401D01*
X344848Y244776*
X344621Y243839*
Y243214*
X344848Y242276*
X345302Y241651*
X345757Y241339*
X346439*
X346893Y241651*
X347348Y242276*
X347575Y243214*
Y243839*
X347348Y244776*
X346893Y245401*
X346439Y245714*
X345757*
X328182Y219405D02*
X327727Y220030D01*
X327045Y220342*
X326136*
X325455Y220030*
X325000Y219405*
Y218780*
X325227Y218155*
X325455Y217842*
X325909Y217530*
X327273Y216905*
X327727Y216592*
X327955Y216280*
X328182Y215655*
Y214717*
X327727Y214092*
X327045Y213780*
X326136*
X325455Y214092*
X325000Y214717*
X330227Y216280D02*
X332955D01*
Y216905*
X332727Y217530*
X332500Y217842*
X332045Y218155*
X331364*
X330909Y217842*
X330455Y217217*
X330227Y216280*
Y215655*
X330455Y214717*
X330909Y214092*
X331364Y213780*
X332045*
X332500Y214092*
X332955Y214717*
X335000Y218155D02*
Y213780D01*
Y216280D02*
X335227Y217217D01*
X335682Y217842*
X336136Y218155*
X336818*
X338864D02*
X340227Y213780D01*
X341591Y218155D02*
X340227Y213780D01*
X344773Y218155D02*
X344318Y217842D01*
X343864Y217217*
X343636Y216280*
Y215655*
X343864Y214717*
X344318Y214092*
X344773Y213780*
X345455*
X345909Y214092*
X346364Y214717*
X346591Y215655*
Y216280*
X346364Y217217*
X345909Y217842*
X345455Y218155*
X344773*
X174273Y184909D02*
X176773D01*
X175410Y182409*
X176092*
X176546Y182096*
X176773Y181784*
X177001Y180846*
Y180221*
X176773Y179284*
X176319Y178659*
X175637Y178346*
X174955*
X174273Y178659*
X174046Y178971*
X173819Y179596*
X187683Y183346D02*
X187455Y183971D01*
X187001Y184596*
X186546Y184909*
X185637*
X185183Y184596*
X184728Y183971*
X184501Y183346*
X184273Y182409*
Y180846*
X184501Y179909*
X184728Y179284*
X185183Y178659*
X185637Y178346*
X186546*
X187001Y178659*
X187455Y179284*
X187683Y179909*
X190864Y182721D02*
X190410Y182409D01*
X189955Y181784*
X189728Y180846*
Y180221*
X189955Y179284*
X190410Y178659*
X190864Y178346*
X191546*
X192001Y178659*
X192455Y179284*
X192683Y180221*
Y180846*
X192455Y181784*
X192001Y182409*
X191546Y182721*
X190864*
X194728Y184909D02*
Y178346D01*
X197910Y182721D02*
X197455Y182409D01*
X197001Y181784*
X196773Y180846*
Y180221*
X197001Y179284*
X197455Y178659*
X197910Y178346*
X198592*
X199046Y178659*
X199501Y179284*
X199728Y180221*
Y180846*
X199501Y181784*
X199046Y182409*
X198592Y182721*
X197910*
X201773D02*
Y178346D01*
Y180846D02*
X202001Y181784D01*
X202455Y182409*
X202910Y182721*
X203592*
X210864Y184909D02*
Y178346D01*
X213592*
X215637Y184909D02*
Y178346D01*
Y184909D02*
X218592D01*
X215637Y181784D02*
X217455D01*
X215637Y178346D02*
X218592D01*
X220637Y184909D02*
Y178346D01*
Y184909D02*
X222228D01*
X222910Y184596*
X223364Y183971*
X223592Y183346*
X223819Y182409*
Y180846*
X223592Y179909*
X223364Y179284*
X222910Y178659*
X222228Y178346*
X220637*
X100000Y106213D02*
X375591D01*
Y308248*
X100000*
Y106213*
G54D12*
X264356Y227953D02*
Y224953D01*
X264219Y224391*
X264083Y224203*
X263810Y224016*
X263538*
X263265Y224203*
X263128Y224391*
X262992Y224953*
Y225328*
X265856Y227953D02*
X267356D01*
X266538Y226453*
X266947*
X267219Y226266*
X267356Y226078*
X267492Y225516*
Y225141*
X267356Y224578*
X267083Y224203*
X266674Y224016*
X266265*
X265856Y224203*
X265719Y224391*
X265583Y224766*
X264553Y251969D02*
Y248969D01*
X264416Y248406*
X264280Y248219*
X264007Y248031*
X263734*
X263462Y248219*
X263325Y248406*
X263189Y248969*
Y249344*
X267144Y251969D02*
X265780Y249344D01*
X267825*
X267144Y251969D02*
Y248031D01*
G54D19*
X173658Y294572D02*
X173431Y294885D01*
X173090Y295041*
X172635*
X172294Y294885*
X172067Y294572*
Y294260*
X172181Y293947*
X172294Y293791*
X172521Y293635*
X173203Y293322*
X173431Y293166*
X173544Y293010*
X173658Y292697*
Y292229*
X173431Y291916*
X173090Y291760*
X172635*
X172294Y291916*
X172067Y292229*
X176385Y294260D02*
X176271Y294572D01*
X176044Y294885*
X175817Y295041*
X175362*
X175135Y294885*
X174908Y294572*
X174794Y294260*
X174681Y293791*
Y293010*
X174794Y292541*
X174908Y292229*
X175135Y291916*
X175362Y291760*
X175817*
X176044Y291916*
X176271Y292229*
X176385Y292541*
X177408Y295041D02*
Y291760D01*
X178771*
X182780Y294793D02*
X182553Y295105D01*
X182212Y295262*
X181757*
X181416Y295105*
X181189Y294793*
Y294480*
X181303Y294168*
X181416Y294012*
X181644Y293855*
X182325Y293543*
X182553Y293387*
X182666Y293230*
X182780Y292918*
Y292449*
X182553Y292137*
X182212Y291980*
X181757*
X181416Y292137*
X181189Y292449*
X183803Y295262D02*
Y291980D01*
Y295262D02*
X184598D01*
X184939Y295105*
X185166Y294793*
X185280Y294480*
X185394Y294012*
Y293230*
X185280Y292762*
X185166Y292449*
X184939Y292137*
X184598Y291980*
X183803*
X187325Y295262D02*
X186416Y291980D01*
X187325Y295262D02*
X188234Y291980D01*
X186757Y293074D02*
X187894D01*
X192114Y295041D02*
X191205Y291760D01*
X192114Y295041D02*
X193023Y291760D01*
X191546Y292854D02*
X192682D01*
X194046Y295041D02*
Y291760D01*
Y295041D02*
X195068D01*
X195409Y294885*
X195523Y294729*
X195637Y294416*
Y294104*
X195523Y293791*
X195409Y293635*
X195068Y293479*
X194046*
X194841D02*
X195637Y291760D01*
X196659Y295041D02*
Y291760D01*
Y295041D02*
X198137D01*
X196659Y293479D02*
X197568D01*
X196659Y291760D02*
X198137D01*
X199159Y295041D02*
Y291760D01*
Y295041D02*
X200637D01*
X199159Y293479D02*
X200068D01*
X203185Y292575D02*
X202873Y292461D01*
X202560Y292234*
X202404Y292006*
Y291552*
X202560Y291325*
X202873Y291097*
X203185Y290984*
X203654Y290870*
X204435*
X204904Y290984*
X205216Y291097*
X205529Y291325*
X205685Y291552*
Y292006*
X205529Y292234*
X205216Y292461*
X204904Y292575*
X204435*
Y292006D02*
Y292575D01*
X212891Y290870D02*
X212735Y291097D01*
X212266Y291438*
X215547*
X212266Y292688D02*
Y293938D01*
X213516Y293256*
Y293597*
X213672Y293825*
X213828Y293938*
X214297Y294052*
X214610*
X215078Y293938*
X215391Y293711*
X215547Y293370*
Y293029*
X215391Y292688*
X215235Y292575*
X214922Y292461*
X222982Y290870D02*
X222825Y291097D01*
X222357Y291438*
X225638*
X223138Y292575D02*
X222982D01*
X222669Y292688*
X222513Y292802*
X222357Y293029*
Y293484*
X222513Y293711*
X222669Y293825*
X222982Y293938*
X223294*
X223607Y293825*
X224075Y293597*
X225638Y292461*
Y294052*
X232531Y290870D02*
X232219Y291097D01*
Y291438*
X232687Y291779*
X232687D02*
Y292120D01*
X232687D02*
X232375Y292347D01*
X232844Y292916D02*
X232687Y293143D01*
X232687D02*
X232219Y293484D01*
X235500*
X232844Y294506D02*
X232687Y294734D01*
X232687D02*
X232219Y295075D01*
X235500*
X243078Y290870D02*
X242766Y291097D01*
Y291438*
X243235Y291779*
Y292120*
X242922Y292347*
X243391Y292916D02*
X243235Y293143D01*
X242766Y293484*
X246047*
X242766Y295188D02*
X242922Y294847D01*
X243391Y294620*
X244172Y294506*
X244641*
X245422Y294620*
X245891Y294847*
X246047Y295188*
Y295416*
X245891Y295756*
X245422Y295984*
X244641Y296097*
X244172*
X243391Y295984*
X242922Y295756*
X242766Y295416*
Y295188*
X252941Y290870D02*
X252628Y291097D01*
Y291438*
X253097Y291779*
Y292120*
X252784Y292347*
X253722Y294393D02*
X254191Y294279D01*
X254503Y294052*
X254659Y293711*
Y293597*
X254503Y293256*
X254191Y293029*
X253722Y292916*
X253566*
X253097Y293029*
X252784Y293256*
X252628Y293597*
Y293711*
X252784Y294052*
X253097Y294279*
X253722Y294393*
X254503*
X255284Y294279*
X255753Y294052*
X255909Y293711*
Y293484*
X255753Y293143*
X255441Y293029*
X262262Y291438D02*
X262418Y291097D01*
X262731Y290984*
X263043*
X263356Y291097*
X263512Y291325*
X263668Y291779*
X263825Y292120*
X264137Y292347*
X264450Y292461*
X264918*
X265231Y292347*
X265387Y292234*
X265543Y291893*
Y291438*
X265387Y291097*
X265231Y290984*
X264918Y290870*
X264450*
X264137Y290984*
X263825Y291211*
X263668Y291552*
X263512Y292006*
X263356Y292234*
X263043Y292347*
X262731*
X262418Y292234*
X262262Y291893*
Y291438*
X278085Y292461D02*
X281366Y291325D01*
X278085Y290870D02*
Y292461D01*
X288720Y290870D02*
X288408Y291097D01*
Y291438*
X288876Y291779*
Y292120*
X288564Y292347*
X288876Y294279D02*
X288564Y294166D01*
X288408Y293825*
Y293597*
X288564Y293256*
X289033Y293029*
X289814Y292916*
X290595*
X291220Y293029*
X291533Y293256*
X291689Y293597*
Y293711*
X291533Y294052*
X291220Y294279*
X290751Y294393*
X290595*
X290126Y294279*
X289814Y294052*
X289658Y293711*
Y293597*
X289814Y293256*
X290126Y293029*
X290595Y292916*
X299039Y290870D02*
X298727Y291097D01*
Y291438*
X299195Y291779*
Y292120*
X298883Y292347*
X298727Y294393D02*
Y293256D01*
X300133Y293143*
X299977Y293256*
X299820Y293597*
Y293938*
X299977Y294279*
X300289Y294506*
X300758Y294620*
X301070Y294506*
X301539Y294393*
X301852Y294166*
X302008Y293825*
Y293484*
X301852Y293143*
X301695Y293029*
X301383Y292916*
X308589Y292006D02*
X310776Y290870D01*
Y292575*
X308589Y292006D02*
X311870D01*
X318764Y290870D02*
X318451Y291097D01*
Y291438*
X318920Y291779*
Y292120*
X318607Y292347*
X318451Y293143D02*
Y294393D01*
X319701Y293711*
Y294052*
X319857Y294279*
X320014Y294393*
X320482Y294506*
X320795*
X321264Y294393*
X321576Y294166*
X321732Y293825*
Y293484*
X321576Y293143*
X321420Y293029*
X321107Y292916*
X329323Y290984D02*
X329167D01*
X328854Y291097*
X328698Y291211*
X328542Y291438*
Y291893*
X328698Y292120*
X328854Y292234*
X329167Y292347*
X329479*
X329792Y292234*
X330260Y292006*
X331823Y290870*
Y292461*
X339029Y290870D02*
X338873Y291097D01*
X338404Y291438*
X341685*
X348723Y291552D02*
X348879Y291211D01*
X349348Y290984*
X350129Y290870*
X350598*
X351379Y290984*
X351848Y291211*
X352004Y291552*
Y291779*
X351848Y292120*
X351379Y292347*
X350598Y292461*
X350129*
X349348Y292347*
X348879Y292120*
X348723Y291779*
Y291552*
X208894Y123521D02*
Y120240D01*
Y123521D02*
X210485Y120240D01*
Y123521D02*
Y120240D01*
X213212Y122740D02*
X213098Y123053D01*
X212871Y123365*
X212644Y123521*
X212189*
X211962Y123365*
X211735Y123053*
X211621Y122740*
X211507Y122271*
Y121490*
X211621Y121021*
X211735Y120709*
X211962Y120396*
X212189Y120240*
X212644*
X212871Y120396*
X213098Y120709*
X213212Y121021*
X219717Y123297D02*
X218581D01*
X218467Y121891*
X218581Y122047*
X218922Y122203*
X219263*
X219604Y122047*
X219831Y121734*
X219831D02*
X219945Y121266D01*
X219831Y120953*
X219717Y120484*
X219717D02*
X219490Y120172D01*
X219149Y120016*
X218808*
X218467Y120172*
X218354Y120328*
X218240Y120641*
X220967Y123297D02*
X221877Y120016D01*
X222786Y123297D02*
X221877Y120016D01*
X236936Y123742D02*
X238186D01*
X237504Y122492*
X237845*
X238072Y122336*
X238186Y122179*
X238300Y121711*
Y121398*
X238186Y120929*
X237959Y120617*
X237618Y120461*
X237277*
X236936Y120617*
X236822Y120773*
X236709Y121086*
X239436Y120773D02*
X239322Y120617D01*
X239436Y120461*
X239550Y120617*
X239436Y120773*
X240800Y123742D02*
X242050D01*
X241368Y122492*
X241709*
X241936Y122336*
X242050Y122179*
X242163Y121711*
Y121398*
X242050Y120929*
X241822Y120617*
X241481Y120461*
X241140*
X240800Y120617*
X240686Y120773*
X240572Y121086*
X243186Y123742D02*
X244095Y120461D01*
X245004Y123742D02*
X244095Y120461D01*
X249981Y123521D02*
X248845D01*
X248731Y122115*
X248845Y122271*
X249186Y122428*
X249527*
X249868Y122271*
X250095Y121959*
X250208Y121490*
X250095Y121178*
X249981Y120709*
X249754Y120396*
X249413Y120240*
X249072*
X248731Y120396*
X248618Y120553*
X248504Y120865*
X251231Y123521D02*
X252140Y120240D01*
X253049Y123521D02*
X252140Y120240D01*
X269382Y121275D02*
X269069Y121162D01*
X268757Y120935*
X268757D02*
X268601Y120707D01*
Y120253*
X268757Y120025*
X269069Y119798*
X269382Y119685*
X269382D02*
X269851Y119571D01*
X270632*
X271101Y119685*
X271101D02*
X271413Y119798D01*
X271726Y120025*
X271882Y120253*
Y120707*
X271726Y120935*
X271726D02*
X271413Y121162D01*
X271101Y121275*
X270632*
Y120707D02*
Y121275D01*
X259752D02*
X259439Y121162D01*
X259127Y120935*
X259127D02*
X258971Y120707D01*
Y120253*
X259127Y120025*
X259439Y119798*
X259752Y119685*
X259752D02*
X260221Y119571D01*
X261002*
X261471Y119685*
X261471D02*
X261783Y119798D01*
X262096Y120025*
X262252Y120253*
Y120707*
X262096Y120935*
X262096D02*
X261783Y121162D01*
X261471Y121275*
X261002*
Y120707D02*
Y121275D01*
X278098Y123521D02*
X279008Y120240D01*
X279917Y123521D02*
X279008Y120240D01*
X280939Y123521D02*
Y120240D01*
X281962Y123521D02*
Y120240D01*
Y123521D02*
X283553Y120240D01*
Y123521D02*
Y120240D01*
X226697Y123521D02*
Y120240D01*
Y123521D02*
X227720D01*
X228060Y123365*
X228174Y123209*
X228288Y122896*
Y122584*
X228174Y122271*
X228060Y122115*
X227720Y121959*
X226697*
X227492D02*
X228288Y120240D01*
X229310Y123521D02*
Y120240D01*
Y123521D02*
X230788D01*
X229310Y121959D02*
X230220D01*
X229310Y120240D02*
X230788D01*
X233401Y123053D02*
X233174Y123365D01*
X232833Y123521*
X232379*
X232038Y123365*
X231810Y123053*
Y122740*
X231924Y122428*
X232038Y122271*
X232265Y122115*
X232947Y121803*
X233174Y121646*
X233288Y121490*
X233401Y121178*
Y120709*
X233174Y120396*
X232833Y120240*
X232379*
X232038Y120396*
X231810Y120709*
X298416Y120480D02*
X301697Y119571D01*
X298416Y120480D02*
X301697Y121389D01*
X300603Y119912D02*
Y121048D01*
X298416Y123094D02*
X298572Y122753D01*
X299041Y122525*
X299822Y122412*
X300291*
X301072Y122525*
X301541Y122753*
X301697Y123094*
Y123321*
X301541Y123662*
X301072Y123889*
X300291Y124003*
X299822*
X299041Y123889*
X298572Y123662*
X298416Y123321*
Y123094*
X308049Y120480D02*
X311331Y119571D01*
X308049Y120480D02*
X311331Y121389D01*
X310237Y119912D02*
Y121048D01*
X308674Y122412D02*
X308518Y122639D01*
X308049Y122980*
X311331*
X319057Y120480D02*
X322339Y119571D01*
X319057Y120480D02*
X322339Y121389D01*
X321245Y119912D02*
Y121048D01*
X319839Y122525D02*
X319682D01*
X319370Y122639*
X319214Y122753*
X319057Y122980*
Y123435*
X319057D02*
X319214Y123662D01*
X319370Y123775*
X319682Y123889*
X319995*
X320307Y123775*
X320776Y123548*
X322339Y122412*
Y124003*
X348412Y120480D02*
X351693Y119571D01*
X348412Y120480D02*
X351693Y121389D01*
X350599Y119912D02*
Y121048D01*
X348412Y123889D02*
Y122753D01*
X349818Y122639*
X349662Y122753*
X349505Y123094*
Y123435*
X349505D02*
X349662Y123775D01*
X349974Y124003*
X350443Y124116*
X350755Y124003*
X351224Y123889*
X351537Y123662*
X351693Y123321*
Y122980*
X351537Y122639*
X351380Y122525*
X351068Y122412*
X358046Y120480D02*
X361327Y119571D01*
X358046Y120480D02*
X361327Y121389D01*
X360233Y119912D02*
Y121048D01*
X358514Y123775D02*
X358202Y123662D01*
X358046Y123321*
Y123094*
X358202Y122753*
X358671Y122525*
X359452Y122412*
X360233*
X360858Y122525*
X361171Y122753*
X361327Y123094*
Y123207*
X361171Y123548*
X360858Y123775*
X360389Y123889*
X360233*
X359764Y123775*
X359452Y123548*
X359296Y123207*
Y123094*
X359452Y122753*
X359764Y122525*
X360233Y122412*
X369053Y120480D02*
X372335Y119571D01*
X369053Y120480D02*
X372335Y121389D01*
X371241Y119912D02*
Y121048D01*
X369053Y124003D02*
X372335Y122866D01*
X369053Y122412D02*
Y124003D01*
X328231Y120480D02*
X331512Y119571D01*
X328231Y120480D02*
X331512Y121389D01*
X330418Y119912D02*
Y121048D01*
X328231Y122639D02*
Y123889D01*
X329481Y123207*
Y123548*
X329637Y123775*
X329793Y123889*
X330262Y124003*
X330574*
X331043Y123889*
X331356Y123662*
X331512Y123321*
Y122980*
X331356Y122639*
X331199Y122525*
X330887Y122412*
X338782Y120480D02*
X342063Y119571D01*
X338782Y120480D02*
X342063Y121389D01*
X340969Y119912D02*
Y121048D01*
X338782Y123548D02*
X340969Y122412D01*
Y124116*
X338782Y123548D02*
X342063D01*
G54D33*
X305512Y221235D02*
X305762Y221407D01*
X306138Y221924*
Y218307*
X268361Y222318D02*
X269739D01*
X268987Y220940*
X269363*
X269613Y220768*
X269739Y220595*
X269864Y220079*
Y219734*
X269739Y219218*
X269488Y218873*
X269112Y218701*
X268737*
X268361Y218873*
X268236Y219045*
X268110Y219390*
X305512Y243479D02*
X305762Y243652D01*
X306138Y244168*
Y240551*
X268361Y244562D02*
X269739D01*
X268987Y243184*
X269363*
X269613Y243012*
X269739Y242840*
X269864Y242323*
Y241978*
X269739Y241462*
X269488Y241117*
X269112Y240945*
X268737*
X268361Y241117*
X268236Y241289*
X268110Y241634*
X0Y0D02*
M02*
