*
*
G04 PADS VX.2.4 Build Number: 11282995 generated Gerber (RS-274-X) file*
G04 PC Version=2.1*
*
%IN "UnoUniversial.pcb"*%
*
%MOIN*%
*
%FSLAX35Y35*%
*
*
*
*
G04 PC Standard Apertures*
*
*
G04 Thermal Relief Aperture macro.*
%AMTER*
1,1,$1,0,0*
1,0,$1-$2,0,0*
21,0,$3,$4,0,0,45*
21,0,$3,$4,0,0,135*
%
*
*
G04 Annular Aperture macro.*
%AMANN*
1,1,$1,0,0*
1,0,$2,0,0*
%
*
*
G04 Odd Aperture macro.*
%AMODD*
1,1,$1,0,0*
1,0,$1-0.005,0,0*
%
*
*
G04 PC Custom Aperture Macros*
*
*
*
*
*
*
G04 PC Aperture Table*
*
%ADD010C,0.001*%
%ADD011C,0.01*%
%ADD013R,0.06X0.06*%
%ADD014C,0.06*%
%ADD024R,0.05906X0.05906*%
%ADD025C,0.05906*%
%ADD028C,0.00787*%
%ADD029C,0.01181*%
%ADD031C,0.00394*%
%ADD032C,0.015*%
%ADD040C,0.02362*%
*
*
*
*
G04 PC Circuitry*
G04 Layer Name UnoUniversial.pcb - circuitry*
%LPD*%
*
*
G04 PC Custom Flashes*
G04 Layer Name UnoUniversial.pcb - flashes*
%LPD*%
*
*
G04 PC Circuitry*
G04 Layer Name UnoUniversial.pcb - circuitry*
%LPD*%
*
G54D10*
G54D11*
G01X100000Y106213D02*
X375591D01*
Y308248*
X100000*
Y106213*
G54D13*
X173965Y302126D03*
X279965D03*
X209965Y112126D03*
X144882Y225197D03*
X164173Y284252D03*
Y236614D03*
X144882Y176378D03*
X125197Y113780D03*
Y163780D03*
X280535Y160768D03*
X361248Y271177D03*
X164173Y245276D03*
X300016Y112055D03*
X144882Y185827D03*
X125197Y124016D03*
G54D14*
X183965Y302126D03*
X193965D03*
X203965D03*
X213965D03*
X223965D03*
X233965D03*
X243965D03*
X253965D03*
X263965D03*
X289965D03*
X299965D03*
X309965D03*
X319965D03*
X329965D03*
X339965D03*
X349965D03*
X219965Y112126D03*
X229965D03*
X239965D03*
X249965D03*
X259965D03*
X269965D03*
X279965D03*
X154882Y225197D03*
X164882D03*
X174882D03*
X184882D03*
X194882D03*
X204882D03*
X214882D03*
X174173Y284252D03*
X184173D03*
X194173D03*
X204173D03*
X214173D03*
X224173D03*
X234173D03*
X174173Y236614D03*
X184173D03*
X194173D03*
X204173D03*
X214173D03*
X224173D03*
X234173D03*
X154882Y176378D03*
X164882D03*
X174882D03*
X184882D03*
X194882D03*
X204882D03*
X214882D03*
X135197Y113780D03*
X145197D03*
X155197D03*
X165197D03*
X175197D03*
X185197D03*
X195197D03*
X135197Y163780D03*
X145197D03*
X155197D03*
X165197D03*
X175197D03*
X185197D03*
X195197D03*
X290535Y160768D03*
X300535D03*
X310535D03*
X361248Y261177D03*
Y251177D03*
Y241177D03*
X174173Y245276D03*
X184173D03*
X194173D03*
X204173D03*
X214173D03*
X224173D03*
X234173D03*
Y275276D03*
X224173D03*
X214173D03*
X204173D03*
X194173D03*
X184173D03*
X174173D03*
X164173D03*
X310016Y112055D03*
X320016D03*
X330016D03*
X340016D03*
X350016D03*
X154882Y185827D03*
X164882D03*
X174882D03*
X184882D03*
X194882D03*
X204882D03*
X214882D03*
Y215827D03*
X204882D03*
X194882D03*
X184882D03*
X174882D03*
X164882D03*
X154882D03*
X144882D03*
X135197Y124016D03*
X145197D03*
X155197D03*
X165197D03*
X175197D03*
X185197D03*
X195197D03*
Y154016D03*
X185197D03*
X175197D03*
X165197D03*
X155197D03*
X145197D03*
X135197D03*
X125197D03*
G54D24*
X344291Y141732D03*
X345079Y168701D03*
G54D25*
X354291Y141732D03*
X364291D03*
X355079Y168701D03*
X365079D03*
G54D28*
X300016Y112055D02*
Y130331D01*
X316732Y147047*
Y174409*
X310016Y112055D02*
Y133638D01*
X345079Y168701*
X320016Y112055D02*
Y128087D01*
X324606Y132677*
X335236*
X344291Y141732*
X303150Y177362D02*
Y194882D01*
X302953Y195079*
X321260Y213386*
Y278346*
X319965Y279642*
Y302126*
X243110Y231496D02*
Y238583D01*
X240157Y241535*
Y277165*
X252756Y289764*
X287602*
X299965Y302126*
X292913Y228543D02*
Y242913D01*
X288386Y247441*
Y259055*
X279528Y221654D02*
X268898D01*
X244094Y246457*
X275984Y229134D02*
Y242913D01*
X268504Y250394*
Y259252*
X285630Y228937D02*
Y242913D01*
X278740Y249803*
Y259055*
X300984Y228740D02*
Y242913D01*
X298819Y245079*
Y259252*
X318898Y228150D02*
Y243504D01*
X318701Y243701*
Y259252*
X308268Y228740D02*
Y244094D01*
X308465Y244291*
Y259449*
G54D29*
X195197Y113780D02*
X201378D01*
X204528Y116929*
X249965*
X195197Y113780D02*
Y124016D01*
X259965Y112126D02*
X255161Y116929D01*
X249965*
X269965Y112126D02*
X280709Y122870D01*
Y127953*
X290354Y137598*
X195197Y124016D02*
Y138110D01*
X200000Y142913*
Y161496*
X214882Y176378*
X365079Y168701D02*
Y202835D01*
X361248Y206665*
Y241177*
X355079Y168701D02*
Y265008D01*
X361248Y271177*
X355079Y168701D02*
X345236Y178543D01*
X334449*
X329134Y183858*
Y191535*
X332677Y239173D02*
X345866D01*
G54D31*
X348425D02*
G75*
G03X348425I-2559J0D01*
G01X335236D02*
G03X335236I-2559J0D01*
G01X304913Y160768D02*
G03X304913I-4378J0D01*
G01X292913Y137598D02*
G03X292913I-2559J0D01*
G01X294913Y160768D02*
G03X294913I-4378J0D01*
G01X219260Y176378D02*
G03X219260I-4378J0D01*
G01Y185827D02*
G03X219260I-4378J0D01*
G01Y215827D02*
G03X219260I-4378J0D01*
G01Y225197D02*
G03X219260I-4378J0D01*
G01X209260Y176378D02*
G03X209260I-4378J0D01*
G01Y185827D02*
G03X209260I-4378J0D01*
G01Y215827D02*
G03X209260I-4378J0D01*
G01Y225197D02*
G03X209260I-4378J0D01*
G01X199575Y113780D02*
G03X199575I-4378J0D01*
G01Y124016D02*
G03X199575I-4378J0D01*
G01Y154016D02*
G03X199575I-4378J0D01*
G01Y163780D02*
G03X199575I-4378J0D01*
G01X199260Y176378D02*
G03X199260I-4378J0D01*
G01Y185827D02*
G03X199260I-4378J0D01*
G01Y215827D02*
G03X199260I-4378J0D01*
G01Y225197D02*
G03X199260I-4378J0D01*
G01X189575Y113780D02*
G03X189575I-4378J0D01*
G01Y124016D02*
G03X189575I-4378J0D01*
G01Y154016D02*
G03X189575I-4378J0D01*
G01Y163780D02*
G03X189575I-4378J0D01*
G01X189260Y176378D02*
G03X189260I-4378J0D01*
G01Y185827D02*
G03X189260I-4378J0D01*
G01Y215827D02*
G03X189260I-4378J0D01*
G01Y225197D02*
G03X189260I-4378J0D01*
G01X179575Y113780D02*
G03X179575I-4378J0D01*
G01Y124016D02*
G03X179575I-4378J0D01*
G01Y154016D02*
G03X179575I-4378J0D01*
G01Y163780D02*
G03X179575I-4378J0D01*
G01X179260Y176378D02*
G03X179260I-4378J0D01*
G01Y185827D02*
G03X179260I-4378J0D01*
G01Y215827D02*
G03X179260I-4378J0D01*
G01Y225197D02*
G03X179260I-4378J0D01*
G01X169575Y113780D02*
G03X169575I-4378J0D01*
G01Y124016D02*
G03X169575I-4378J0D01*
G01Y154016D02*
G03X169575I-4378J0D01*
G01Y163780D02*
G03X169575I-4378J0D01*
G01X169260Y176378D02*
G03X169260I-4378J0D01*
G01Y185827D02*
G03X169260I-4378J0D01*
G01Y215827D02*
G03X169260I-4378J0D01*
G01Y225197D02*
G03X169260I-4378J0D01*
G01X159575Y113780D02*
G03X159575I-4378J0D01*
G01Y124016D02*
G03X159575I-4378J0D01*
G01Y154016D02*
G03X159575I-4378J0D01*
G01Y163780D02*
G03X159575I-4378J0D01*
G01X159260Y176378D02*
G03X159260I-4378J0D01*
G01Y185827D02*
G03X159260I-4378J0D01*
G01Y215827D02*
G03X159260I-4378J0D01*
G01Y225197D02*
G03X159260I-4378J0D01*
G01X149575Y113780D02*
G03X149575I-4378J0D01*
G01Y124016D02*
G03X149575I-4378J0D01*
G01Y154016D02*
G03X149575I-4378J0D01*
G01Y163780D02*
G03X149575I-4378J0D01*
G01X149260Y215827D02*
G03X149260I-4378J0D01*
G01X139575Y113780D02*
G03X139575I-4378J0D01*
G01Y124016D02*
G03X139575I-4378J0D01*
G01Y154016D02*
G03X139575I-4378J0D01*
G01Y163780D02*
G03X139575I-4378J0D01*
G01X129575Y154016D02*
G03X129575I-4378J0D01*
G01X368622Y141732D02*
G03X368622I-4331J0D01*
G01X369409Y168701D02*
G03X369409I-4330J0D01*
G01X358622Y141732D02*
G03X358622I-4331J0D01*
G01X374213Y306673D02*
G03X374016Y306870I-197J0D01*
G01X350466*
G03X350269Y306673I0J-197*
X350445Y306478I197J0*
G01X349484D02*
G03X350445I481J-4352D01*
G01X349484D02*
G03X349660Y306673I-21J195D01*
X349463Y306870I-197J0*
G01X340466*
G03X340269Y306673I0J-197*
X340445Y306478I197J0*
G01X339484D02*
G03X340445I481J-4352D01*
G01X339484D02*
G03X339660Y306673I-21J195D01*
X339463Y306870I-197J0*
G01X330466*
G03X330269Y306673I0J-197*
X330445Y306478I197J0*
G01X329484D02*
G03X330445I481J-4352D01*
G01X329484D02*
G03X329660Y306673I-21J195D01*
X329463Y306870I-197J0*
G01X320466*
G03X320269Y306673I0J-197*
X320445Y306478I197J0*
G01X321848Y298174D02*
G03X320445Y306478I-1883J3952D01*
G01X321848Y298174D02*
G03X321736Y297996I85J-178D01*
G01Y280457*
G03X321794Y280318I197J0*
G01X322513Y279599*
X323032Y278346D02*
G03X322513Y279599I-1772J0D01*
G01X323032Y278346D02*
Y213386D01*
X322513Y212133D02*
G03X323032Y213386I-1253J1253D01*
G01X322513Y212133D02*
X304979Y194599D01*
G03X304921Y194460I139J-139*
G01Y179291*
G03X304978Y179153I197J-0*
G01X301322D02*
G03X304978I1828J-1791D01*
G01X301322D02*
G03X301378Y179291I-141J138D01*
G01Y194221*
G03X301358Y194306I-197J-0*
G01X301181Y195079D02*
G03X301358Y194306I1772J-0D01*
G01X301700Y196332D02*
G03X301181Y195079I1253J-1253D01*
G01X301700Y196332D02*
X319431Y214062D01*
G03X319488Y214201I-140J139*
G01Y225422*
G03X319263Y225617I-197J-0*
G01X317070Y229941D02*
G03X319263Y225617I1828J-1791D01*
G01X317070Y229941D02*
G03X317126Y230078I-141J137D01*
G01Y242843*
G03X317106Y242929I-197J-0*
G01X316929Y243701D02*
G03X317106Y242929I1772J-0D01*
G01X316929Y243701D02*
Y257323D01*
G03X316873Y257461I-197J0*
G01X319249Y261752D02*
G03X316873Y257461I-548J-2500D01*
G01X319249Y261752D02*
G03X319488Y261944I42J192D01*
G01Y277531*
G03X319431Y277670I-197J0*
G01X318712Y278389*
X318193Y279642D02*
G03X318712Y278389I1772J-0D01*
G01X318193Y279642D02*
Y297996D01*
G03X318081Y298174I-197J0*
G01X319484Y306478D02*
G03X318081Y298174I481J-4352D01*
G01X319484Y306478D02*
G03X319660Y306673I-21J195D01*
X319463Y306870I-197J0*
G01X310466*
G03X310269Y306673I0J-197*
X310445Y306478I197J0*
G01X309484D02*
G03X310445I481J-4352D01*
G01X309484D02*
G03X309660Y306673I-21J195D01*
X309463Y306870I-197J0*
G01X300466*
G03X300269Y306673I0J-197*
X300445Y306478I197J0*
G01X304343Y302126D02*
G03X300445Y306478I-4378J-0D01*
G01X298502Y297999D02*
G03X304343Y302126I1463J4127D01*
G01X298502Y297999D02*
G03X298297Y297953I-66J-185D01*
G01X288855Y288511*
X287602Y287992D02*
G03X288855Y288511I0J1772D01*
G01X287602Y287992D02*
X253571D01*
G03X253432Y287934I0J-197*
G01X241987Y276489*
G03X241929Y276350I139J-139*
G01Y248385*
G03X242267Y248248I197J0*
G01X246653Y246483D02*
G03X242267Y248248I-2559J-26D01*
G01X246653Y246483D02*
G03X246711Y246346I197J2D01*
G01X269574Y223483*
G03X269713Y223425I139J139*
G01X277599*
G03X277737Y223481I-0J197*
G01Y219826D02*
G03Y223481I1791J1828D01*
G01Y219826D02*
G03X277599Y219882I-138J-141D01*
G01X268898*
X267645Y220401D02*
G03X268898Y219882I1253J1253D01*
G01X267645Y220401D02*
X244206Y243840D01*
G03X244068Y243898I-140J-139*
G01X242267Y244666D02*
G03X244068Y243898I1827J1791D01*
G01X242267Y244666D02*
G03X241929Y244528I-141J-138D01*
G01Y242351*
G03X241987Y242212I197J-0*
G01X244363Y239835*
X244882Y238583D02*
G03X244363Y239835I-1772J-0D01*
G01X244882Y238583D02*
Y233425D01*
G03X244938Y233287I197J-0*
G01X241282D02*
G03X244938I1828J-1791D01*
G01X241282D02*
G03X241339Y233425I-140J138D01*
G01Y237767*
G03X241281Y237906I-197J0*
G01X238905Y240283*
X238386Y241535D02*
G03X238905Y240283I1771J0D01*
G01X238386Y241535D02*
Y243084D01*
G03X238016Y243178I-197J0*
G01X235584Y241131D02*
G03X238016Y243178I-1411J4145D01*
G01X235584Y241131D02*
G03Y240759I64J-186D01*
G01X232762D02*
G03X235584I1411J-4145D01*
G01X232762D02*
G03Y241131I-63J186D01*
G01X238016Y247373D02*
G03X232762Y241131I-3843J-2097D01*
G01X238016Y247373D02*
G03X238386Y247467I173J94D01*
G01Y273084*
G03X238016Y273178I-197J0*
G01X233325Y279571D02*
G03X238016Y273178I848J-4295D01*
G01X233325Y279571D02*
G03Y279957I-38J193D01*
G01X235021D02*
G03X233325I-848J4295D01*
G01X235021D02*
G03Y279571I38J-193D01*
G01X238034Y277340D02*
G03X235021Y279571I-3861J-2064D01*
G01X238034Y277340D02*
G03X238402Y277406I173J93D01*
G01X238905Y278418D02*
G03X238402Y277406I1252J-1253D01*
G01X238905Y278418D02*
X251503Y291017D01*
X252756Y291535D02*
G03X251503Y291017I-0J-1771D01*
G01X252756Y291535D02*
X286787D01*
G03X286926Y291593I-0J197*
G01X295792Y300459*
G03X295838Y300664I-139J139*
G01X295587Y302126D02*
G03X295838Y300664I4378J-0D01*
G01X295587Y302126D02*
X295587D01*
X299484Y306478D02*
G03X295587Y302126I481J-4352D01*
G01X299484Y306478D02*
G03X299660Y306673I-21J195D01*
X299463Y306870I-197J0*
G01X290466*
G03X290269Y306673I0J-197*
X290445Y306478I197J0*
G01X289484D02*
G03X290445I481J-4352D01*
G01X289484D02*
G03X289660Y306673I-21J195D01*
X289463Y306870I-197J0*
G01X283258*
G03X283061Y306673I0J-197*
X283221Y306480I197J0*
G01X284343Y305126D02*
G03X283221Y306480I-1378J-0D01*
G01X284343Y305126D02*
Y299126D01*
X282965Y297748D02*
G03X284343Y299126I-0J1378D01*
G01X282965Y297748D02*
X276965D01*
X275587Y299126D02*
G03X276965Y297748I1378J-0D01*
G01X275587Y299126D02*
Y305126D01*
X276708Y306480D02*
G03X275587Y305126I257J-1354D01*
G01X276708Y306480D02*
G03X276868Y306673I-37J193D01*
X276671Y306870I-197J0*
G01X264466*
G03X264269Y306673I0J-197*
X264445Y306478I197J0*
G01X263484D02*
G03X264445I481J-4352D01*
G01X263484D02*
G03X263660Y306673I-21J195D01*
X263463Y306870I-197J0*
G01X254466*
G03X254269Y306673I0J-197*
X254445Y306478I197J0*
G01X253484D02*
G03X254445I481J-4352D01*
G01X253484D02*
G03X253660Y306673I-21J195D01*
X253463Y306870I-197J0*
G01X244466*
G03X244269Y306673I0J-197*
X244445Y306478I197J0*
G01X243484D02*
G03X244445I481J-4352D01*
G01X243484D02*
G03X243660Y306673I-21J195D01*
X243463Y306870I-197J0*
G01X234466*
G03X234269Y306673I0J-197*
X234445Y306478I197J0*
G01X233484D02*
G03X234445I481J-4352D01*
G01X233484D02*
G03X233660Y306673I-21J195D01*
X233463Y306870I-197J0*
G01X224466*
G03X224269Y306673I0J-197*
X224445Y306478I197J0*
G01X223484D02*
G03X224445I481J-4352D01*
G01X223484D02*
G03X223660Y306673I-21J195D01*
X223463Y306870I-197J0*
G01X214466*
G03X214269Y306673I0J-197*
X214445Y306478I197J0*
G01X213484D02*
G03X214445I481J-4352D01*
G01X213484D02*
G03X213660Y306673I-21J195D01*
X213463Y306870I-197J0*
G01X204466*
G03X204269Y306673I0J-197*
X204445Y306478I197J0*
G01X203484D02*
G03X204445I481J-4352D01*
G01X203484D02*
G03X203660Y306673I-21J195D01*
X203463Y306870I-197J0*
G01X194466*
G03X194269Y306673I0J-197*
X194445Y306478I197J0*
G01X193484D02*
G03X194445I481J-4352D01*
G01X193484D02*
G03X193660Y306673I-21J195D01*
X193463Y306870I-197J0*
G01X184466*
G03X184269Y306673I0J-197*
X184445Y306478I197J0*
G01X183484D02*
G03X184445I481J-4352D01*
G01X183484D02*
G03X183660Y306673I-21J195D01*
X183463Y306870I-197J0*
G01X177258*
G03X177061Y306673I0J-197*
X177221Y306480I197J0*
G01X178343Y305126D02*
G03X177221Y306480I-1378J-0D01*
G01X178343Y305126D02*
Y299126D01*
X176965Y297748D02*
G03X178343Y299126I-0J1378D01*
G01X176965Y297748D02*
X170965D01*
X169587Y299126D02*
G03X170965Y297748I1378J-0D01*
G01X169587Y299126D02*
Y305126D01*
X170708Y306480D02*
G03X169587Y305126I257J-1354D01*
G01X170708Y306480D02*
G03X170868Y306673I-37J193D01*
X170671Y306870I-197J0*
G01X101575*
G03X101378Y306673I-0J-197*
G01Y107787*
G03X101575Y107591I197J0*
G01X206135*
G03X206239Y107955I-0J196*
G01X205587Y109126D02*
G03X206239Y107955I1378J-0D01*
G01X205587Y109126D02*
Y115126D01*
X206965Y116504D02*
G03X205587Y115126I-0J-1378D01*
G01X206965Y116504D02*
X212965D01*
X214343Y115126D02*
G03X212965Y116504I-1378J-0D01*
G01X214343Y115126D02*
Y109126D01*
X213691Y107955D02*
G03X214343Y109126I-726J1171D01*
G01X213691Y107955D02*
G03X213794Y107591I103J-168D01*
G01X218513*
G03X218710Y107787I0J196*
X218576Y107974I-197J0*
G01X221353D02*
G03X218576I-1388J4152D01*
G01X221353D02*
G03X221219Y107787I63J-187D01*
X221416Y107591I197J0*
G01X228513*
G03X228710Y107787I0J196*
X228576Y107974I-197J0*
G01X231353D02*
G03X228576I-1388J4152D01*
G01X231353D02*
G03X231219Y107787I63J-187D01*
X231416Y107591I197J0*
G01X238513*
G03X238710Y107787I0J196*
X238576Y107974I-197J0*
G01X241353D02*
G03X238576I-1388J4152D01*
G01X241353D02*
G03X241219Y107787I63J-187D01*
X241416Y107591I197J0*
G01X248513*
G03X248710Y107787I0J196*
X248576Y107974I-197J0*
G01X251353D02*
G03X248576I-1388J4152D01*
G01X251353D02*
G03X251219Y107787I63J-187D01*
X251416Y107591I197J0*
G01X258513*
G03X258710Y107787I0J196*
X258576Y107974I-197J0*
G01X261353D02*
G03X258576I-1388J4152D01*
G01X261353D02*
G03X261219Y107787I63J-187D01*
X261416Y107591I197J0*
G01X268513*
G03X268710Y107787I0J196*
X268576Y107974I-197J0*
G01X271353D02*
G03X268576I-1388J4152D01*
G01X271353D02*
G03X271219Y107787I63J-187D01*
X271416Y107591I197J0*
G01X278513*
G03X278710Y107787I0J196*
X278576Y107974I-197J0*
G01X281353D02*
G03X278576I-1388J4152D01*
G01X281353D02*
G03X281219Y107787I63J-187D01*
X281416Y107591I197J0*
G01X296081*
G03X296198Y107946I0J196*
G01X295638Y109055D02*
G03X296198Y107946I1378J0D01*
G01X295638Y109055D02*
Y115055D01*
X297016Y116433D02*
G03X295638Y115055I-0J-1378D01*
G01X297016Y116433D02*
X298047D01*
G03X298244Y116630I0J197*
G01Y130331*
X298763Y131583D02*
G03X298244Y130331I1253J-1252D01*
G01X298763Y131583D02*
X314903Y147723D01*
G03X314961Y147863I-139J140*
G01Y159021*
G03X314582Y159096I-197J0*
G01Y162439D02*
G03Y159096I-4047J-1671D01*
G01Y162439D02*
G03X314961Y162514I182J75D01*
G01Y172481*
G03X314904Y172618I-197J-0*
G01X318560D02*
G03X314904I-1828J1791D01*
G01X318560D02*
G03X318504Y172481I141J-137D01*
G01Y147047*
X317985Y145794D02*
G03X318504Y147047I-1253J1253D01*
G01X317985Y145794D02*
X301845Y129655D01*
G03X301787Y129515I139J-140*
G01Y116630*
G03X301984Y116433I197J-0*
G01X303016*
X304394Y115055D02*
G03X303016Y116433I-1378J0D01*
G01X304394Y115055D02*
Y109055D01*
X303833Y107946D02*
G03X304394Y109055I-817J1109D01*
G01X303833Y107946D02*
G03X303950Y107591I117J-159D01*
G01X308368*
G03X308439Y107971I-0J196*
G01X308132Y116007D02*
G03X308439Y107971I1884J-3952D01*
G01X308132Y116007D02*
G03X308244Y116185I-85J178D01*
G01Y133638*
X308763Y134891D02*
G03X308244Y133638I1253J-1253D01*
G01X308763Y134891D02*
X340690Y166818D01*
G03X340748Y166957I-139J139*
G01Y171654*
X342126Y173032D02*
G03X340748Y171654I-0J-1378D01*
G01X342126Y173032D02*
X347489D01*
G03X347628Y173368I-0J196*
G01X344478Y176517*
G03X344339Y176575I-139J-139*
G01X334449*
X333057Y177151D02*
G03X334449Y176575I1392J1392D01*
G01X333057Y177151D02*
X327742Y182466D01*
X327165Y183858D02*
G03X327742Y182466I1969J0D01*
G01X327165Y183858D02*
Y189831D01*
G03X327123Y189952I-197J-0*
G01X331145D02*
G03X327123I-2011J1583D01*
G01X331145D02*
G03X331102Y189831I154J-121D01*
G01Y184755*
G03X331160Y184616I197J0*
G01X335207Y180569*
G03X335346Y180512I139J140*
G01X345236*
X346628Y179935D02*
G03X345236Y180512I-1392J-1392D01*
G01X346628Y179935D02*
X352774Y173789D01*
G03X353110Y173928I139J139*
G01Y265008*
X353687Y266400D02*
G03X353110Y265008I1392J-1392D01*
G01X353687Y266400D02*
X356812Y269525D01*
G03X356870Y269665I-139J140*
G01Y274177*
X358248Y275555D02*
G03X356870Y274177I0J-1378D01*
G01X358248Y275555D02*
X364248D01*
X365626Y274177D02*
G03X364248Y275555I-1378J0D01*
G01X365626Y274177D02*
Y268177D01*
X364248Y266799D02*
G03X365626Y268177I0J1378D01*
G01X364248Y266799D02*
X359736D01*
G03X359596Y266742I-0J-197*
G01X357105Y264250*
G03X357047Y264111I139J-139*
G01Y263390*
G03X357416Y263295I197J0*
G01Y259059D02*
G03Y263295I3832J2118D01*
G01Y259059D02*
G03X357047Y258964I-172J-95D01*
G01Y253390*
G03X357416Y253295I197J0*
G01Y249059D02*
G03Y253295I3832J2118D01*
G01Y249059D02*
G03X357047Y248964I-172J-95D01*
G01Y243390*
G03X357416Y243295I197J0*
G01Y239059D02*
G03Y243295I3832J2118D01*
G01Y239059D02*
G03X357047Y238964I-172J-95D01*
G01Y172677*
G03X357150Y172504I197J-0*
G01X350925Y169926D02*
G03X357150Y172504I4154J-1225D01*
G01X350925Y169926D02*
G03X350875Y170120I-189J55D01*
G01X349746Y171250*
G03X349409Y171111I-140J-139*
G01Y165748*
X348031Y164370D02*
G03X349409Y165748I0J1378D01*
G01X348031Y164370D02*
X343335D01*
G03X343196Y164312I0J-197*
G01X311845Y132962*
G03X311787Y132822I139J-140*
G01Y116185*
G03X311900Y116007I197J-0*
G01X311593Y107971D02*
G03X311900Y116007I-1577J4084D01*
G01X311593Y107971D02*
G03X311664Y107591I71J-184D01*
G01X318368*
G03X318439Y107971I-0J196*
G01X318132Y116007D02*
G03X318439Y107971I1884J-3952D01*
G01X318132Y116007D02*
G03X318244Y116185I-85J178D01*
G01Y128087*
X318763Y129339D02*
G03X318244Y128087I1253J-1252D01*
G01X318763Y129339D02*
X323354Y133930D01*
X324606Y134449D02*
G03X323354Y133930I0J-1772D01*
G01X324606Y134449D02*
X334421D01*
G03X334560Y134506I-0J197*
G01X339903Y139849*
G03X339961Y139989I-139J140*
G01Y144685*
X341339Y146063D02*
G03X339961Y144685I-0J-1378D01*
G01X341339Y146063D02*
X347244D01*
X348622Y144685D02*
G03X347244Y146063I-1378J0D01*
G01X348622Y144685D02*
Y138780D01*
X347244Y137402D02*
G03X348622Y138780I0J1378D01*
G01X347244Y137402D02*
X342548D01*
G03X342408Y137344I-0J-197*
G01X336489Y131424*
X335236Y130905D02*
G03X336489Y131424I0J1772D01*
G01X335236Y130905D02*
X325422D01*
G03X325282Y130848I-0J-196*
G01X321845Y127410*
G03X321787Y127271I139J-139*
G01Y116185*
G03X321900Y116007I197J-0*
G01X321593Y107971D02*
G03X321900Y116007I-1577J4084D01*
G01X321593Y107971D02*
G03X321664Y107591I71J-184D01*
G01X328368*
G03X328439Y107971I-0J196*
G01X331593D02*
G03X328439I-1577J4084D01*
G01X331593D02*
G03X331664Y107591I71J-184D01*
G01X338368*
G03X338439Y107971I-0J196*
G01X341593D02*
G03X338439I-1577J4084D01*
G01X341593D02*
G03X341664Y107591I71J-184D01*
G01X348368*
G03X348439Y107971I-0J196*
G01X351593D02*
G03X348439I-1577J4084D01*
G01X351593D02*
G03X351664Y107591I71J-184D01*
G01X374016*
G03X374213Y107787I-0J196*
G01Y306673*
X348425Y239173D02*
G03X348425I-2559J0D01*
G01X335236D02*
G03X335236I-2559J0D01*
G01X304913Y160768D02*
G03X304913I-4378J0D01*
G01X310292Y257658D02*
G03X310236Y257520I141J-138D01*
G01Y244291*
X310059Y243519D02*
G03X310236Y244291I-1594J772D01*
G01X310059Y243519D02*
G03X310039Y243433I177J-86D01*
G01Y230669*
G03X310096Y230531I197J-0*
G01X306440D02*
G03X310096I1828J-1791D01*
G01X306440D02*
G03X306496Y230669I-141J138D01*
G01Y244094*
X306673Y244867D02*
G03X306496Y244094I1595J-773D01*
G01X306673Y244867D02*
G03X306693Y244953I-177J86D01*
G01Y257520*
G03X306637Y257658I-197J0*
G01X310292D02*
G03X306637I-1827J1791D01*
G01X299156Y230531D02*
G03X299213Y230669I-140J138D01*
G01Y242098*
G03X299155Y242237I-197J-0*
G01X297566Y243826*
X297047Y245079D02*
G03X297566Y243826I1772J-0D01*
G01X297047Y245079D02*
Y257323D01*
G03X296991Y257461I-197J0*
G01X300647D02*
G03X296991I-1828J1791D01*
G01X300647D02*
G03X300591Y257323I140J-138D01*
G01Y245894*
G03X300648Y245755I196J0*
G01X302237Y244166*
X302756Y242913D02*
G03X302237Y244166I-1772J0D01*
G01X302756Y242913D02*
Y230669D01*
G03X302812Y230531I197J-0*
G01X299156D02*
G03X302812I1828J-1791D01*
G01X292913Y137598D02*
G03X292913I-2559J0D01*
G01X294913Y160768D02*
G03X294913I-4378J0D01*
G01X291085Y230334D02*
G03X291142Y230472I-140J138D01*
G01Y242098*
G03X291084Y242237I-197J-0*
G01X287133Y246188*
X286614Y247441D02*
G03X287133Y246188I1772J-0D01*
G01X286614Y247441D02*
Y257126D01*
G03X286558Y257264I-197J0*
G01X290214D02*
G03X286558I-1828J1791D01*
G01X290214D02*
G03X290158Y257126I140J-138D01*
G01X290158D02*
Y248256D01*
X290158D02*
G03X290215Y248117I196J0D01*
G01X294166Y244166*
X294685Y242913D02*
G03X294166Y244166I-1772J0D01*
G01X294685Y242913D02*
Y230472D01*
G03X294741Y230334I197J0*
G01X291085D02*
G03X294741I1828J-1791D01*
G01X284913Y163768D02*
Y157768D01*
X283535Y156390D02*
G03X284913Y157768I0J1378D01*
G01X283535Y156390D02*
X277535D01*
X276157Y157768D02*
G03X277535Y156390I1378J-0D01*
G01X276157Y157768D02*
Y163768D01*
X277535Y165146D02*
G03X276157Y163768I0J-1378D01*
G01X277535Y165146D02*
X283535D01*
X284913Y163768D02*
G03X283535Y165146I-1378J-0D01*
G01X283802Y230728D02*
G03X283858Y230866I-141J138D01*
G01Y242098*
G03X283801Y242237I-197J-0*
G01X277487Y248550*
X276968Y249803D02*
G03X277487Y248550I1772J0D01*
G01X276968Y249803D02*
Y257126D01*
G03X276912Y257264I-196J0*
G01X280568D02*
G03X276912I-1828J1791D01*
G01X280568D02*
G03X280512Y257126I141J-138D01*
G01Y250619*
G03X280569Y250479I197J-0*
G01X286883Y244166*
X287402Y242913D02*
G03X286883Y244166I-1772J0D01*
G01X287402Y242913D02*
Y230866D01*
G03X287458Y230728I196J-0*
G01X283802D02*
G03X287458I1828J-1791D01*
G01X274156Y230925D02*
G03X274213Y231063I-140J138D01*
G01Y242098*
G03X274155Y242237I-197J-0*
G01X267251Y249141*
X266732Y250394D02*
G03X267251Y249141I1772J-0D01*
G01X266732Y250394D02*
Y257323D01*
G03X266676Y257461I-197J0*
G01X270332D02*
G03X266676I-1828J1791D01*
G01X270332D02*
G03X270276Y257323I140J-138D01*
G01Y251209*
G03X270333Y251070I196J0*
G01X277237Y244166*
X277756Y242913D02*
G03X277237Y244166I-1772J0D01*
G01X277756Y242913D02*
Y231063D01*
G03X277812Y230925I197J-0*
G01X274156D02*
G03X277812I1828J-1791D01*
G01X225584Y241131D02*
G03Y240759I64J-186D01*
G01X222762D02*
G03X225584I1411J-4145D01*
G01X222762D02*
G03Y241131I-63J186D01*
G01X225584D02*
G03X222762I-1411J4145D01*
G01X225021Y279957D02*
G03Y279571I38J-193D01*
G01X223325D02*
G03X225021I848J-4295D01*
G01X223325D02*
G03Y279957I-38J193D01*
G01X225021D02*
G03X223325I-848J4295D01*
G01X219260Y176378D02*
G03X219260I-4378J0D01*
G01Y185827D02*
G03X219260I-4378J0D01*
G01Y215827D02*
G03X219260I-4378J0D01*
G01Y225197D02*
G03X219260I-4378J0D01*
G01X215584Y241131D02*
G03Y240759I64J-186D01*
G01X212762D02*
G03X215584I1411J-4145D01*
G01X212762D02*
G03Y241131I-63J186D01*
G01X215584D02*
G03X212762I-1411J4145D01*
G01X215021Y279957D02*
G03Y279571I38J-193D01*
G01X213325D02*
G03X215021I848J-4295D01*
G01X213325D02*
G03Y279957I-38J193D01*
G01X215021D02*
G03X213325I-848J4295D01*
G01X209260Y176378D02*
G03X209260I-4378J0D01*
G01Y185827D02*
G03X209260I-4378J0D01*
G01Y215827D02*
G03X209260I-4378J0D01*
G01Y225197D02*
G03X209260I-4378J0D01*
G01X205584Y241131D02*
G03Y240759I64J-186D01*
G01X202762D02*
G03X205584I1411J-4145D01*
G01X202762D02*
G03Y241131I-63J186D01*
G01X205584D02*
G03X202762I-1411J4145D01*
G01X205021Y279957D02*
G03Y279571I38J-193D01*
G01X203325D02*
G03X205021I848J-4295D01*
G01X203325D02*
G03Y279957I-38J193D01*
G01X205021D02*
G03X203325I-848J4295D01*
G01X199575Y113780D02*
G03X199575I-4378J0D01*
G01Y124016D02*
G03X199575I-4378J0D01*
G01Y154016D02*
G03X199575I-4378J0D01*
G01Y163780D02*
G03X199575I-4378J0D01*
G01X199260Y176378D02*
G03X199260I-4378J0D01*
G01Y185827D02*
G03X199260I-4378J0D01*
G01Y215827D02*
G03X199260I-4378J0D01*
G01Y225197D02*
G03X199260I-4378J0D01*
G01X195584Y241131D02*
G03Y240759I64J-186D01*
G01X192762D02*
G03X195584I1411J-4145D01*
G01X192762D02*
G03Y241131I-63J186D01*
G01X195584D02*
G03X192762I-1411J4145D01*
G01X195021Y279957D02*
G03Y279571I38J-193D01*
G01X193325D02*
G03X195021I848J-4295D01*
G01X193325D02*
G03Y279957I-38J193D01*
G01X195021D02*
G03X193325I-848J4295D01*
G01X189575Y113780D02*
G03X189575I-4378J0D01*
G01Y124016D02*
G03X189575I-4378J0D01*
G01Y154016D02*
G03X189575I-4378J0D01*
G01Y163780D02*
G03X189575I-4378J0D01*
G01X189260Y176378D02*
G03X189260I-4378J0D01*
G01Y185827D02*
G03X189260I-4378J0D01*
G01Y215827D02*
G03X189260I-4378J0D01*
G01Y225197D02*
G03X189260I-4378J0D01*
G01X185584Y241131D02*
G03Y240759I64J-186D01*
G01X182762D02*
G03X185584I1411J-4145D01*
G01X182762D02*
G03Y241131I-63J186D01*
G01X185584D02*
G03X182762I-1411J4145D01*
G01X185021Y279957D02*
G03Y279571I38J-193D01*
G01X183325D02*
G03X185021I848J-4295D01*
G01X183325D02*
G03Y279957I-38J193D01*
G01X185021D02*
G03X183325I-848J4295D01*
G01X179575Y113780D02*
G03X179575I-4378J0D01*
G01Y124016D02*
G03X179575I-4378J0D01*
G01Y154016D02*
G03X179575I-4378J0D01*
G01Y163780D02*
G03X179575I-4378J0D01*
G01X179260Y176378D02*
G03X179260I-4378J0D01*
G01Y185827D02*
G03X179260I-4378J0D01*
G01Y215827D02*
G03X179260I-4378J0D01*
G01Y225197D02*
G03X179260I-4378J0D01*
G01X175584Y241131D02*
G03Y240759I64J-186D01*
G01X172762D02*
G03X175584I1411J-4145D01*
G01X172762D02*
G03Y241131I-63J186D01*
G01X175584D02*
G03X172762I-1411J4145D01*
G01X175021Y279957D02*
G03Y279571I38J-193D01*
G01X173325D02*
G03X175021I848J-4295D01*
G01X173325D02*
G03Y279957I-38J193D01*
G01X175021D02*
G03X173325I-848J4295D01*
G01X169575Y113780D02*
G03X169575I-4378J0D01*
G01Y124016D02*
G03X169575I-4378J0D01*
G01Y154016D02*
G03X169575I-4378J0D01*
G01Y163780D02*
G03X169575I-4378J0D01*
G01X169260Y176378D02*
G03X169260I-4378J0D01*
G01Y185827D02*
G03X169260I-4378J0D01*
G01Y215827D02*
G03X169260I-4378J0D01*
G01Y225197D02*
G03X169260I-4378J0D01*
G01X168551Y248276D02*
Y242276D01*
X167910Y241111D02*
G03X168551Y242276I-737J1165D01*
G01X167910Y241111D02*
G03Y240779I105J-166D01*
G01X168551Y239614D02*
G03X167910Y240779I-1378J0D01*
G01X168551Y239614D02*
Y233614D01*
X167173Y232236D02*
G03X168551Y233614I0J1378D01*
G01X167173Y232236D02*
X161173D01*
X159795Y233614D02*
G03X161173Y232236I1378J0D01*
G01X159795Y233614D02*
Y239614D01*
X160436Y240779D02*
G03X159795Y239614I737J-1165D01*
G01X160436Y240779D02*
G03Y241111I-105J166D01*
G01X159795Y242276D02*
G03X160436Y241111I1378J-0D01*
G01X159795Y242276D02*
Y248276D01*
X161173Y249654D02*
G03X159795Y248276I0J-1378D01*
G01X161173Y249654D02*
X167173D01*
X168551Y248276D02*
G03X167173Y249654I-1378J-0D01*
G01X168551Y287252D02*
Y281252D01*
X167173Y279874D02*
G03X168551Y281252I0J1378D01*
G01X167173Y279874D02*
X165420D01*
G03X165367Y279488I0J-197*
G01X168551Y275276D02*
G03X165367Y279488I-4378J-0D01*
G01X159795Y275276D02*
G03X168551I4378J-0D01*
G01X162980Y279488D02*
G03X159795Y275276I1193J-4212D01*
G01X162980Y279488D02*
G03X162926Y279874I-54J189D01*
G01X161173*
X159795Y281252D02*
G03X161173Y279874I1378J-0D01*
G01X159795Y281252D02*
Y287252D01*
X161173Y288630D02*
G03X159795Y287252I0J-1378D01*
G01X161173Y288630D02*
X167173D01*
X168551Y287252D02*
G03X167173Y288630I-1378J-0D01*
G01X159575Y113780D02*
G03X159575I-4378J0D01*
G01Y124016D02*
G03X159575I-4378J0D01*
G01Y154016D02*
G03X159575I-4378J0D01*
G01Y163780D02*
G03X159575I-4378J0D01*
G01X159260Y176378D02*
G03X159260I-4378J0D01*
G01Y185827D02*
G03X159260I-4378J0D01*
G01Y215827D02*
G03X159260I-4378J0D01*
G01Y225197D02*
G03X159260I-4378J0D01*
G01X149575Y113780D02*
G03X149575I-4378J0D01*
G01Y124016D02*
G03X149575I-4378J0D01*
G01Y154016D02*
G03X149575I-4378J0D01*
G01Y163780D02*
G03X149575I-4378J0D01*
G01X149260Y179378D02*
Y173378D01*
X147882Y172000D02*
G03X149260Y173378I-0J1378D01*
G01X147882Y172000D02*
X141882D01*
X140504Y173378D02*
G03X141882Y172000I1378J-0D01*
G01X140504Y173378D02*
Y179378D01*
X141882Y180756D02*
G03X140504Y179378I-0J-1378D01*
G01X141882Y180756D02*
X147882D01*
X149260Y179378D02*
G03X147882Y180756I-1378J-0D01*
G01X149260Y188827D02*
Y182827D01*
X147882Y181449D02*
G03X149260Y182827I-0J1378D01*
G01X147882Y181449D02*
X141882D01*
X140504Y182827D02*
G03X141882Y181449I1378J-0D01*
G01X140504Y182827D02*
Y188827D01*
X141882Y190205D02*
G03X140504Y188827I-0J-1378D01*
G01X141882Y190205D02*
X147882D01*
X149260Y188827D02*
G03X147882Y190205I-1378J-0D01*
G01X149260Y215827D02*
G03X149260I-4378J0D01*
G01Y228197D02*
Y222197D01*
X147882Y220819D02*
G03X149260Y222197I-0J1378D01*
G01X147882Y220819D02*
X141882D01*
X140504Y222197D02*
G03X141882Y220819I1378J-0D01*
G01X140504Y222197D02*
Y228197D01*
X141882Y229575D02*
G03X140504Y228197I-0J-1378D01*
G01X141882Y229575D02*
X147882D01*
X149260Y228197D02*
G03X147882Y229575I-1378J-0D01*
G01X139575Y113780D02*
G03X139575I-4378J0D01*
G01Y124016D02*
G03X139575I-4378J0D01*
G01Y154016D02*
G03X139575I-4378J0D01*
G01Y163780D02*
G03X139575I-4378J0D01*
G01X129575Y116780D02*
Y110780D01*
X128197Y109402D02*
G03X129575Y110780I-0J1378D01*
G01X128197Y109402D02*
X122197D01*
X120819Y110780D02*
G03X122197Y109402I1378J-0D01*
G01X120819Y110780D02*
Y116780D01*
X122197Y118158D02*
G03X120819Y116780I-0J-1378D01*
G01X122197Y118158D02*
X128197D01*
X129575Y116780D02*
G03X128197Y118158I-1378J-0D01*
G01X129575Y127016D02*
Y121016D01*
X128197Y119638D02*
G03X129575Y121016I-0J1378D01*
G01X128197Y119638D02*
X122197D01*
X120819Y121016D02*
G03X122197Y119638I1378J-0D01*
G01X120819Y121016D02*
Y127016D01*
X122197Y128394D02*
G03X120819Y127016I-0J-1378D01*
G01X122197Y128394D02*
X128197D01*
X129575Y127016D02*
G03X128197Y128394I-1378J-0D01*
G01X129575Y154016D02*
G03X129575I-4378J0D01*
G01Y166780D02*
Y160780D01*
X128197Y159402D02*
G03X129575Y160780I-0J1378D01*
G01X128197Y159402D02*
X122197D01*
X120819Y160780D02*
G03X122197Y159402I1378J-0D01*
G01X120819Y160780D02*
Y166780D01*
X122197Y168158D02*
G03X120819Y166780I-0J-1378D01*
G01X122197Y168158D02*
X128197D01*
X129575Y166780D02*
G03X128197Y168158I-1378J-0D01*
G01X368622Y141732D02*
G03X368622I-4331J0D01*
G01X369409Y168701D02*
G03X369409I-4330J0D01*
G01X358622Y141732D02*
G03X358622I-4331J0D01*
G01X350288Y306589D02*
X374213D01*
X352643Y305589D02*
X374213D01*
X353584Y304589D02*
X374213D01*
X354091Y303589D02*
X374213D01*
X354318Y302589D02*
X374213D01*
X354310Y301589D02*
X374213D01*
X354064Y300589D02*
X374213D01*
X353533Y299589D02*
X374213D01*
X352545Y298589D02*
X374213D01*
X321736Y297589D02*
X374213D01*
X321736Y296589D02*
X374213D01*
X321736Y295589D02*
X374213D01*
X321736Y294589D02*
X374213D01*
X321736Y293589D02*
X374213D01*
X321736Y292589D02*
X374213D01*
X321736Y291589D02*
X374213D01*
X321736Y290589D02*
X374213D01*
X321736Y289589D02*
X374213D01*
X321736Y288589D02*
X374213D01*
X321736Y287589D02*
X374213D01*
X321736Y286589D02*
X374213D01*
X321736Y285589D02*
X374213D01*
X321736Y284589D02*
X374213D01*
X321736Y283589D02*
X374213D01*
X321736Y282589D02*
X374213D01*
X321736Y281589D02*
X374213D01*
X321736Y280589D02*
X374213D01*
X322522Y279589D02*
X374213D01*
X323015Y278589D02*
X374213D01*
X323032Y277589D02*
X374213D01*
X323032Y276589D02*
X374213D01*
X323032Y275589D02*
X374213D01*
X365563Y274589D02*
X374213D01*
X365626Y273589D02*
X374213D01*
X365626Y272589D02*
X374213D01*
X365626Y271589D02*
X374213D01*
X365626Y270589D02*
X374213D01*
X365626Y269589D02*
X374213D01*
X365626Y268589D02*
X374213D01*
X365494Y267589D02*
X374213D01*
X359444Y266589D02*
X374213D01*
X358444Y265589D02*
X374213D01*
X363991Y264589D02*
X374213D01*
X364902Y263589D02*
X374213D01*
X365392Y262589D02*
X374213D01*
X365607Y261589D02*
X374213D01*
X365586Y260589D02*
X374213D01*
X365328Y259589D02*
X374213D01*
X364779Y258589D02*
X374213D01*
X363757Y257589D02*
X374213D01*
X357047Y256589D02*
X374213D01*
X357047Y255589D02*
X374213D01*
X363991Y254589D02*
X374213D01*
X364902Y253589D02*
X374213D01*
X365392Y252589D02*
X374213D01*
X365607Y251589D02*
X374213D01*
X365586Y250589D02*
X374213D01*
X365328Y249589D02*
X374213D01*
X364779Y248589D02*
X374213D01*
X363757Y247589D02*
X374213D01*
X357047Y246589D02*
X374213D01*
X357047Y245589D02*
X374213D01*
X363991Y244589D02*
X374213D01*
X364902Y243589D02*
X374213D01*
X365392Y242589D02*
X374213D01*
X365607Y241589D02*
X374213D01*
X365586Y240589D02*
X374213D01*
X365328Y239589D02*
X374213D01*
X364779Y238589D02*
X374213D01*
X363757Y237589D02*
X374213D01*
X357047Y236589D02*
X374213D01*
X357047Y235589D02*
X374213D01*
X357047Y234589D02*
X374213D01*
X357047Y233589D02*
X374213D01*
X357047Y232589D02*
X374213D01*
X357047Y231589D02*
X374213D01*
X357047Y230589D02*
X374213D01*
X357047Y229589D02*
X374213D01*
X357047Y228589D02*
X374213D01*
X357047Y227589D02*
X374213D01*
X357047Y226589D02*
X374213D01*
X357047Y225589D02*
X374213D01*
X357047Y224589D02*
X374213D01*
X357047Y223589D02*
X374213D01*
X357047Y222589D02*
X374213D01*
X357047Y221589D02*
X374213D01*
X357047Y220589D02*
X374213D01*
X357047Y219589D02*
X374213D01*
X357047Y218589D02*
X374213D01*
X357047Y217589D02*
X374213D01*
X357047Y216589D02*
X374213D01*
X357047Y215589D02*
X374213D01*
X357047Y214589D02*
X374213D01*
X357047Y213589D02*
X374213D01*
X357047Y212589D02*
X374213D01*
X357047Y211589D02*
X374213D01*
X357047Y210589D02*
X374213D01*
X357047Y209589D02*
X374213D01*
X357047Y208589D02*
X374213D01*
X357047Y207589D02*
X374213D01*
X357047Y206589D02*
X374213D01*
X357047Y205589D02*
X374213D01*
X357047Y204589D02*
X374213D01*
X357047Y203589D02*
X374213D01*
X357047Y202589D02*
X374213D01*
X357047Y201589D02*
X374213D01*
X357047Y200589D02*
X374213D01*
X357047Y199589D02*
X374213D01*
X357047Y198589D02*
X374213D01*
X357047Y197589D02*
X374213D01*
X357047Y196589D02*
X374213D01*
X357047Y195589D02*
X374213D01*
X357047Y194589D02*
X374213D01*
X357047Y193589D02*
X374213D01*
X357047Y192589D02*
X374213D01*
X357047Y191589D02*
X374213D01*
X357047Y190589D02*
X374213D01*
X357047Y189589D02*
X374213D01*
X357047Y188589D02*
X374213D01*
X357047Y187589D02*
X374213D01*
X357047Y186589D02*
X374213D01*
X357047Y185589D02*
X374213D01*
X357047Y184589D02*
X374213D01*
X357047Y183589D02*
X374213D01*
X357047Y182589D02*
X374213D01*
X357047Y181589D02*
X374213D01*
X357047Y180589D02*
X374213D01*
X357047Y179589D02*
X374213D01*
X357047Y178589D02*
X374213D01*
X357047Y177589D02*
X374213D01*
X357047Y176589D02*
X374213D01*
X357047Y175589D02*
X374213D01*
X357047Y174589D02*
X374213D01*
X357047Y173589D02*
X374213D01*
X366985Y172589D02*
X374213D01*
X368305Y171589D02*
X374213D01*
X368976Y170589D02*
X374213D01*
X369317Y169589D02*
X374213D01*
X369408Y168589D02*
X374213D01*
X369264Y167589D02*
X374213D01*
X368860Y166589D02*
X374213D01*
X368091Y165589D02*
X374213D01*
X366439Y164589D02*
X374213D01*
X342473Y163589D02*
X374213D01*
X341473Y162589D02*
X374213D01*
X340473Y161589D02*
X374213D01*
X339473Y160589D02*
X374213D01*
X338473Y159589D02*
X374213D01*
X337473Y158589D02*
X374213D01*
X336473Y157589D02*
X374213D01*
X335473Y156589D02*
X374213D01*
X334473Y155589D02*
X374213D01*
X333473Y154589D02*
X374213D01*
X332473Y153589D02*
X374213D01*
X331473Y152589D02*
X374213D01*
X330473Y151589D02*
X374213D01*
X329473Y150589D02*
X374213D01*
X328473Y149589D02*
X374213D01*
X327473Y148589D02*
X374213D01*
X326473Y147589D02*
X374213D01*
X325473Y146589D02*
X374213D01*
X366261Y145589D02*
X374213D01*
X367546Y144589D02*
X374213D01*
X368204Y143589D02*
X374213D01*
X368536Y142589D02*
X374213D01*
X368620Y141589D02*
X374213D01*
X368469Y140589D02*
X374213D01*
X368055Y139589D02*
X374213D01*
X367271Y138589D02*
X374213D01*
X365553Y137589D02*
X374213D01*
X341654Y136589D02*
X374213D01*
X340654Y135589D02*
X374213D01*
X339654Y134589D02*
X374213D01*
X338654Y133589D02*
X374213D01*
X337654Y132589D02*
X374213D01*
X336654Y131589D02*
X374213D01*
X325024Y130589D02*
X374213D01*
X324024Y129589D02*
X374213D01*
X323024Y128589D02*
X374213D01*
X322024Y127589D02*
X374213D01*
X321787Y126589D02*
X374213D01*
X321787Y125589D02*
X374213D01*
X321787Y124589D02*
X374213D01*
X321787Y123589D02*
X374213D01*
X321787Y122589D02*
X374213D01*
X321787Y121589D02*
X374213D01*
X321787Y120589D02*
X374213D01*
X321787Y119589D02*
X374213D01*
X321787Y118589D02*
X374213D01*
X321787Y117589D02*
X374213D01*
X321787Y116589D02*
X374213D01*
X352600Y115589D02*
X374213D01*
X353586Y114589D02*
X374213D01*
X354116Y113589D02*
X374213D01*
X354361Y112589D02*
X374213D01*
X354369Y111589D02*
X374213D01*
X354141Y110589D02*
X374213D01*
X353633Y109589D02*
X374213D01*
X352691Y108589D02*
X374213D01*
X356439Y164589D02*
X363718D01*
X357068Y172589D02*
X363172D01*
X355553Y137589D02*
X363030D01*
X356261Y145589D02*
X362322D01*
X358091Y165589D02*
X362066D01*
X358305Y171589D02*
X361852D01*
X357271Y138589D02*
X361312D01*
X358860Y166589D02*
X361298D01*
X358976Y170589D02*
X361181D01*
X357546Y144589D02*
X361037D01*
X359264Y167589D02*
X360893D01*
X359317Y169589D02*
X360840D01*
X359408Y168589D02*
X360749D01*
X358055Y139589D02*
X360528D01*
X358204Y143589D02*
X360379D01*
X358469Y140589D02*
X360114D01*
X358536Y142589D02*
X360046D01*
X358620Y141589D02*
X359963D01*
X357047Y257589D02*
X358739D01*
X357047Y247589D02*
X358739D01*
X357047Y237589D02*
X358739D01*
X357444Y264589D02*
X358505D01*
X357047Y254589D02*
X358505D01*
X357047Y244589D02*
X358505D01*
X357047Y258589D02*
X357717D01*
X357047Y248589D02*
X357717D01*
X357047Y238589D02*
X357717D01*
X357047Y263589D02*
X357594D01*
X357047Y253589D02*
X357594D01*
X357047Y243589D02*
X357594D01*
X323032Y274589D02*
X356933D01*
X323032Y273589D02*
X356870D01*
X323032Y272589D02*
X356870D01*
X323032Y271589D02*
X356870D01*
X323032Y270589D02*
X356870D01*
X323032Y269589D02*
X356855D01*
X323032Y268589D02*
X355876D01*
X323032Y267589D02*
X354876D01*
X323032Y266589D02*
X353876D01*
X348777Y164589D02*
X353718D01*
X323032Y265589D02*
X353198D01*
X323032Y264589D02*
X353110D01*
X323032Y263589D02*
X353110D01*
X323032Y262589D02*
X353110D01*
X323032Y261589D02*
X353110D01*
X323032Y260589D02*
X353110D01*
X323032Y259589D02*
X353110D01*
X323032Y258589D02*
X353110D01*
X323032Y257589D02*
X353110D01*
X323032Y256589D02*
X353110D01*
X323032Y255589D02*
X353110D01*
X323032Y254589D02*
X353110D01*
X323032Y253589D02*
X353110D01*
X323032Y252589D02*
X353110D01*
X323032Y251589D02*
X353110D01*
X323032Y250589D02*
X353110D01*
X323032Y249589D02*
X353110D01*
X323032Y248589D02*
X353110D01*
X323032Y247589D02*
X353110D01*
X323032Y246589D02*
X353110D01*
X323032Y245589D02*
X353110D01*
X323032Y244589D02*
X353110D01*
X323032Y243589D02*
X353110D01*
X323032Y242589D02*
X353110D01*
X346710Y241589D02*
X353110D01*
X347998Y240589D02*
X353110D01*
X348391Y239589D02*
X353110D01*
X348358Y238589D02*
X353110D01*
X347876Y237589D02*
X353110D01*
X323032Y236589D02*
X353110D01*
X323032Y235589D02*
X353110D01*
X323032Y234589D02*
X353110D01*
X323032Y233589D02*
X353110D01*
X323032Y232589D02*
X353110D01*
X323032Y231589D02*
X353110D01*
X323032Y230589D02*
X353110D01*
X323032Y229589D02*
X353110D01*
X323032Y228589D02*
X353110D01*
X323032Y227589D02*
X353110D01*
X323032Y226589D02*
X353110D01*
X323032Y225589D02*
X353110D01*
X323032Y224589D02*
X353110D01*
X323032Y223589D02*
X353110D01*
X323032Y222589D02*
X353110D01*
X323032Y221589D02*
X353110D01*
X323032Y220589D02*
X353110D01*
X323032Y219589D02*
X353110D01*
X323032Y218589D02*
X353110D01*
X323032Y217589D02*
X353110D01*
X323032Y216589D02*
X353110D01*
X323032Y215589D02*
X353110D01*
X323032Y214589D02*
X353110D01*
X323032Y213589D02*
X353110D01*
X322842Y212589D02*
X353110D01*
X321969Y211589D02*
X353110D01*
X320969Y210589D02*
X353110D01*
X319969Y209589D02*
X353110D01*
X318969Y208589D02*
X353110D01*
X317969Y207589D02*
X353110D01*
X316969Y206589D02*
X353110D01*
X315969Y205589D02*
X353110D01*
X314969Y204589D02*
X353110D01*
X313969Y203589D02*
X353110D01*
X312969Y202589D02*
X353110D01*
X311969Y201589D02*
X353110D01*
X310969Y200589D02*
X353110D01*
X309969Y199589D02*
X353110D01*
X308969Y198589D02*
X353110D01*
X307969Y197589D02*
X353110D01*
X306969Y196589D02*
X353110D01*
X305969Y195589D02*
X353110D01*
X304969Y194589D02*
X353110D01*
X330661Y193589D02*
X353110D01*
X331466Y192589D02*
X353110D01*
X331692Y191589D02*
X353110D01*
X331512Y190589D02*
X353110D01*
X331102Y189589D02*
X353110D01*
X331102Y188589D02*
X353110D01*
X331102Y187589D02*
X353110D01*
X331102Y186589D02*
X353110D01*
X331102Y185589D02*
X353110D01*
X331187Y184589D02*
X353110D01*
X332187Y183589D02*
X353110D01*
X333187Y182589D02*
X353110D01*
X334187Y181589D02*
X353110D01*
X335187Y180589D02*
X353110D01*
X346974Y179589D02*
X353110D01*
X347974Y178589D02*
X353110D01*
X348974Y177589D02*
X353110D01*
X349974Y176589D02*
X353110D01*
X350974Y175589D02*
X353110D01*
X351974Y174589D02*
X353110D01*
X347938Y137589D02*
X353030D01*
X348284Y145589D02*
X352322D01*
X349400Y165589D02*
X352066D01*
X348609Y138589D02*
X351312D01*
X349409Y166589D02*
X351298D01*
X348622Y144589D02*
X351037D01*
X349409Y167589D02*
X350893D01*
X349409Y169589D02*
X350840D01*
X349409Y168589D02*
X350749D01*
X348622Y139589D02*
X350528D01*
X349409Y170589D02*
X350406D01*
X348622Y143589D02*
X350379D01*
X348622Y140589D02*
X350114D01*
X348622Y142589D02*
X350046D01*
X348622Y141589D02*
X349963D01*
X340288Y306589D02*
X349641D01*
X342600Y115589D02*
X347432D01*
X319156Y173589D02*
X347406D01*
X342545Y298589D02*
X347384D01*
X342691Y108589D02*
X347341D01*
X342643Y305589D02*
X347286D01*
X343586Y114589D02*
X346446D01*
X319285Y174589D02*
X346406D01*
X343633Y109589D02*
X346398D01*
X343533Y299589D02*
X346396D01*
X343584Y304589D02*
X346345D01*
X344116Y113589D02*
X345915D01*
X344141Y110589D02*
X345890D01*
X344064Y300589D02*
X345865D01*
X344091Y303589D02*
X345838D01*
X344361Y112589D02*
X345670D01*
X344369Y111589D02*
X345663D01*
X344310Y301589D02*
X345620D01*
X344318Y302589D02*
X345611D01*
X319003Y175589D02*
X345406D01*
X333521Y241589D02*
X345023D01*
X334687Y237589D02*
X343856D01*
X334809Y240589D02*
X343735D01*
X335169Y238589D02*
X343375D01*
X335202Y239589D02*
X343341D01*
X318537Y172589D02*
X341114D01*
X318504Y171589D02*
X340748D01*
X318504Y170589D02*
X340748D01*
X318504Y169589D02*
X340748D01*
X318504Y168589D02*
X340748D01*
X318504Y167589D02*
X340748D01*
X318504Y166589D02*
X340462D01*
X324473Y145589D02*
X340299D01*
X323473Y144589D02*
X339961D01*
X322473Y143589D02*
X339961D01*
X321473Y142589D02*
X339961D01*
X320473Y141589D02*
X339961D01*
X319473Y140589D02*
X339961D01*
X318473Y139589D02*
X339643D01*
X330288Y306589D02*
X339641D01*
X318504Y165589D02*
X339462D01*
X317473Y138589D02*
X338643D01*
X318504Y164589D02*
X338462D01*
X316473Y137589D02*
X337643D01*
X318504Y163589D02*
X337462D01*
X332600Y115589D02*
X337432D01*
X332545Y298589D02*
X337384D01*
X332691Y108589D02*
X337341D01*
X332643Y305589D02*
X337286D01*
X315473Y136589D02*
X336643D01*
X318504Y162589D02*
X336462D01*
X333586Y114589D02*
X336446D01*
X333633Y109589D02*
X336398D01*
X333533Y299589D02*
X336396D01*
X333584Y304589D02*
X336345D01*
X334116Y113589D02*
X335915D01*
X334141Y110589D02*
X335890D01*
X334064Y300589D02*
X335865D01*
X334091Y303589D02*
X335838D01*
X334361Y112589D02*
X335670D01*
X334369Y111589D02*
X335663D01*
X314473Y135589D02*
X335643D01*
X334310Y301589D02*
X335620D01*
X334318Y302589D02*
X335611D01*
X318504Y161589D02*
X335462D01*
X313473Y134589D02*
X334643D01*
X318504Y160589D02*
X334462D01*
X318073Y176589D02*
X334211D01*
X318504Y159589D02*
X333462D01*
X305699Y177589D02*
X332619D01*
X318504Y158589D02*
X332462D01*
X323032Y241589D02*
X331834D01*
X305395Y178589D02*
X331619D01*
X318504Y157589D02*
X331462D01*
X323032Y237589D02*
X330667D01*
X304921Y179589D02*
X330619D01*
X323032Y240589D02*
X330546D01*
X318504Y156589D02*
X330462D01*
X323032Y238589D02*
X330186D01*
X323032Y239589D02*
X330152D01*
X320288Y306589D02*
X329641D01*
X304921Y180589D02*
X329619D01*
X318504Y155589D02*
X329462D01*
X304921Y181589D02*
X328619D01*
X318504Y154589D02*
X328462D01*
X304921Y182589D02*
X327629D01*
X304921Y193589D02*
X327607D01*
X318504Y153589D02*
X327462D01*
X322600Y115589D02*
X327432D01*
X322545Y298589D02*
X327384D01*
X322691Y108589D02*
X327341D01*
X322643Y305589D02*
X327286D01*
X304921Y183589D02*
X327184D01*
X304921Y189589D02*
X327165D01*
X304921Y188589D02*
X327165D01*
X304921Y187589D02*
X327165D01*
X304921Y186589D02*
X327165D01*
X304921Y185589D02*
X327165D01*
X304921Y184589D02*
X327165D01*
X304921Y192589D02*
X326802D01*
X304921Y190589D02*
X326756D01*
X304921Y191589D02*
X326575D01*
X318504Y152589D02*
X326462D01*
X323586Y114589D02*
X326446D01*
X323633Y109589D02*
X326398D01*
X323533Y299589D02*
X326396D01*
X323584Y304589D02*
X326345D01*
X324116Y113589D02*
X325915D01*
X324141Y110589D02*
X325890D01*
X324064Y300589D02*
X325865D01*
X324091Y303589D02*
X325838D01*
X324361Y112589D02*
X325670D01*
X324369Y111589D02*
X325663D01*
X324310Y301589D02*
X325620D01*
X324318Y302589D02*
X325611D01*
X318504Y151589D02*
X325462D01*
X318504Y150589D02*
X324462D01*
X318504Y149589D02*
X323462D01*
X312473Y133589D02*
X323013D01*
X318504Y148589D02*
X322462D01*
X311787Y132589D02*
X322013D01*
X318504Y147589D02*
X321462D01*
X311787Y131589D02*
X321013D01*
X318444Y146589D02*
X320462D01*
X311787Y130589D02*
X320013D01*
X310288Y306589D02*
X319641D01*
X242087Y276589D02*
X319488D01*
X241929Y275589D02*
X319488D01*
X241929Y274589D02*
X319488D01*
X241929Y273589D02*
X319488D01*
X241929Y272589D02*
X319488D01*
X241929Y271589D02*
X319488D01*
X241929Y270589D02*
X319488D01*
X241929Y269589D02*
X319488D01*
X241929Y268589D02*
X319488D01*
X241929Y267589D02*
X319488D01*
X241929Y266589D02*
X319488D01*
X241929Y265589D02*
X319488D01*
X241929Y264589D02*
X319488D01*
X241929Y263589D02*
X319488D01*
X241929Y262589D02*
X319488D01*
X268467Y224589D02*
X319488D01*
X281201Y223589D02*
X319488D01*
X281909Y222589D02*
X319488D01*
X282086Y221589D02*
X319488D01*
X281855Y220589D02*
X319488D01*
X281040Y219589D02*
X319488D01*
X218278Y218589D02*
X319488D01*
X218889Y217589D02*
X319488D01*
X219193Y216589D02*
X319488D01*
X219253Y215589D02*
X319488D01*
X219081Y214589D02*
X319488D01*
X243087Y277589D02*
X319479D01*
X317780Y145589D02*
X319462D01*
X267467Y225589D02*
X319395D01*
X311787Y129589D02*
X319013D01*
X218645Y213589D02*
X318958D01*
X244087Y278589D02*
X318539D01*
X316780Y144589D02*
X318462D01*
X311787Y128589D02*
X318317D01*
X311787Y127589D02*
X318244D01*
X311787Y126589D02*
X318244D01*
X311787Y125589D02*
X318244D01*
X311787Y124589D02*
X318244D01*
X311787Y123589D02*
X318244D01*
X311787Y122589D02*
X318244D01*
X311787Y121589D02*
X318244D01*
X311787Y120589D02*
X318244D01*
X311787Y119589D02*
X318244D01*
X311787Y118589D02*
X318244D01*
X311787Y117589D02*
X318244D01*
X311787Y116589D02*
X318244D01*
X245087Y279589D02*
X318194D01*
X297933Y297589D02*
X318193D01*
X296933Y296589D02*
X318193D01*
X295933Y295589D02*
X318193D01*
X294933Y294589D02*
X318193D01*
X293933Y293589D02*
X318193D01*
X292933Y292589D02*
X318193D01*
X291933Y291589D02*
X318193D01*
X290933Y290589D02*
X318193D01*
X289933Y289589D02*
X318193D01*
X288933Y288589D02*
X318193D01*
X253087Y287589D02*
X318193D01*
X252087Y286589D02*
X318193D01*
X251087Y285589D02*
X318193D01*
X250087Y284589D02*
X318193D01*
X249087Y283589D02*
X318193D01*
X248087Y282589D02*
X318193D01*
X247087Y281589D02*
X318193D01*
X246087Y280589D02*
X318193D01*
X217829Y212589D02*
X317958D01*
X309867Y261589D02*
X317659D01*
X315780Y143589D02*
X317462D01*
X312600Y115589D02*
X317432D01*
X312545Y298589D02*
X317384D01*
X312691Y108589D02*
X317341D01*
X312643Y305589D02*
X317286D01*
X310039Y242589D02*
X317126D01*
X310039Y241589D02*
X317126D01*
X310039Y240589D02*
X317126D01*
X310039Y239589D02*
X317126D01*
X310039Y238589D02*
X317126D01*
X310039Y237589D02*
X317126D01*
X310039Y236589D02*
X317126D01*
X310039Y235589D02*
X317126D01*
X310039Y234589D02*
X317126D01*
X310039Y233589D02*
X317126D01*
X310039Y232589D02*
X317126D01*
X310039Y231589D02*
X317126D01*
X310056Y230589D02*
X317126D01*
X215982Y211589D02*
X316958D01*
X310091Y243589D02*
X316933D01*
X310236Y256589D02*
X316929D01*
X310236Y255589D02*
X316929D01*
X310236Y254589D02*
X316929D01*
X310236Y253589D02*
X316929D01*
X310236Y252589D02*
X316929D01*
X310236Y251589D02*
X316929D01*
X310236Y250589D02*
X316929D01*
X310236Y249589D02*
X316929D01*
X310236Y248589D02*
X316929D01*
X310236Y247589D02*
X316929D01*
X310236Y246589D02*
X316929D01*
X310236Y245589D02*
X316929D01*
X310236Y244589D02*
X316929D01*
X309654Y226589D02*
X316869D01*
X310682Y229589D02*
X316782D01*
X310249Y257589D02*
X316755D01*
X310755Y260589D02*
X316519D01*
X314780Y142589D02*
X316462D01*
X313586Y114589D02*
X316446D01*
X310553Y227589D02*
X316401D01*
X313633Y109589D02*
X316398D01*
X313533Y299589D02*
X316396D01*
X310822Y228589D02*
X316377D01*
X313584Y304589D02*
X316345D01*
X310875Y258589D02*
X316229D01*
X311020Y259589D02*
X316164D01*
X101378Y210589D02*
X315958D01*
X314116Y113589D02*
X315915D01*
X314141Y110589D02*
X315890D01*
X314064Y300589D02*
X315865D01*
X314091Y303589D02*
X315838D01*
X314361Y112589D02*
X315670D01*
X314369Y111589D02*
X315663D01*
X314310Y301589D02*
X315620D01*
X314318Y302589D02*
X315611D01*
X313780Y141589D02*
X315462D01*
X305589Y176589D02*
X315392D01*
X101378Y171589D02*
X314961D01*
X101378Y170589D02*
X314961D01*
X101378Y169589D02*
X314961D01*
X101378Y168589D02*
X314961D01*
X197354Y167589D02*
X314961D01*
X198554Y166589D02*
X314961D01*
X199183Y165589D02*
X314961D01*
X312671Y164589D02*
X314961D01*
X313883Y163589D02*
X314961D01*
X314516Y162589D02*
X314961D01*
X314333Y158589D02*
X314961D01*
X313546Y157589D02*
X314961D01*
X311842Y156589D02*
X314961D01*
X199282Y155589D02*
X314961D01*
X199537Y154589D02*
X314961D01*
X199554Y153589D02*
X314961D01*
X199336Y152589D02*
X314961D01*
X198841Y151589D02*
X314961D01*
X197922Y150589D02*
X314961D01*
X101378Y149589D02*
X314961D01*
X101378Y148589D02*
X314961D01*
X101378Y209589D02*
X314958D01*
X217076Y172589D02*
X314928D01*
X101378Y147589D02*
X314769D01*
X312780Y140589D02*
X314462D01*
X304995Y175589D02*
X314461D01*
X218257Y173589D02*
X314308D01*
X218878Y174589D02*
X314180D01*
X101378Y208589D02*
X313958D01*
X101378Y146589D02*
X313769D01*
X311780Y139589D02*
X313462D01*
X101378Y207589D02*
X312958D01*
X101378Y145589D02*
X312769D01*
X310780Y138589D02*
X312462D01*
X101378Y206589D02*
X311958D01*
X101378Y144589D02*
X311769D01*
X309780Y137589D02*
X311462D01*
X101378Y205589D02*
X310958D01*
X101378Y143589D02*
X310769D01*
X308780Y136589D02*
X310462D01*
X101378Y204589D02*
X309958D01*
X101378Y142589D02*
X309769D01*
X300288Y306589D02*
X309641D01*
X307780Y135589D02*
X309462D01*
X301842Y156589D02*
X309229D01*
X101378Y203589D02*
X308958D01*
X101378Y141589D02*
X308769D01*
X306780Y134589D02*
X308521D01*
X302671Y164589D02*
X308399D01*
X305780Y133589D02*
X308244D01*
X304780Y132589D02*
X308244D01*
X303780Y131589D02*
X308244D01*
X302780Y130589D02*
X308244D01*
X301802Y129589D02*
X308244D01*
X301787Y128589D02*
X308244D01*
X301787Y127589D02*
X308244D01*
X301787Y126589D02*
X308244D01*
X301787Y125589D02*
X308244D01*
X301787Y124589D02*
X308244D01*
X301787Y123589D02*
X308244D01*
X301787Y122589D02*
X308244D01*
X301787Y121589D02*
X308244D01*
X301787Y120589D02*
X308244D01*
X301787Y119589D02*
X308244D01*
X301787Y118589D02*
X308244D01*
X301787Y117589D02*
X308244D01*
X301792Y116589D02*
X308244D01*
X101378Y202589D02*
X307958D01*
X101378Y140589D02*
X307769D01*
X303546Y157589D02*
X307525D01*
X304286Y115589D02*
X307432D01*
X302545Y298589D02*
X307384D01*
X304313Y108589D02*
X307341D01*
X302643Y305589D02*
X307286D01*
X303883Y163589D02*
X307188D01*
X299861Y261589D02*
X307062D01*
X101378Y201589D02*
X306958D01*
X302371Y226589D02*
X306881D01*
X291962Y139589D02*
X306769D01*
X304333Y158589D02*
X306738D01*
X300591Y256589D02*
X306693D01*
X300591Y255589D02*
X306693D01*
X300591Y254589D02*
X306693D01*
X300591Y253589D02*
X306693D01*
X300591Y252589D02*
X306693D01*
X300591Y251589D02*
X306693D01*
X300591Y250589D02*
X306693D01*
X300591Y249589D02*
X306693D01*
X300591Y248589D02*
X306693D01*
X300591Y247589D02*
X306693D01*
X300591Y246589D02*
X306693D01*
X300814Y245589D02*
X306693D01*
X300764Y257589D02*
X306680D01*
X301814Y244589D02*
X306567D01*
X304516Y162589D02*
X306554D01*
X302622Y243589D02*
X306496D01*
X302756Y242589D02*
X306496D01*
X302756Y241589D02*
X306496D01*
X302756Y240589D02*
X306496D01*
X302756Y239589D02*
X306496D01*
X302756Y238589D02*
X306496D01*
X302756Y237589D02*
X306496D01*
X302756Y236589D02*
X306496D01*
X302756Y235589D02*
X306496D01*
X302756Y234589D02*
X306496D01*
X302756Y233589D02*
X306496D01*
X302756Y232589D02*
X306496D01*
X302756Y231589D02*
X306496D01*
X302773Y230589D02*
X306479D01*
X304394Y114589D02*
X306446D01*
X304394Y109589D02*
X306398D01*
X303533Y299589D02*
X306396D01*
X303584Y304589D02*
X306345D01*
X304752Y159589D02*
X306319D01*
X304836Y161589D02*
X306235D01*
X301001Y260589D02*
X306174D01*
X304910Y160589D02*
X306161D01*
X301291Y258589D02*
X306054D01*
X303270Y227589D02*
X305982D01*
X101378Y200589D02*
X305958D01*
X304394Y113589D02*
X305915D01*
X301356Y259589D02*
X305909D01*
X304394Y110589D02*
X305890D01*
X304064Y300589D02*
X305865D01*
X303398Y229589D02*
X305854D01*
X304091Y303589D02*
X305838D01*
X292714Y138589D02*
X305769D01*
X303539Y228589D02*
X305713D01*
X304394Y112589D02*
X305670D01*
X304394Y111589D02*
X305663D01*
X304310Y301589D02*
X305620D01*
X304318Y302589D02*
X305611D01*
X101378Y199589D02*
X304958D01*
X292913Y137589D02*
X304769D01*
X101378Y198589D02*
X303958D01*
X292706Y136589D02*
X303769D01*
X101378Y197589D02*
X302958D01*
X291939Y135589D02*
X302769D01*
X101378Y196589D02*
X301958D01*
X101378Y134589D02*
X301769D01*
X101378Y193589D02*
X301378D01*
X101378Y192589D02*
X301378D01*
X101378Y191589D02*
X301378D01*
X101378Y190589D02*
X301378D01*
X217120Y189589D02*
X301378D01*
X218278Y188589D02*
X301378D01*
X218889Y187589D02*
X301378D01*
X219193Y186589D02*
X301378D01*
X219253Y185589D02*
X301378D01*
X219081Y184589D02*
X301378D01*
X218645Y183589D02*
X301378D01*
X217829Y182589D02*
X301378D01*
X215982Y181589D02*
X301378D01*
X216078Y180589D02*
X301378D01*
X217857Y179589D02*
X301378D01*
X219188Y175589D02*
X301304D01*
X101378Y195589D02*
X301256D01*
X101378Y194589D02*
X301250D01*
X218660Y178589D02*
X300904D01*
X101378Y133589D02*
X300769D01*
X219255Y176589D02*
X300710D01*
X219089Y177589D02*
X300601D01*
X101378Y132589D02*
X299769D01*
X290288Y306589D02*
X299641D01*
X294566Y226589D02*
X299598D01*
X291842Y156589D02*
X299229D01*
X294685Y241589D02*
X299213D01*
X294685Y240589D02*
X299213D01*
X294685Y239589D02*
X299213D01*
X294685Y238589D02*
X299213D01*
X294685Y237589D02*
X299213D01*
X294685Y236589D02*
X299213D01*
X294685Y235589D02*
X299213D01*
X294685Y234589D02*
X299213D01*
X294685Y233589D02*
X299213D01*
X294685Y232589D02*
X299213D01*
X294685Y231589D02*
X299213D01*
X294685Y230589D02*
X299196D01*
X294685Y242589D02*
X298803D01*
X101378Y131589D02*
X298769D01*
X295288Y227589D02*
X298699D01*
X295249Y229589D02*
X298570D01*
X295472Y228589D02*
X298430D01*
X292671Y164589D02*
X298399D01*
X101378Y130589D02*
X298263D01*
X101378Y129589D02*
X298244D01*
X101378Y128589D02*
X298244D01*
X197726Y127589D02*
X298244D01*
X198739Y126589D02*
X298244D01*
X199282Y125589D02*
X298244D01*
X199537Y124589D02*
X298244D01*
X199554Y123589D02*
X298244D01*
X199336Y122589D02*
X298244D01*
X198841Y121589D02*
X298244D01*
X197922Y120589D02*
X298244D01*
X101378Y119589D02*
X298244D01*
X101378Y118589D02*
X298244D01*
X197354Y117589D02*
X298244D01*
X198554Y116589D02*
X298240D01*
X294551Y243589D02*
X297803D01*
X288742Y261589D02*
X297777D01*
X293546Y157589D02*
X297525D01*
X292643Y305589D02*
X297286D01*
X293883Y163589D02*
X297188D01*
X293743Y244589D02*
X297116D01*
X290158Y256589D02*
X297047D01*
X290158Y255589D02*
X297047D01*
X290158Y254589D02*
X297047D01*
X290158Y253589D02*
X297047D01*
X290158Y252589D02*
X297047D01*
X290158Y251589D02*
X297047D01*
X290158Y250589D02*
X297047D01*
X290158Y249589D02*
X297047D01*
X290158Y248589D02*
X297047D01*
X290743Y247589D02*
X297047D01*
X291743Y246589D02*
X297047D01*
X292743Y245589D02*
X297047D01*
X290483Y257589D02*
X296874D01*
X294333Y158589D02*
X296738D01*
X290434Y260589D02*
X296637D01*
X294516Y162589D02*
X296554D01*
X290902Y258589D02*
X296347D01*
X293584Y304589D02*
X296345D01*
X294752Y159589D02*
X296319D01*
X290889Y259589D02*
X296282D01*
X294836Y161589D02*
X296235D01*
X294910Y160589D02*
X296161D01*
X294064Y300589D02*
X295849D01*
X294091Y303589D02*
X295838D01*
X282643Y115589D02*
X295746D01*
X282545Y108589D02*
X295719D01*
X283584Y114589D02*
X295638D01*
X284091Y113589D02*
X295638D01*
X284318Y112589D02*
X295638D01*
X284310Y111589D02*
X295638D01*
X284064Y110589D02*
X295638D01*
X283533Y109589D02*
X295638D01*
X294310Y301589D02*
X295620D01*
X294318Y302589D02*
X295611D01*
X293533Y299589D02*
X294922D01*
X292545Y298589D02*
X293922D01*
X101378Y297589D02*
X292922D01*
X101378Y296589D02*
X291922D01*
X286648Y226589D02*
X291261D01*
X287402Y241589D02*
X291142D01*
X287402Y240589D02*
X291142D01*
X287402Y239589D02*
X291142D01*
X287402Y238589D02*
X291142D01*
X287402Y237589D02*
X291142D01*
X287402Y236589D02*
X291142D01*
X287402Y235589D02*
X291142D01*
X287402Y234589D02*
X291142D01*
X287402Y233589D02*
X291142D01*
X287402Y232589D02*
X291142D01*
X287402Y231589D02*
X291142D01*
X287584Y230589D02*
X291142D01*
X101378Y295589D02*
X290922D01*
X287402Y242589D02*
X290732D01*
X288104Y229589D02*
X290578D01*
X287805Y227589D02*
X290539D01*
X288165Y228589D02*
X290355D01*
X101378Y294589D02*
X289922D01*
X287268Y243589D02*
X289732D01*
X283080Y306589D02*
X289641D01*
X284250Y156589D02*
X289229D01*
X101378Y293589D02*
X288922D01*
X101378Y135589D02*
X288769D01*
X101378Y139589D02*
X288746D01*
X286460Y244589D02*
X288732D01*
X284642Y164589D02*
X288399D01*
X279097Y261589D02*
X288029D01*
X101378Y136589D02*
X288003D01*
X101378Y138589D02*
X287995D01*
X101378Y292589D02*
X287922D01*
X101378Y137589D02*
X287795D01*
X285460Y245589D02*
X287732D01*
X284902Y157589D02*
X287525D01*
X284234Y298589D02*
X287384D01*
X284262Y305589D02*
X287286D01*
X284913Y163589D02*
X287188D01*
X101378Y291589D02*
X286922D01*
X284460Y246589D02*
X286832D01*
X284913Y158589D02*
X286738D01*
X280512Y256589D02*
X286614D01*
X280512Y255589D02*
X286614D01*
X280512Y254589D02*
X286614D01*
X280512Y253589D02*
X286614D01*
X280512Y252589D02*
X286614D01*
X280512Y251589D02*
X286614D01*
X280514Y250589D02*
X286614D01*
X281460Y249589D02*
X286614D01*
X282460Y248589D02*
X286614D01*
X283460Y247589D02*
X286614D01*
X284913Y162589D02*
X286554D01*
X284343Y299589D02*
X286396D01*
X284343Y304589D02*
X286345D01*
X280788Y260589D02*
X286338D01*
X284913Y159589D02*
X286319D01*
X280838Y257589D02*
X286288D01*
X284913Y161589D02*
X286235D01*
X284913Y160589D02*
X286161D01*
X281243Y259589D02*
X285883D01*
X281256Y258589D02*
X285870D01*
X284343Y300589D02*
X285865D01*
X284343Y303589D02*
X285838D01*
X284343Y301589D02*
X285620D01*
X284343Y302589D02*
X285611D01*
X276256Y226589D02*
X284612D01*
X277756Y241589D02*
X283858D01*
X277756Y240589D02*
X283858D01*
X277756Y239589D02*
X283858D01*
X277756Y238589D02*
X283858D01*
X277756Y237589D02*
X283858D01*
X277756Y236589D02*
X283858D01*
X277756Y235589D02*
X283858D01*
X277756Y234589D02*
X283858D01*
X277756Y233589D02*
X283858D01*
X277756Y232589D02*
X283858D01*
X277756Y231589D02*
X283858D01*
X278089Y230589D02*
X283676D01*
X278025Y227589D02*
X283455D01*
X277756Y242589D02*
X283449D01*
X278502Y229589D02*
X283155D01*
X278485Y228589D02*
X283095D01*
X277622Y243589D02*
X282449D01*
X276814Y244589D02*
X281449D01*
X275814Y245589D02*
X280449D01*
X274814Y246589D02*
X279449D01*
X273814Y247589D02*
X278449D01*
X269546Y261589D02*
X278384D01*
X217120Y219589D02*
X278015D01*
X269467Y223589D02*
X277854D01*
X272814Y248589D02*
X277450D01*
X272545Y108589D02*
X277384D01*
X272643Y115589D02*
X277286D01*
X271814Y249589D02*
X276981D01*
X270276Y256589D02*
X276968D01*
X270276Y255589D02*
X276968D01*
X270276Y254589D02*
X276968D01*
X270276Y253589D02*
X276968D01*
X270276Y252589D02*
X276968D01*
X270276Y251589D02*
X276968D01*
X270814Y250589D02*
X276968D01*
X264288Y306589D02*
X276849D01*
X198739Y156589D02*
X276821D01*
X270686Y260589D02*
X276692D01*
X270449Y257589D02*
X276643D01*
X199499Y164589D02*
X276429D01*
X273533Y109589D02*
X276396D01*
X273584Y114589D02*
X276345D01*
X271041Y259589D02*
X276237D01*
X270976Y258589D02*
X276224D01*
X197726Y157589D02*
X276169D01*
X199571Y163589D02*
X276157D01*
X199410Y162589D02*
X276157D01*
X198988Y161589D02*
X276157D01*
X198195Y160589D02*
X276157D01*
X196465Y159589D02*
X276157D01*
X101378Y158589D02*
X276157D01*
X274064Y110589D02*
X275865D01*
X274091Y113589D02*
X275838D01*
X266467Y226589D02*
X275712D01*
X266545Y298589D02*
X275695D01*
X266643Y305589D02*
X275667D01*
X274310Y111589D02*
X275620D01*
X274318Y112589D02*
X275611D01*
X267584Y304589D02*
X275587D01*
X268091Y303589D02*
X275587D01*
X268318Y302589D02*
X275587D01*
X268310Y301589D02*
X275587D01*
X268064Y300589D02*
X275587D01*
X267533Y299589D02*
X275587D01*
X251467Y241589D02*
X274213D01*
X252467Y240589D02*
X274213D01*
X253467Y239589D02*
X274213D01*
X254467Y238589D02*
X274213D01*
X255467Y237589D02*
X274213D01*
X256467Y236589D02*
X274213D01*
X257467Y235589D02*
X274213D01*
X258467Y234589D02*
X274213D01*
X259467Y233589D02*
X274213D01*
X260467Y232589D02*
X274213D01*
X261467Y231589D02*
X274213D01*
X265467Y227589D02*
X273944D01*
X262467Y230589D02*
X273879D01*
X250467Y242589D02*
X273803D01*
X264467Y228589D02*
X273484D01*
X263467Y229589D02*
X273466D01*
X249467Y243589D02*
X272803D01*
X248467Y244589D02*
X271803D01*
X247467Y245589D02*
X270803D01*
X246650Y246589D02*
X269803D01*
X246389Y247589D02*
X268803D01*
X245509Y248589D02*
X267803D01*
X241929Y261589D02*
X267462D01*
X101378Y220589D02*
X267456D01*
X262545Y108589D02*
X267384D01*
X262643Y115589D02*
X267286D01*
X241929Y249589D02*
X266925D01*
X241929Y256589D02*
X266732D01*
X241929Y255589D02*
X266732D01*
X241929Y254589D02*
X266732D01*
X241929Y253589D02*
X266732D01*
X241929Y252589D02*
X266732D01*
X241929Y251589D02*
X266732D01*
X241929Y250589D02*
X266732D01*
X241929Y257589D02*
X266559D01*
X217362Y221589D02*
X266456D01*
X263533Y109589D02*
X266396D01*
X263584Y114589D02*
X266345D01*
X241929Y260589D02*
X266322D01*
X241929Y258589D02*
X266032D01*
X241929Y259589D02*
X265967D01*
X264064Y110589D02*
X265865D01*
X264091Y113589D02*
X265838D01*
X264310Y111589D02*
X265620D01*
X264318Y112589D02*
X265611D01*
X218399Y222589D02*
X265456D01*
X218954Y223589D02*
X264456D01*
X254288Y306589D02*
X263641D01*
X219217Y224589D02*
X263456D01*
X219242Y225589D02*
X262456D01*
X219033Y226589D02*
X261456D01*
X256545Y298589D02*
X261384D01*
X256643Y305589D02*
X261286D01*
X218548Y227589D02*
X260456D01*
X257533Y299589D02*
X260396D01*
X257584Y304589D02*
X260345D01*
X258064Y300589D02*
X259865D01*
X258091Y303589D02*
X259838D01*
X258310Y301589D02*
X259620D01*
X258318Y302589D02*
X259611D01*
X217649Y228589D02*
X259456D01*
X244817Y229589D02*
X258456D01*
X245503Y230589D02*
X257456D01*
X252545Y108589D02*
X257384D01*
X252643Y115589D02*
X257286D01*
X245668Y231589D02*
X256456D01*
X253533Y109589D02*
X256396D01*
X253584Y114589D02*
X256345D01*
X254064Y110589D02*
X255865D01*
X254091Y113589D02*
X255838D01*
X254310Y111589D02*
X255620D01*
X254318Y112589D02*
X255611D01*
X245424Y232589D02*
X255456D01*
X244882Y233589D02*
X254456D01*
X244288Y306589D02*
X253641D01*
X244882Y234589D02*
X253456D01*
X244882Y235589D02*
X252456D01*
X244882Y236589D02*
X251456D01*
X246545Y298589D02*
X251384D01*
X246643Y305589D02*
X251286D01*
X101378Y290589D02*
X251076D01*
X244882Y237589D02*
X250456D01*
X247533Y299589D02*
X250396D01*
X247584Y304589D02*
X250345D01*
X101378Y289589D02*
X250076D01*
X248064Y300589D02*
X249865D01*
X248091Y303589D02*
X249838D01*
X248310Y301589D02*
X249620D01*
X248318Y302589D02*
X249611D01*
X244882Y238589D02*
X249456D01*
X234769Y288589D02*
X249076D01*
X244568Y239589D02*
X248456D01*
X237007Y287589D02*
X248076D01*
X243609Y240589D02*
X247456D01*
X242545Y108589D02*
X247384D01*
X242643Y115589D02*
X247286D01*
X237875Y286589D02*
X247076D01*
X242609Y241589D02*
X246456D01*
X243533Y109589D02*
X246396D01*
X243584Y114589D02*
X246345D01*
X238342Y285589D02*
X246076D01*
X244064Y110589D02*
X245865D01*
X244091Y113589D02*
X245838D01*
X244310Y111589D02*
X245620D01*
X244318Y112589D02*
X245611D01*
X241929Y242589D02*
X245456D01*
X238538Y284589D02*
X245076D01*
X241929Y243589D02*
X244456D01*
X238501Y283589D02*
X244076D01*
X234288Y306589D02*
X243641D01*
X238223Y282589D02*
X243076D01*
X241929Y248589D02*
X242680D01*
X241939Y244589D02*
X242345D01*
X237648Y281589D02*
X242076D01*
X101378Y229589D02*
X241403D01*
X236545Y298589D02*
X241384D01*
X238441Y237589D02*
X241339D01*
X238551Y236589D02*
X241339D01*
X238430Y235589D02*
X241339D01*
X238055Y234589D02*
X241339D01*
X237338Y233589D02*
X241339D01*
X236643Y305589D02*
X241286D01*
X236571Y280589D02*
X241076D01*
X235896Y232589D02*
X240796D01*
X101378Y230589D02*
X240717D01*
X238080Y238589D02*
X240598D01*
X101378Y231589D02*
X240553D01*
X237533Y299589D02*
X240396D01*
X237584Y304589D02*
X240345D01*
X234968Y279589D02*
X240076D01*
X238064Y300589D02*
X239865D01*
X238091Y303589D02*
X239838D01*
X238310Y301589D02*
X239620D01*
X238318Y302589D02*
X239611D01*
X237385Y239589D02*
X239598D01*
X237034Y278589D02*
X239076D01*
X236008Y240589D02*
X238660D01*
X237890Y277589D02*
X238437D01*
X237630Y272589D02*
X238386D01*
X236535Y271589D02*
X238386D01*
X101378Y270589D02*
X238386D01*
X101378Y269589D02*
X238386D01*
X101378Y268589D02*
X238386D01*
X101378Y267589D02*
X238386D01*
X101378Y266589D02*
X238386D01*
X101378Y265589D02*
X238386D01*
X101378Y264589D02*
X238386D01*
X101378Y263589D02*
X238386D01*
X101378Y262589D02*
X238386D01*
X101378Y261589D02*
X238386D01*
X101378Y260589D02*
X238386D01*
X101378Y259589D02*
X238386D01*
X101378Y258589D02*
X238386D01*
X101378Y257589D02*
X238386D01*
X101378Y256589D02*
X238386D01*
X101378Y255589D02*
X238386D01*
X101378Y254589D02*
X238386D01*
X101378Y253589D02*
X238386D01*
X101378Y252589D02*
X238386D01*
X101378Y251589D02*
X238386D01*
X101378Y250589D02*
X238386D01*
X234921Y249589D02*
X238386D01*
X237034Y248589D02*
X238386D01*
X237890Y247589D02*
X238386D01*
X237630Y242589D02*
X238386D01*
X236535Y241589D02*
X238386D01*
X232545Y108589D02*
X237384D01*
X232643Y115589D02*
X237286D01*
X233533Y109589D02*
X236396D01*
X233584Y114589D02*
X236345D01*
X234064Y110589D02*
X235865D01*
X234091Y113589D02*
X235838D01*
X234310Y111589D02*
X235620D01*
X234318Y112589D02*
X235611D01*
X224288Y306589D02*
X233641D01*
X224769Y288589D02*
X233578D01*
X224921Y249589D02*
X233426D01*
X224968Y279589D02*
X233378D01*
X225896Y232589D02*
X232451D01*
X226008Y240589D02*
X232339D01*
X226535Y271589D02*
X231812D01*
X226535Y241589D02*
X231812D01*
X226571Y280589D02*
X231775D01*
X226545Y298589D02*
X231384D01*
X227007Y287589D02*
X231340D01*
X227034Y278589D02*
X231312D01*
X227034Y248589D02*
X231312D01*
X226643Y305589D02*
X231286D01*
X227338Y233589D02*
X231008D01*
X227385Y239589D02*
X230961D01*
X227630Y272589D02*
X230716D01*
X227630Y242589D02*
X230716D01*
X227648Y281589D02*
X230698D01*
X227875Y286589D02*
X230471D01*
X227890Y277589D02*
X230457D01*
X227890Y247589D02*
X230457D01*
X227533Y299589D02*
X230396D01*
X227584Y304589D02*
X230345D01*
X228055Y234589D02*
X230292D01*
X228080Y238589D02*
X230266D01*
X228213Y273589D02*
X230133D01*
X228213Y243589D02*
X230133D01*
X228223Y282589D02*
X230123D01*
X228342Y285589D02*
X230004D01*
X228349Y276589D02*
X229997D01*
X228349Y246589D02*
X229997D01*
X228430Y235589D02*
X229917D01*
X228441Y237589D02*
X229905D01*
X228064Y300589D02*
X229865D01*
X228497Y274589D02*
X229849D01*
X228497Y244589D02*
X229849D01*
X228501Y283589D02*
X229846D01*
X228091Y303589D02*
X229838D01*
X228538Y284589D02*
X229808D01*
X228540Y275589D02*
X229807D01*
X228540Y245589D02*
X229807D01*
X228551Y236589D02*
X229795D01*
X228310Y301589D02*
X229620D01*
X228318Y302589D02*
X229611D01*
X222545Y108589D02*
X227384D01*
X222643Y115589D02*
X227286D01*
X223533Y109589D02*
X226396D01*
X223584Y114589D02*
X226345D01*
X224064Y110589D02*
X225865D01*
X224091Y113589D02*
X225838D01*
X224310Y111589D02*
X225620D01*
X224318Y112589D02*
X225611D01*
X214288Y306589D02*
X223641D01*
X214769Y288589D02*
X223578D01*
X214921Y249589D02*
X223426D01*
X214968Y279589D02*
X223378D01*
X215896Y232589D02*
X222451D01*
X216008Y240589D02*
X222339D01*
X216535Y271589D02*
X221812D01*
X216535Y241589D02*
X221812D01*
X216571Y280589D02*
X221775D01*
X216545Y298589D02*
X221384D01*
X217007Y287589D02*
X221340D01*
X217034Y278589D02*
X221312D01*
X217034Y248589D02*
X221312D01*
X216643Y305589D02*
X221286D01*
X217338Y233589D02*
X221008D01*
X217385Y239589D02*
X220961D01*
X217630Y272589D02*
X220716D01*
X217630Y242589D02*
X220716D01*
X217648Y281589D02*
X220698D01*
X217875Y286589D02*
X220471D01*
X217890Y277589D02*
X220457D01*
X217890Y247589D02*
X220457D01*
X217533Y299589D02*
X220396D01*
X217584Y304589D02*
X220345D01*
X218055Y234589D02*
X220292D01*
X218080Y238589D02*
X220266D01*
X218213Y273589D02*
X220133D01*
X218213Y243589D02*
X220133D01*
X218223Y282589D02*
X220123D01*
X218342Y285589D02*
X220004D01*
X218349Y276589D02*
X219997D01*
X218349Y246589D02*
X219997D01*
X218430Y235589D02*
X219917D01*
X218441Y237589D02*
X219905D01*
X218064Y300589D02*
X219865D01*
X218497Y274589D02*
X219849D01*
X218497Y244589D02*
X219849D01*
X218501Y283589D02*
X219846D01*
X218091Y303589D02*
X219838D01*
X218538Y284589D02*
X219808D01*
X218540Y275589D02*
X219807D01*
X218540Y245589D02*
X219807D01*
X218551Y236589D02*
X219795D01*
X218310Y301589D02*
X219620D01*
X218318Y302589D02*
X219611D01*
X214234Y108589D02*
X217384D01*
X214262Y115589D02*
X217286D01*
X214343Y109589D02*
X216396D01*
X214343Y114589D02*
X216345D01*
X214343Y110589D02*
X215865D01*
X214343Y113589D02*
X215838D01*
X214343Y111589D02*
X215620D01*
X214343Y112589D02*
X215611D01*
X205982Y211589D02*
X213782D01*
X205982Y181589D02*
X213782D01*
X206078Y180589D02*
X213685D01*
X204288Y306589D02*
X213641D01*
X204769Y288589D02*
X213578D01*
X204921Y249589D02*
X213426D01*
X204968Y279589D02*
X213378D01*
X207076Y172589D02*
X212688D01*
X207120Y219589D02*
X212644D01*
X207120Y189589D02*
X212644D01*
X205896Y232589D02*
X212451D01*
X207362Y221589D02*
X212402D01*
X206008Y240589D02*
X212339D01*
X207649Y228589D02*
X212115D01*
X207829Y212589D02*
X211935D01*
X207829Y182589D02*
X211935D01*
X207857Y179589D02*
X211906D01*
X206535Y271589D02*
X211812D01*
X206535Y241589D02*
X211812D01*
X206571Y280589D02*
X211775D01*
X208257Y173589D02*
X211507D01*
X208278Y218589D02*
X211486D01*
X208278Y188589D02*
X211486D01*
X206545Y298589D02*
X211384D01*
X208399Y222589D02*
X211365D01*
X207007Y287589D02*
X211340D01*
X207034Y278589D02*
X211312D01*
X207034Y248589D02*
X211312D01*
X206643Y305589D02*
X211286D01*
X208548Y227589D02*
X211215D01*
X208645Y213589D02*
X211119D01*
X208645Y183589D02*
X211119D01*
X208660Y178589D02*
X211103D01*
X207338Y233589D02*
X211008D01*
X207385Y239589D02*
X210961D01*
X208878Y174589D02*
X210886D01*
X208889Y217589D02*
X210874D01*
X208889Y187589D02*
X210874D01*
X208954Y223589D02*
X210810D01*
X209033Y226589D02*
X210731D01*
X207630Y272589D02*
X210716D01*
X207630Y242589D02*
X210716D01*
X207648Y281589D02*
X210698D01*
X209081Y214589D02*
X210682D01*
X209081Y184589D02*
X210682D01*
X209089Y177589D02*
X210675D01*
X209188Y175589D02*
X210576D01*
X209193Y216589D02*
X210571D01*
X209193Y186589D02*
X210571D01*
X209217Y224589D02*
X210546D01*
X209242Y225589D02*
X210522D01*
X209253Y215589D02*
X210510D01*
X209253Y185589D02*
X210510D01*
X209255Y176589D02*
X210509D01*
X207875Y286589D02*
X210471D01*
X207890Y277589D02*
X210457D01*
X207890Y247589D02*
X210457D01*
X207533Y299589D02*
X210396D01*
X207584Y304589D02*
X210345D01*
X208055Y234589D02*
X210292D01*
X208080Y238589D02*
X210266D01*
X208213Y273589D02*
X210133D01*
X208213Y243589D02*
X210133D01*
X208223Y282589D02*
X210123D01*
X208342Y285589D02*
X210004D01*
X208349Y276589D02*
X209997D01*
X208349Y246589D02*
X209997D01*
X208430Y235589D02*
X209917D01*
X208441Y237589D02*
X209905D01*
X208064Y300589D02*
X209865D01*
X208497Y274589D02*
X209849D01*
X208497Y244589D02*
X209849D01*
X208501Y283589D02*
X209846D01*
X208091Y303589D02*
X209838D01*
X208538Y284589D02*
X209808D01*
X208540Y275589D02*
X209807D01*
X208540Y245589D02*
X209807D01*
X208551Y236589D02*
X209795D01*
X208310Y301589D02*
X209620D01*
X208318Y302589D02*
X209611D01*
X101378Y108589D02*
X205695D01*
X199183Y115589D02*
X205667D01*
X199499Y114589D02*
X205587D01*
X199571Y113589D02*
X205587D01*
X199410Y112589D02*
X205587D01*
X198988Y111589D02*
X205587D01*
X198195Y110589D02*
X205587D01*
X196465Y109589D02*
X205587D01*
X195982Y211589D02*
X203782D01*
X195982Y181589D02*
X203782D01*
X196078Y180589D02*
X203685D01*
X194288Y306589D02*
X203641D01*
X194769Y288589D02*
X203578D01*
X194921Y249589D02*
X203426D01*
X194968Y279589D02*
X203378D01*
X197076Y172589D02*
X202688D01*
X197120Y219589D02*
X202644D01*
X197120Y189589D02*
X202644D01*
X195896Y232589D02*
X202451D01*
X197362Y221589D02*
X202402D01*
X196008Y240589D02*
X202339D01*
X197649Y228589D02*
X202115D01*
X197829Y212589D02*
X201935D01*
X197829Y182589D02*
X201935D01*
X197857Y179589D02*
X201906D01*
X196535Y271589D02*
X201812D01*
X196535Y241589D02*
X201812D01*
X196571Y280589D02*
X201775D01*
X198257Y173589D02*
X201507D01*
X198278Y218589D02*
X201486D01*
X198278Y188589D02*
X201486D01*
X196545Y298589D02*
X201384D01*
X198399Y222589D02*
X201365D01*
X197007Y287589D02*
X201340D01*
X197034Y278589D02*
X201312D01*
X197034Y248589D02*
X201312D01*
X196643Y305589D02*
X201286D01*
X198548Y227589D02*
X201215D01*
X198645Y213589D02*
X201119D01*
X198645Y183589D02*
X201119D01*
X198660Y178589D02*
X201103D01*
X197338Y233589D02*
X201008D01*
X197385Y239589D02*
X200961D01*
X198878Y174589D02*
X200886D01*
X198889Y217589D02*
X200874D01*
X198889Y187589D02*
X200874D01*
X198954Y223589D02*
X200810D01*
X199033Y226589D02*
X200731D01*
X197630Y272589D02*
X200716D01*
X197630Y242589D02*
X200716D01*
X197648Y281589D02*
X200698D01*
X199081Y214589D02*
X200682D01*
X199081Y184589D02*
X200682D01*
X199089Y177589D02*
X200675D01*
X199188Y175589D02*
X200576D01*
X199193Y216589D02*
X200571D01*
X199193Y186589D02*
X200571D01*
X199217Y224589D02*
X200546D01*
X199242Y225589D02*
X200522D01*
X199253Y215589D02*
X200510D01*
X199253Y185589D02*
X200510D01*
X199255Y176589D02*
X200509D01*
X197875Y286589D02*
X200471D01*
X197890Y277589D02*
X200457D01*
X197890Y247589D02*
X200457D01*
X197533Y299589D02*
X200396D01*
X197584Y304589D02*
X200345D01*
X198055Y234589D02*
X200292D01*
X198080Y238589D02*
X200266D01*
X198213Y273589D02*
X200133D01*
X198213Y243589D02*
X200133D01*
X198223Y282589D02*
X200123D01*
X198342Y285589D02*
X200004D01*
X198349Y276589D02*
X199997D01*
X198349Y246589D02*
X199997D01*
X198430Y235589D02*
X199917D01*
X198441Y237589D02*
X199905D01*
X198064Y300589D02*
X199865D01*
X198497Y274589D02*
X199849D01*
X198497Y244589D02*
X199849D01*
X198501Y283589D02*
X199846D01*
X198091Y303589D02*
X199838D01*
X198538Y284589D02*
X199808D01*
X198540Y275589D02*
X199807D01*
X198540Y245589D02*
X199807D01*
X198551Y236589D02*
X199795D01*
X198310Y301589D02*
X199620D01*
X198318Y302589D02*
X199611D01*
X186465Y159589D02*
X193929D01*
X186465Y109589D02*
X193929D01*
X185982Y211589D02*
X193782D01*
X185982Y181589D02*
X193782D01*
X186078Y180589D02*
X193685D01*
X184288Y306589D02*
X193641D01*
X184769Y288589D02*
X193578D01*
X184921Y249589D02*
X193426D01*
X184968Y279589D02*
X193378D01*
X187354Y167589D02*
X193040D01*
X187354Y117589D02*
X193040D01*
X187076Y172589D02*
X192688D01*
X187726Y157589D02*
X192668D01*
X187726Y127589D02*
X192668D01*
X187120Y219589D02*
X192644D01*
X187120Y189589D02*
X192644D01*
X187922Y150589D02*
X192472D01*
X187922Y120589D02*
X192472D01*
X185896Y232589D02*
X192451D01*
X187362Y221589D02*
X192402D01*
X186008Y240589D02*
X192339D01*
X188195Y160589D02*
X192199D01*
X188195Y110589D02*
X192199D01*
X187649Y228589D02*
X192115D01*
X187829Y212589D02*
X191935D01*
X187829Y182589D02*
X191935D01*
X187857Y179589D02*
X191906D01*
X188554Y166589D02*
X191839D01*
X188554Y116589D02*
X191839D01*
X186535Y271589D02*
X191812D01*
X186535Y241589D02*
X191812D01*
X186571Y280589D02*
X191775D01*
X188739Y156589D02*
X191655D01*
X188739Y126589D02*
X191655D01*
X188841Y151589D02*
X191553D01*
X188841Y121589D02*
X191553D01*
X188257Y173589D02*
X191507D01*
X188278Y218589D02*
X191486D01*
X188278Y188589D02*
X191486D01*
X188988Y161589D02*
X191406D01*
X188988Y111589D02*
X191406D01*
X186545Y298589D02*
X191384D01*
X188399Y222589D02*
X191365D01*
X187007Y287589D02*
X191340D01*
X187034Y278589D02*
X191312D01*
X187034Y248589D02*
X191312D01*
X186643Y305589D02*
X191286D01*
X188548Y227589D02*
X191215D01*
X189183Y165589D02*
X191210D01*
X189183Y115589D02*
X191210D01*
X188645Y213589D02*
X191119D01*
X188645Y183589D02*
X191119D01*
X189282Y155589D02*
X191111D01*
X189282Y125589D02*
X191111D01*
X188660Y178589D02*
X191103D01*
X189336Y152589D02*
X191058D01*
X189336Y122589D02*
X191058D01*
X187338Y233589D02*
X191008D01*
X189410Y162589D02*
X190984D01*
X189410Y112589D02*
X190984D01*
X187385Y239589D02*
X190961D01*
X189499Y164589D02*
X190894D01*
X189499Y114589D02*
X190894D01*
X188878Y174589D02*
X190886D01*
X188889Y217589D02*
X190874D01*
X188889Y187589D02*
X190874D01*
X189537Y154589D02*
X190857D01*
X189537Y124589D02*
X190857D01*
X189554Y153589D02*
X190840D01*
X189554Y123589D02*
X190840D01*
X189571Y163589D02*
X190823D01*
X189571Y113589D02*
X190823D01*
X188954Y223589D02*
X190810D01*
X189033Y226589D02*
X190731D01*
X187630Y272589D02*
X190716D01*
X187630Y242589D02*
X190716D01*
X187648Y281589D02*
X190698D01*
X189081Y214589D02*
X190682D01*
X189081Y184589D02*
X190682D01*
X189089Y177589D02*
X190675D01*
X189188Y175589D02*
X190576D01*
X189193Y216589D02*
X190571D01*
X189193Y186589D02*
X190571D01*
X189217Y224589D02*
X190546D01*
X189242Y225589D02*
X190522D01*
X189253Y215589D02*
X190510D01*
X189253Y185589D02*
X190510D01*
X189255Y176589D02*
X190509D01*
X187875Y286589D02*
X190471D01*
X187890Y277589D02*
X190457D01*
X187890Y247589D02*
X190457D01*
X187533Y299589D02*
X190396D01*
X187584Y304589D02*
X190345D01*
X188055Y234589D02*
X190292D01*
X188080Y238589D02*
X190266D01*
X188213Y273589D02*
X190133D01*
X188213Y243589D02*
X190133D01*
X188223Y282589D02*
X190123D01*
X188342Y285589D02*
X190004D01*
X188349Y276589D02*
X189997D01*
X188349Y246589D02*
X189997D01*
X188430Y235589D02*
X189917D01*
X188441Y237589D02*
X189905D01*
X188064Y300589D02*
X189865D01*
X188497Y274589D02*
X189849D01*
X188497Y244589D02*
X189849D01*
X188501Y283589D02*
X189846D01*
X188091Y303589D02*
X189838D01*
X188538Y284589D02*
X189808D01*
X188540Y275589D02*
X189807D01*
X188540Y245589D02*
X189807D01*
X188551Y236589D02*
X189795D01*
X188310Y301589D02*
X189620D01*
X188318Y302589D02*
X189611D01*
X176465Y159589D02*
X183929D01*
X176465Y109589D02*
X183929D01*
X175982Y211589D02*
X183782D01*
X175982Y181589D02*
X183782D01*
X176078Y180589D02*
X183685D01*
X177080Y306589D02*
X183641D01*
X174769Y288589D02*
X183578D01*
X174921Y249589D02*
X183426D01*
X174968Y279589D02*
X183378D01*
X177354Y167589D02*
X183040D01*
X177354Y117589D02*
X183040D01*
X177076Y172589D02*
X182688D01*
X177726Y157589D02*
X182668D01*
X177726Y127589D02*
X182668D01*
X177120Y219589D02*
X182644D01*
X177120Y189589D02*
X182644D01*
X177922Y150589D02*
X182472D01*
X177922Y120589D02*
X182472D01*
X175896Y232589D02*
X182451D01*
X177362Y221589D02*
X182402D01*
X176008Y240589D02*
X182339D01*
X178195Y160589D02*
X182199D01*
X178195Y110589D02*
X182199D01*
X177649Y228589D02*
X182115D01*
X177829Y212589D02*
X181935D01*
X177829Y182589D02*
X181935D01*
X177857Y179589D02*
X181906D01*
X178554Y166589D02*
X181839D01*
X178554Y116589D02*
X181839D01*
X176535Y271589D02*
X181812D01*
X176535Y241589D02*
X181812D01*
X176571Y280589D02*
X181775D01*
X178739Y156589D02*
X181655D01*
X178739Y126589D02*
X181655D01*
X178841Y151589D02*
X181553D01*
X178841Y121589D02*
X181553D01*
X178257Y173589D02*
X181507D01*
X178278Y218589D02*
X181486D01*
X178278Y188589D02*
X181486D01*
X178988Y161589D02*
X181406D01*
X178988Y111589D02*
X181406D01*
X178234Y298589D02*
X181384D01*
X178399Y222589D02*
X181365D01*
X177007Y287589D02*
X181340D01*
X177034Y278589D02*
X181312D01*
X177034Y248589D02*
X181312D01*
X178262Y305589D02*
X181286D01*
X178548Y227589D02*
X181215D01*
X179183Y165589D02*
X181210D01*
X179183Y115589D02*
X181210D01*
X178645Y213589D02*
X181119D01*
X178645Y183589D02*
X181119D01*
X179282Y155589D02*
X181111D01*
X179282Y125589D02*
X181111D01*
X178660Y178589D02*
X181103D01*
X179336Y152589D02*
X181058D01*
X179336Y122589D02*
X181058D01*
X177338Y233589D02*
X181008D01*
X179410Y162589D02*
X180984D01*
X179410Y112589D02*
X180984D01*
X177385Y239589D02*
X180961D01*
X179499Y164589D02*
X180894D01*
X179499Y114589D02*
X180894D01*
X178878Y174589D02*
X180886D01*
X178889Y217589D02*
X180874D01*
X178889Y187589D02*
X180874D01*
X179537Y154589D02*
X180857D01*
X179537Y124589D02*
X180857D01*
X179554Y153589D02*
X180840D01*
X179554Y123589D02*
X180840D01*
X179571Y163589D02*
X180823D01*
X179571Y113589D02*
X180823D01*
X178954Y223589D02*
X180810D01*
X179033Y226589D02*
X180731D01*
X177630Y272589D02*
X180716D01*
X177630Y242589D02*
X180716D01*
X177648Y281589D02*
X180698D01*
X179081Y214589D02*
X180682D01*
X179081Y184589D02*
X180682D01*
X179089Y177589D02*
X180675D01*
X179188Y175589D02*
X180576D01*
X179193Y216589D02*
X180571D01*
X179193Y186589D02*
X180571D01*
X179217Y224589D02*
X180546D01*
X179242Y225589D02*
X180522D01*
X179253Y215589D02*
X180510D01*
X179253Y185589D02*
X180510D01*
X179255Y176589D02*
X180509D01*
X177875Y286589D02*
X180471D01*
X177890Y277589D02*
X180457D01*
X177890Y247589D02*
X180457D01*
X178343Y299589D02*
X180396D01*
X178343Y304589D02*
X180345D01*
X178055Y234589D02*
X180292D01*
X178080Y238589D02*
X180266D01*
X178213Y273589D02*
X180133D01*
X178213Y243589D02*
X180133D01*
X178223Y282589D02*
X180123D01*
X178342Y285589D02*
X180004D01*
X178349Y276589D02*
X179997D01*
X178349Y246589D02*
X179997D01*
X178430Y235589D02*
X179917D01*
X178441Y237589D02*
X179905D01*
X178343Y300589D02*
X179865D01*
X178497Y274589D02*
X179849D01*
X178497Y244589D02*
X179849D01*
X178501Y283589D02*
X179846D01*
X178343Y303589D02*
X179838D01*
X178538Y284589D02*
X179808D01*
X178540Y275589D02*
X179807D01*
X178540Y245589D02*
X179807D01*
X178551Y236589D02*
X179795D01*
X178343Y301589D02*
X179620D01*
X178343Y302589D02*
X179611D01*
X166465Y159589D02*
X173929D01*
X166465Y109589D02*
X173929D01*
X165982Y211589D02*
X173782D01*
X165982Y181589D02*
X173782D01*
X166078Y180589D02*
X173685D01*
X167506Y288589D02*
X173578D01*
X167589Y249589D02*
X173426D01*
X165244Y279589D02*
X173378D01*
X167354Y167589D02*
X173040D01*
X167354Y117589D02*
X173040D01*
X167076Y172589D02*
X172688D01*
X167726Y157589D02*
X172668D01*
X167726Y127589D02*
X172668D01*
X167120Y219589D02*
X172644D01*
X167120Y189589D02*
X172644D01*
X167922Y150589D02*
X172472D01*
X167922Y120589D02*
X172472D01*
X168094Y232589D02*
X172451D01*
X167362Y221589D02*
X172402D01*
X168147Y240589D02*
X172339D01*
X168195Y160589D02*
X172199D01*
X168195Y110589D02*
X172199D01*
X167649Y228589D02*
X172115D01*
X167829Y212589D02*
X171935D01*
X167829Y182589D02*
X171935D01*
X167857Y179589D02*
X171906D01*
X168554Y166589D02*
X171839D01*
X168554Y116589D02*
X171839D01*
X166535Y271589D02*
X171812D01*
X168368Y241589D02*
X171812D01*
X168381Y280589D02*
X171775D01*
X168739Y156589D02*
X171655D01*
X168739Y126589D02*
X171655D01*
X168841Y151589D02*
X171553D01*
X168841Y121589D02*
X171553D01*
X168257Y173589D02*
X171507D01*
X168278Y218589D02*
X171486D01*
X168278Y188589D02*
X171486D01*
X168988Y161589D02*
X171406D01*
X168988Y111589D02*
X171406D01*
X168399Y222589D02*
X171365D01*
X168509Y287589D02*
X171340D01*
X167034Y278589D02*
X171312D01*
X168515Y248589D02*
X171312D01*
X168548Y227589D02*
X171215D01*
X169183Y165589D02*
X171210D01*
X169183Y115589D02*
X171210D01*
X168645Y213589D02*
X171119D01*
X168645Y183589D02*
X171119D01*
X169282Y155589D02*
X171111D01*
X169282Y125589D02*
X171111D01*
X168660Y178589D02*
X171103D01*
X169336Y152589D02*
X171058D01*
X169336Y122589D02*
X171058D01*
X168551Y233589D02*
X171008D01*
X169410Y162589D02*
X170984D01*
X169410Y112589D02*
X170984D01*
X168551Y239589D02*
X170961D01*
X169499Y164589D02*
X170894D01*
X169499Y114589D02*
X170894D01*
X168878Y174589D02*
X170886D01*
X168889Y217589D02*
X170874D01*
X168889Y187589D02*
X170874D01*
X169537Y154589D02*
X170857D01*
X169537Y124589D02*
X170857D01*
X101378Y306589D02*
X170849D01*
X169554Y153589D02*
X170840D01*
X169554Y123589D02*
X170840D01*
X169571Y163589D02*
X170823D01*
X169571Y113589D02*
X170823D01*
X168954Y223589D02*
X170810D01*
X169033Y226589D02*
X170731D01*
X167630Y272589D02*
X170716D01*
X168551Y242589D02*
X170716D01*
X168551Y281589D02*
X170698D01*
X169081Y214589D02*
X170682D01*
X169081Y184589D02*
X170682D01*
X169089Y177589D02*
X170675D01*
X169188Y175589D02*
X170576D01*
X169193Y216589D02*
X170571D01*
X169193Y186589D02*
X170571D01*
X169217Y224589D02*
X170546D01*
X169242Y225589D02*
X170522D01*
X169253Y215589D02*
X170510D01*
X169253Y185589D02*
X170510D01*
X169255Y176589D02*
X170509D01*
X168551Y286589D02*
X170471D01*
X167890Y277589D02*
X170457D01*
X168551Y247589D02*
X170457D01*
X168551Y234589D02*
X170292D01*
X168551Y238589D02*
X170266D01*
X168213Y273589D02*
X170133D01*
X168551Y243589D02*
X170133D01*
X168551Y282589D02*
X170123D01*
X168551Y285589D02*
X170004D01*
X168349Y276589D02*
X169997D01*
X168551Y246589D02*
X169997D01*
X168551Y235589D02*
X169917D01*
X168551Y237589D02*
X169905D01*
X168497Y274589D02*
X169849D01*
X168551Y244589D02*
X169849D01*
X168551Y283589D02*
X169846D01*
X168551Y284589D02*
X169808D01*
X168540Y275589D02*
X169807D01*
X168551Y245589D02*
X169807D01*
X168551Y236589D02*
X169795D01*
X101378Y298589D02*
X169695D01*
X101378Y305589D02*
X169667D01*
X101378Y304589D02*
X169587D01*
X101378Y303589D02*
X169587D01*
X101378Y302589D02*
X169587D01*
X101378Y301589D02*
X169587D01*
X101378Y300589D02*
X169587D01*
X101378Y299589D02*
X169587D01*
X156465Y159589D02*
X163929D01*
X156465Y109589D02*
X163929D01*
X155982Y211589D02*
X163782D01*
X155982Y181589D02*
X163782D01*
X156078Y180589D02*
X163685D01*
X101378Y279589D02*
X163102D01*
X157354Y167589D02*
X163040D01*
X157354Y117589D02*
X163040D01*
X157076Y172589D02*
X162688D01*
X157726Y157589D02*
X162668D01*
X157726Y127589D02*
X162668D01*
X157120Y219589D02*
X162644D01*
X157120Y189589D02*
X162644D01*
X157922Y150589D02*
X162472D01*
X157922Y120589D02*
X162472D01*
X157362Y221589D02*
X162402D01*
X158195Y160589D02*
X162199D01*
X158195Y110589D02*
X162199D01*
X157649Y228589D02*
X162115D01*
X157829Y212589D02*
X161935D01*
X157829Y182589D02*
X161935D01*
X157857Y179589D02*
X161906D01*
X158554Y166589D02*
X161839D01*
X158554Y116589D02*
X161839D01*
X101378Y271589D02*
X161812D01*
X158739Y156589D02*
X161655D01*
X158739Y126589D02*
X161655D01*
X158841Y151589D02*
X161553D01*
X158841Y121589D02*
X161553D01*
X158257Y173589D02*
X161507D01*
X158278Y218589D02*
X161486D01*
X158278Y188589D02*
X161486D01*
X158988Y161589D02*
X161406D01*
X158988Y111589D02*
X161406D01*
X158399Y222589D02*
X161365D01*
X101378Y278589D02*
X161312D01*
X158548Y227589D02*
X161215D01*
X159183Y165589D02*
X161210D01*
X159183Y115589D02*
X161210D01*
X158645Y213589D02*
X161119D01*
X158645Y183589D02*
X161119D01*
X159282Y155589D02*
X161111D01*
X159282Y125589D02*
X161111D01*
X158660Y178589D02*
X161103D01*
X159336Y152589D02*
X161058D01*
X159336Y122589D02*
X161058D01*
X159410Y162589D02*
X160984D01*
X159410Y112589D02*
X160984D01*
X159499Y164589D02*
X160894D01*
X159499Y114589D02*
X160894D01*
X158878Y174589D02*
X160886D01*
X158889Y217589D02*
X160874D01*
X158889Y187589D02*
X160874D01*
X159537Y154589D02*
X160857D01*
X159537Y124589D02*
X160857D01*
X101378Y288589D02*
X160841D01*
X159554Y153589D02*
X160840D01*
X159554Y123589D02*
X160840D01*
X159571Y163589D02*
X160823D01*
X159571Y113589D02*
X160823D01*
X158954Y223589D02*
X160810D01*
X101378Y249589D02*
X160757D01*
X159033Y226589D02*
X160731D01*
X101378Y272589D02*
X160716D01*
X159081Y214589D02*
X160682D01*
X159081Y184589D02*
X160682D01*
X159089Y177589D02*
X160675D01*
X159188Y175589D02*
X160576D01*
X159193Y216589D02*
X160571D01*
X159193Y186589D02*
X160571D01*
X159217Y224589D02*
X160546D01*
X159242Y225589D02*
X160522D01*
X159253Y215589D02*
X160510D01*
X159253Y185589D02*
X160510D01*
X159255Y176589D02*
X160509D01*
X101378Y277589D02*
X160457D01*
X101378Y232589D02*
X160252D01*
X101378Y240589D02*
X160200D01*
X101378Y273589D02*
X160133D01*
X101378Y276589D02*
X159997D01*
X101378Y241589D02*
X159978D01*
X101378Y280589D02*
X159965D01*
X101378Y274589D02*
X159849D01*
X101378Y287589D02*
X159837D01*
X101378Y248589D02*
X159831D01*
X101378Y275589D02*
X159807D01*
X101378Y233589D02*
X159795D01*
X101378Y286589D02*
X159795D01*
X101378Y285589D02*
X159795D01*
X101378Y284589D02*
X159795D01*
X101378Y283589D02*
X159795D01*
X101378Y282589D02*
X159795D01*
X101378Y281589D02*
X159795D01*
X101378Y247589D02*
X159795D01*
X101378Y246589D02*
X159795D01*
X101378Y245589D02*
X159795D01*
X101378Y244589D02*
X159795D01*
X101378Y243589D02*
X159795D01*
X101378Y242589D02*
X159795D01*
X101378Y239589D02*
X159795D01*
X101378Y238589D02*
X159795D01*
X101378Y237589D02*
X159795D01*
X101378Y236589D02*
X159795D01*
X101378Y235589D02*
X159795D01*
X101378Y234589D02*
X159795D01*
X146465Y159589D02*
X153929D01*
X146465Y109589D02*
X153929D01*
X145982Y211589D02*
X153782D01*
X148488Y181589D02*
X153782D01*
X148539Y180589D02*
X153685D01*
X147354Y167589D02*
X153040D01*
X147354Y117589D02*
X153040D01*
X149012Y172589D02*
X152688D01*
X147726Y157589D02*
X152668D01*
X147726Y127589D02*
X152668D01*
X147120Y219589D02*
X152644D01*
X149030Y189589D02*
X152644D01*
X147922Y150589D02*
X152472D01*
X147922Y120589D02*
X152472D01*
X149119Y221589D02*
X152402D01*
X148195Y160589D02*
X152199D01*
X148195Y110589D02*
X152199D01*
X149203Y228589D02*
X152115D01*
X147829Y212589D02*
X151935D01*
X149239Y182589D02*
X151935D01*
X149244Y179589D02*
X151906D01*
X148554Y166589D02*
X151839D01*
X148554Y116589D02*
X151839D01*
X148739Y156589D02*
X151655D01*
X148739Y126589D02*
X151655D01*
X148841Y151589D02*
X151553D01*
X148841Y121589D02*
X151553D01*
X149260Y173589D02*
X151507D01*
X148278Y218589D02*
X151486D01*
X149260Y188589D02*
X151486D01*
X148988Y161589D02*
X151406D01*
X148988Y111589D02*
X151406D01*
X149260Y222589D02*
X151365D01*
X149260Y227589D02*
X151215D01*
X149183Y165589D02*
X151210D01*
X149183Y115589D02*
X151210D01*
X148645Y213589D02*
X151119D01*
X149260Y183589D02*
X151119D01*
X149282Y155589D02*
X151111D01*
X149282Y125589D02*
X151111D01*
X149260Y178589D02*
X151103D01*
X149336Y152589D02*
X151058D01*
X149336Y122589D02*
X151058D01*
X149410Y162589D02*
X150984D01*
X149410Y112589D02*
X150984D01*
X149499Y164589D02*
X150894D01*
X149499Y114589D02*
X150894D01*
X149260Y174589D02*
X150886D01*
X148889Y217589D02*
X150874D01*
X149260Y187589D02*
X150874D01*
X149537Y154589D02*
X150857D01*
X149537Y124589D02*
X150857D01*
X149554Y153589D02*
X150840D01*
X149554Y123589D02*
X150840D01*
X149571Y163589D02*
X150823D01*
X149571Y113589D02*
X150823D01*
X149260Y223589D02*
X150810D01*
X149260Y226589D02*
X150731D01*
X149081Y214589D02*
X150682D01*
X149260Y184589D02*
X150682D01*
X149260Y177589D02*
X150675D01*
X149260Y175589D02*
X150576D01*
X149193Y216589D02*
X150571D01*
X149260Y186589D02*
X150571D01*
X149260Y224589D02*
X150546D01*
X149260Y225589D02*
X150522D01*
X149253Y215589D02*
X150510D01*
X149260Y185589D02*
X150510D01*
X149260Y176589D02*
X150509D01*
X136465Y159589D02*
X143929D01*
X136465Y109589D02*
X143929D01*
X101378Y211589D02*
X143782D01*
X137354Y167589D02*
X143040D01*
X137354Y117589D02*
X143040D01*
X137726Y157589D02*
X142668D01*
X137726Y127589D02*
X142668D01*
X101378Y219589D02*
X142644D01*
X137922Y150589D02*
X142472D01*
X137922Y120589D02*
X142472D01*
X138195Y160589D02*
X142199D01*
X138195Y110589D02*
X142199D01*
X101378Y212589D02*
X141935D01*
X138554Y166589D02*
X141839D01*
X138554Y116589D02*
X141839D01*
X138739Y156589D02*
X141655D01*
X138739Y126589D02*
X141655D01*
X138841Y151589D02*
X141553D01*
X138841Y121589D02*
X141553D01*
X101378Y218589D02*
X141486D01*
X138988Y161589D02*
X141406D01*
X138988Y111589D02*
X141406D01*
X101378Y181589D02*
X141276D01*
X101378Y180589D02*
X141225D01*
X139183Y165589D02*
X141210D01*
X139183Y115589D02*
X141210D01*
X101378Y213589D02*
X141119D01*
X139282Y155589D02*
X141111D01*
X139282Y125589D02*
X141111D01*
X139336Y152589D02*
X141058D01*
X139336Y122589D02*
X141058D01*
X139410Y162589D02*
X140984D01*
X139410Y112589D02*
X140984D01*
X139499Y164589D02*
X140894D01*
X139499Y114589D02*
X140894D01*
X101378Y217589D02*
X140874D01*
X139537Y154589D02*
X140857D01*
X139537Y124589D02*
X140857D01*
X139554Y153589D02*
X140840D01*
X139554Y123589D02*
X140840D01*
X139571Y163589D02*
X140823D01*
X139571Y113589D02*
X140823D01*
X101378Y172589D02*
X140752D01*
X101378Y189589D02*
X140734D01*
X101378Y214589D02*
X140682D01*
X101378Y221589D02*
X140645D01*
X101378Y216589D02*
X140571D01*
X101378Y228589D02*
X140561D01*
X101378Y182589D02*
X140525D01*
X101378Y179589D02*
X140520D01*
X101378Y215589D02*
X140510D01*
X101378Y227589D02*
X140504D01*
X101378Y226589D02*
X140504D01*
X101378Y225589D02*
X140504D01*
X101378Y224589D02*
X140504D01*
X101378Y223589D02*
X140504D01*
X101378Y222589D02*
X140504D01*
X101378Y188589D02*
X140504D01*
X101378Y187589D02*
X140504D01*
X101378Y186589D02*
X140504D01*
X101378Y185589D02*
X140504D01*
X101378Y184589D02*
X140504D01*
X101378Y183589D02*
X140504D01*
X101378Y178589D02*
X140504D01*
X101378Y177589D02*
X140504D01*
X101378Y176589D02*
X140504D01*
X101378Y175589D02*
X140504D01*
X101378Y174589D02*
X140504D01*
X101378Y173589D02*
X140504D01*
X128891Y159589D02*
X133929D01*
X128891Y109589D02*
X133929D01*
X129312Y167589D02*
X133040D01*
X129312Y117589D02*
X133040D01*
X127726Y157589D02*
X132668D01*
X129450Y127589D02*
X132668D01*
X127922Y150589D02*
X132472D01*
X129507Y120589D02*
X132472D01*
X129562Y160589D02*
X132199D01*
X129562Y110589D02*
X132199D01*
X129575Y166589D02*
X131839D01*
X129575Y116589D02*
X131839D01*
X128739Y156589D02*
X131655D01*
X129575Y126589D02*
X131655D01*
X128841Y151589D02*
X131553D01*
X129575Y121589D02*
X131553D01*
X129575Y161589D02*
X131406D01*
X129575Y111589D02*
X131406D01*
X129575Y165589D02*
X131210D01*
X129575Y115589D02*
X131210D01*
X129282Y155589D02*
X131111D01*
X129575Y125589D02*
X131111D01*
X129336Y152589D02*
X131058D01*
X129575Y122589D02*
X131058D01*
X129575Y162589D02*
X130984D01*
X129575Y112589D02*
X130984D01*
X129575Y164589D02*
X130894D01*
X129575Y114589D02*
X130894D01*
X129537Y154589D02*
X130857D01*
X129575Y124589D02*
X130857D01*
X129554Y153589D02*
X130840D01*
X129575Y123589D02*
X130840D01*
X129575Y163589D02*
X130823D01*
X129575Y113589D02*
X130823D01*
X101378Y157589D02*
X122668D01*
X101378Y150589D02*
X122472D01*
X101378Y156589D02*
X121655D01*
X101378Y151589D02*
X121553D01*
X101378Y159589D02*
X121503D01*
X101378Y109589D02*
X121503D01*
X101378Y155589D02*
X121111D01*
X101378Y167589D02*
X121082D01*
X101378Y117589D02*
X121082D01*
X101378Y152589D02*
X121058D01*
X101378Y127589D02*
X120944D01*
X101378Y120589D02*
X120887D01*
X101378Y154589D02*
X120857D01*
X101378Y153589D02*
X120840D01*
X101378Y160589D02*
X120832D01*
X101378Y110589D02*
X120832D01*
X101378Y166589D02*
X120819D01*
X101378Y165589D02*
X120819D01*
X101378Y164589D02*
X120819D01*
X101378Y163589D02*
X120819D01*
X101378Y162589D02*
X120819D01*
X101378Y161589D02*
X120819D01*
X101378Y126589D02*
X120819D01*
X101378Y125589D02*
X120819D01*
X101378Y124589D02*
X120819D01*
X101378Y123589D02*
X120819D01*
X101378Y122589D02*
X120819D01*
X101378Y121589D02*
X120819D01*
X101378Y116589D02*
X120819D01*
X101378Y115589D02*
X120819D01*
X101378Y114589D02*
X120819D01*
X101378Y113589D02*
X120819D01*
X101378Y112589D02*
X120819D01*
X101378Y111589D02*
X120819D01*
X373378Y107591D02*
Y306870D01*
X372378Y107591D02*
Y306870D01*
X371378Y107591D02*
Y306870D01*
X370378Y107591D02*
Y306870D01*
X369378Y169222D02*
Y306870D01*
Y107591D02*
Y168179D01*
X368378Y171506D02*
Y306870D01*
Y143166D02*
Y165895D01*
Y107591D02*
Y140299D01*
X367378Y172371D02*
Y306870D01*
Y144770D02*
Y165031D01*
Y107591D02*
Y138695D01*
X366378Y172832D02*
Y306870D01*
Y145527D02*
Y164570D01*
Y107591D02*
Y137937D01*
X365378Y274966D02*
Y306870D01*
Y262630D02*
Y267388D01*
Y252630D02*
Y259725D01*
Y242630D02*
Y249725D01*
Y173021D02*
Y239725D01*
Y145924D02*
Y164380D01*
Y107591D02*
Y137540D01*
X364378Y275549D02*
Y306870D01*
Y264238D02*
Y266805D01*
Y254238D02*
Y258116D01*
Y244238D02*
Y248116D01*
Y172974D02*
Y238116D01*
Y146062D02*
Y164427D01*
Y107591D02*
Y137402D01*
X363378Y275555D02*
Y306870D01*
Y265002D02*
Y266799D01*
Y255002D02*
Y257352D01*
Y245002D02*
Y247352D01*
Y172684D02*
Y237352D01*
Y145966D02*
Y164718D01*
Y107591D02*
Y137499D01*
X362378Y275555D02*
Y306870D01*
Y265407D02*
Y266799D01*
Y255407D02*
Y256948D01*
Y245407D02*
Y246948D01*
Y172086D02*
Y236948D01*
Y145617D02*
Y165315D01*
Y107591D02*
Y137847D01*
X361378Y275555D02*
Y306870D01*
Y265553D02*
Y266799D01*
Y255553D02*
Y256801D01*
Y245553D02*
Y246801D01*
Y170950D02*
Y236801D01*
Y144937D02*
Y166451D01*
Y107591D02*
Y138528D01*
X360378Y275555D02*
Y306870D01*
Y265468D02*
Y266799D01*
Y255468D02*
Y256887D01*
Y245468D02*
Y246887D01*
Y143587D02*
Y236887D01*
Y107591D02*
Y139877D01*
X359378Y275555D02*
Y306870D01*
Y265136D02*
Y266523D01*
Y255136D02*
Y257219D01*
Y245136D02*
Y247219D01*
Y169222D02*
Y237219D01*
Y107591D02*
Y168179D01*
X358378Y275555D02*
Y306870D01*
Y264483D02*
Y265523D01*
Y254483D02*
Y257871D01*
Y244483D02*
Y247871D01*
Y171506D02*
Y237871D01*
Y143166D02*
Y165895D01*
Y107591D02*
Y140299D01*
X357378Y275246D02*
Y306870D01*
Y263246D02*
Y264523D01*
Y253246D02*
Y259108D01*
Y243246D02*
Y249108D01*
Y172371D02*
Y239108D01*
Y144770D02*
Y165031D01*
Y107591D02*
Y138695D01*
X356378Y269091D02*
Y306870D01*
Y145527D02*
Y164570D01*
Y107591D02*
Y137937D01*
X355378Y268091D02*
Y306870D01*
Y145924D02*
Y164380D01*
Y107591D02*
Y137540D01*
X354378Y267091D02*
Y306870D01*
Y146062D02*
Y164427D01*
Y112426D02*
Y137402D01*
Y107591D02*
Y111684D01*
X353378Y304867D02*
Y306870D01*
Y265999D02*
Y299385D01*
Y145966D02*
Y164718D01*
Y114859D02*
Y137499D01*
Y107591D02*
Y109251D01*
X352378Y305779D02*
Y306870D01*
Y174185D02*
Y298473D01*
Y145617D02*
Y165315D01*
Y115741D02*
Y137847D01*
Y107591D02*
Y108369D01*
X351378Y306270D02*
Y306870D01*
Y175185D02*
Y297982D01*
Y144937D02*
Y166451D01*
Y116216D02*
Y138528D01*
X350378Y306497D02*
Y306849D01*
Y176185D02*
Y297768D01*
Y143587D02*
Y170618D01*
Y116418D02*
Y139877D01*
X349378Y306464D02*
Y306870D01*
Y177185D02*
Y297787D01*
Y116386D02*
Y165455D01*
X348378Y306206D02*
Y306870D01*
Y239663D02*
Y298046D01*
Y178185D02*
Y238684D01*
Y145468D02*
Y164414D01*
Y116115D02*
Y137997D01*
Y107591D02*
Y107995D01*
X347378Y305658D02*
Y306870D01*
Y241238D02*
Y298594D01*
Y179185D02*
Y237108D01*
Y173032D02*
Y173618D01*
Y146056D02*
Y164370D01*
Y115549D02*
Y137408D01*
Y107591D02*
Y108561D01*
X346378Y304637D02*
Y306870D01*
Y241681D02*
Y299615D01*
Y180147D02*
Y236666D01*
Y173032D02*
Y174618D01*
Y146063D02*
Y164370D01*
Y114491D02*
Y137402D01*
Y107591D02*
Y109619D01*
X345378Y241685D02*
Y306870D01*
Y180507D02*
Y236661D01*
Y173032D02*
Y175618D01*
Y146063D02*
Y164370D01*
Y107591D02*
Y137402D01*
X344378Y241255D02*
Y306870D01*
Y180512D02*
Y237091D01*
Y173032D02*
Y176571D01*
Y146063D02*
Y164370D01*
Y112426D02*
Y137402D01*
Y107591D02*
Y111684D01*
X343378Y304867D02*
Y306870D01*
Y239771D02*
Y299385D01*
Y180512D02*
Y238575D01*
Y173032D02*
Y176575D01*
Y146063D02*
Y164370D01*
Y114859D02*
Y137402D01*
Y107591D02*
Y109251D01*
X342378Y305779D02*
Y306870D01*
Y180512D02*
Y298473D01*
Y173032D02*
Y176575D01*
Y146063D02*
Y163494D01*
Y115741D02*
Y137313D01*
Y107591D02*
Y108369D01*
X341378Y306270D02*
Y306870D01*
Y180512D02*
Y297982D01*
Y172811D02*
Y176575D01*
Y146063D02*
Y162494D01*
Y116216D02*
Y136313D01*
X340378Y306497D02*
Y306849D01*
Y180512D02*
Y297768D01*
Y166506D02*
Y176575D01*
Y145673D02*
Y161494D01*
Y116418D02*
Y135313D01*
X339378Y306464D02*
Y306870D01*
Y180512D02*
Y297787D01*
Y165506D02*
Y176575D01*
Y139324D02*
Y160494D01*
Y116386D02*
Y134313D01*
X338378Y306206D02*
Y306870D01*
Y180512D02*
Y298046D01*
Y164506D02*
Y176575D01*
Y138324D02*
Y159494D01*
Y116115D02*
Y133313D01*
Y107591D02*
Y107995D01*
X337378Y305658D02*
Y306870D01*
Y180512D02*
Y298594D01*
Y163506D02*
Y176575D01*
Y137324D02*
Y158494D01*
Y115549D02*
Y132313D01*
Y107591D02*
Y108561D01*
X336378Y304637D02*
Y306870D01*
Y180512D02*
Y299615D01*
Y162506D02*
Y176575D01*
Y136324D02*
Y157494D01*
Y114491D02*
Y131322D01*
Y107591D02*
Y109619D01*
X335378Y180512D02*
Y306870D01*
Y161506D02*
Y176575D01*
Y135324D02*
Y156494D01*
Y107591D02*
Y130911D01*
X334378Y241085D02*
Y306870D01*
Y181398D02*
Y237261D01*
Y160506D02*
Y176576D01*
Y134449D02*
Y155494D01*
Y112426D02*
Y130905D01*
Y107591D02*
Y111684D01*
X333378Y304867D02*
Y306870D01*
Y241634D02*
Y299385D01*
Y182398D02*
Y236712D01*
Y159506D02*
Y176892D01*
Y134449D02*
Y154494D01*
Y114859D02*
Y130905D01*
Y107591D02*
Y109251D01*
X332378Y305779D02*
Y306870D01*
Y241715D02*
Y298473D01*
Y183398D02*
Y236632D01*
Y158506D02*
Y177830D01*
Y134449D02*
Y153494D01*
Y115741D02*
Y130905D01*
Y107591D02*
Y108369D01*
X331378Y306270D02*
Y306870D01*
Y241378D02*
Y297982D01*
Y192765D02*
Y236968D01*
Y184398D02*
Y190305D01*
Y157506D02*
Y178830D01*
Y134449D02*
Y152494D01*
Y116216D02*
Y130905D01*
X330378Y306497D02*
Y306849D01*
Y240297D02*
Y297768D01*
Y193772D02*
Y238050D01*
Y156506D02*
Y179830D01*
Y134449D02*
Y151494D01*
Y116418D02*
Y130905D01*
X329378Y306464D02*
Y306870D01*
Y194083D02*
Y297787D01*
Y155506D02*
Y180830D01*
Y134449D02*
Y150494D01*
Y116386D02*
Y130905D01*
X328378Y306206D02*
Y306870D01*
Y193980D02*
Y298046D01*
Y154506D02*
Y181830D01*
Y134449D02*
Y149494D01*
Y116115D02*
Y130905D01*
Y107591D02*
Y107995D01*
X327378Y305658D02*
Y306870D01*
Y193397D02*
Y298594D01*
Y153506D02*
Y182968D01*
Y134449D02*
Y148494D01*
Y115549D02*
Y130905D01*
Y107591D02*
Y108561D01*
X326378Y304637D02*
Y306870D01*
Y152506D02*
Y299615D01*
Y134449D02*
Y147494D01*
Y114491D02*
Y130905D01*
Y107591D02*
Y109619D01*
X325378Y151506D02*
Y306870D01*
Y134449D02*
Y146494D01*
Y107591D02*
Y130901D01*
X324378Y150506D02*
Y306870D01*
Y134434D02*
Y145494D01*
Y112426D02*
Y129943D01*
Y107591D02*
Y111684D01*
X323378Y304867D02*
Y306870D01*
Y149506D02*
Y299385D01*
Y133954D02*
Y144494D01*
Y114859D02*
Y128943D01*
Y107591D02*
Y109251D01*
X322378Y305779D02*
Y306870D01*
Y279734D02*
Y298473D01*
Y148506D02*
Y211998D01*
Y132954D02*
Y143494D01*
Y115741D02*
Y127943D01*
Y107591D02*
Y108369D01*
X321378Y306270D02*
Y306870D01*
Y147506D02*
Y210998D01*
Y131954D02*
Y142494D01*
X320378Y306497D02*
Y306849D01*
Y146506D02*
Y209998D01*
Y130954D02*
Y141494D01*
X319378Y306464D02*
Y306870D01*
Y261767D02*
Y277723D01*
Y214009D02*
Y225599D01*
Y145506D02*
Y208998D01*
Y129954D02*
Y140494D01*
X318378Y306206D02*
Y306870D01*
Y261791D02*
Y278853D01*
Y213009D02*
Y225644D01*
Y176369D02*
Y207998D01*
Y144506D02*
Y146391D01*
Y128762D02*
Y139494D01*
Y107591D02*
Y107995D01*
X317378Y305658D02*
Y306870D01*
Y261443D02*
Y298594D01*
Y212009D02*
Y226091D01*
Y176886D02*
Y206998D01*
Y143506D02*
Y145187D01*
Y115549D02*
Y138494D01*
Y107591D02*
Y108561D01*
X316378Y304637D02*
Y306870D01*
Y260326D02*
Y299615D01*
Y228597D02*
Y258178D01*
Y211009D02*
Y227702D01*
Y176944D02*
Y205998D01*
Y142506D02*
Y144187D01*
Y114491D02*
Y137494D01*
Y107591D02*
Y109619D01*
X315378Y210009D02*
Y306870D01*
Y176581D02*
Y204998D01*
Y141506D02*
Y143187D01*
Y107591D02*
Y136494D01*
X314378Y209009D02*
Y306870D01*
Y175412D02*
Y203998D01*
Y162866D02*
Y173406D01*
Y147198D02*
Y158670D01*
Y140506D02*
Y142187D01*
Y112426D02*
Y135494D01*
Y107591D02*
Y111684D01*
X313378Y304867D02*
Y306870D01*
Y208009D02*
Y299385D01*
Y164097D02*
Y202998D01*
Y146198D02*
Y157438D01*
Y139506D02*
Y141187D01*
Y114859D02*
Y134494D01*
Y107591D02*
Y109251D01*
X312378Y305779D02*
Y306870D01*
Y207009D02*
Y298473D01*
Y164739D02*
Y201998D01*
Y145198D02*
Y156796D01*
Y138506D02*
Y140187D01*
Y115741D02*
Y133494D01*
Y107591D02*
Y108369D01*
X311378Y306270D02*
Y306870D01*
Y206009D02*
Y297982D01*
Y165064D02*
Y200998D01*
Y144198D02*
Y156472D01*
Y137506D02*
Y139187D01*
X310378Y306497D02*
Y306849D01*
Y261148D02*
Y297768D01*
Y230188D02*
Y257749D01*
Y205009D02*
Y227293D01*
Y165143D02*
Y199998D01*
Y143198D02*
Y156393D01*
Y136506D02*
Y138187D01*
X309378Y306464D02*
Y306870D01*
Y261839D02*
Y297787D01*
Y204009D02*
Y226434D01*
Y164990D02*
Y198998D01*
Y142198D02*
Y156546D01*
Y135506D02*
Y137187D01*
X308378Y306206D02*
Y306870D01*
Y262006D02*
Y298046D01*
Y203009D02*
Y226183D01*
Y164577D02*
Y197998D01*
Y141198D02*
Y156958D01*
Y134313D02*
Y136187D01*
Y107591D02*
Y107995D01*
X307378Y305658D02*
Y306870D01*
Y261766D02*
Y298594D01*
Y202009D02*
Y226341D01*
Y163800D02*
Y196998D01*
Y140198D02*
Y157735D01*
Y115549D02*
Y135187D01*
Y107591D02*
Y108561D01*
X306378Y304637D02*
Y306870D01*
Y260930D02*
Y299615D01*
Y230466D02*
Y257967D01*
Y201009D02*
Y227015D01*
Y162140D02*
Y195998D01*
Y139198D02*
Y159396D01*
Y114491D02*
Y134187D01*
Y107591D02*
Y109619D01*
X305378Y200009D02*
Y306870D01*
Y178620D02*
Y194998D01*
Y138198D02*
Y176104D01*
Y107591D02*
Y133187D01*
X304378Y199009D02*
Y306870D01*
Y162866D02*
Y175117D01*
Y137198D02*
Y158670D01*
Y115263D02*
Y132187D01*
Y107591D02*
Y108847D01*
X303378Y304867D02*
Y306870D01*
Y229645D02*
Y299385D01*
Y198009D02*
Y227835D01*
Y164097D02*
Y174813D01*
Y136198D02*
Y157438D01*
Y116385D02*
Y131187D01*
X302378Y305779D02*
Y306870D01*
Y244007D02*
Y298473D01*
Y197009D02*
Y226594D01*
Y164739D02*
Y174922D01*
Y135198D02*
Y156796D01*
Y116433D02*
Y130187D01*
X301378Y306270D02*
Y306870D01*
Y245025D02*
Y297982D01*
Y195890D02*
Y226212D01*
Y165064D02*
Y175516D01*
Y134198D02*
Y156472D01*
X300378Y306497D02*
Y306849D01*
Y261281D02*
Y297768D01*
Y165143D02*
Y226254D01*
Y133198D02*
Y156393D01*
X299378Y306464D02*
Y306870D01*
Y261749D02*
Y297787D01*
Y164990D02*
Y226748D01*
Y132198D02*
Y156546D01*
X298378Y306206D02*
Y306870D01*
Y261773D02*
Y298002D01*
Y164577D02*
Y243014D01*
Y131006D02*
Y156958D01*
X297378Y305658D02*
Y306870D01*
Y261367D02*
Y297034D01*
Y163800D02*
Y244048D01*
Y116433D02*
Y157735D01*
X296378Y304637D02*
Y306870D01*
Y260021D02*
Y296034D01*
Y162140D02*
Y258483D01*
Y116277D02*
Y159396D01*
X295378Y300045D02*
Y306870D01*
Y229232D02*
Y295034D01*
Y107591D02*
Y227854D01*
X294378Y299045D02*
Y306870D01*
Y243910D02*
Y294034D01*
Y162866D02*
Y226445D01*
Y107591D02*
Y158670D01*
X293378Y304867D02*
Y306870D01*
Y298045D02*
Y299385D01*
Y244954D02*
Y293034D01*
Y164097D02*
Y226027D01*
Y107591D02*
Y157438D01*
X292378Y305779D02*
Y306870D01*
Y297045D02*
Y298473D01*
Y245954D02*
Y292034D01*
Y164739D02*
Y226041D01*
Y139165D02*
Y156796D01*
Y107591D02*
Y136032D01*
X291378Y306270D02*
Y306870D01*
Y296045D02*
Y297982D01*
Y246954D02*
Y291034D01*
Y165064D02*
Y226496D01*
Y139944D02*
Y156472D01*
Y107591D02*
Y135253D01*
X290378Y306497D02*
Y306849D01*
Y295045D02*
Y297768D01*
Y260661D02*
Y290034D01*
Y247954D02*
Y257449D01*
Y228891D02*
Y242943D01*
Y165143D02*
Y228196D01*
Y140157D02*
Y156393D01*
Y107591D02*
Y135039D01*
X289378Y306464D02*
Y306870D01*
Y294045D02*
Y297787D01*
Y261414D02*
Y289034D01*
Y164990D02*
Y243943D01*
Y139964D02*
Y156546D01*
Y107591D02*
Y135233D01*
X288378Y306206D02*
Y306870D01*
Y293045D02*
Y298046D01*
Y261614D02*
Y288171D01*
Y164577D02*
Y244943D01*
Y139224D02*
Y156958D01*
Y107591D02*
Y135973D01*
X287378Y305658D02*
Y306870D01*
Y292045D02*
Y298594D01*
Y261407D02*
Y287992D01*
Y243202D02*
Y245943D01*
Y163800D02*
Y227068D01*
Y107591D02*
Y157735D01*
X286378Y304637D02*
Y306870D01*
Y291535D02*
Y299615D01*
Y260642D02*
Y287992D01*
Y244671D02*
Y257468D01*
Y162140D02*
Y226490D01*
Y107591D02*
Y159396D01*
X285378Y291535D02*
Y306870D01*
Y245671D02*
Y287992D01*
Y107591D02*
Y226390D01*
X284378Y291535D02*
Y306870D01*
Y246671D02*
Y287992D01*
Y164858D02*
Y226705D01*
Y107591D02*
Y156677D01*
X283378Y306440D02*
Y306870D01*
Y291535D02*
Y297811D01*
Y247671D02*
Y287992D01*
Y230153D02*
Y242660D01*
Y165146D02*
Y227721D01*
Y114867D02*
Y156390D01*
Y107591D02*
Y109385D01*
X282378Y291535D02*
Y297748D01*
Y248671D02*
Y287992D01*
Y165146D02*
Y243660D01*
Y115779D02*
Y156390D01*
Y107591D02*
Y108473D01*
X281378Y291535D02*
Y297748D01*
Y249671D02*
Y287992D01*
Y223421D02*
Y244660D01*
Y165146D02*
Y219886D01*
Y116270D02*
Y156390D01*
Y107594D02*
Y107982D01*
X280378Y291535D02*
Y297748D01*
Y261021D02*
Y287992D01*
Y224067D02*
Y245660D01*
Y165146D02*
Y219240D01*
Y116484D02*
Y156390D01*
X279378Y291535D02*
Y297748D01*
Y261533D02*
Y287992D01*
Y224208D02*
Y246660D01*
Y165146D02*
Y219099D01*
Y116464D02*
Y156390D01*
X278378Y291535D02*
Y297748D01*
Y261588D02*
Y287992D01*
Y230039D02*
Y247660D01*
Y223940D02*
Y228229D01*
Y165146D02*
Y219367D01*
Y116206D02*
Y156390D01*
Y107591D02*
Y108046D01*
X277378Y291535D02*
Y297748D01*
Y261222D02*
Y287992D01*
Y244007D02*
Y248670D01*
Y223425D02*
Y226988D01*
Y165137D02*
Y219882D01*
Y115658D02*
Y156399D01*
Y107591D02*
Y108594D01*
X276378Y306373D02*
Y306870D01*
Y291535D02*
Y297879D01*
Y260039D02*
Y287992D01*
Y245025D02*
Y258071D01*
Y223425D02*
Y226605D01*
Y164515D02*
Y219882D01*
Y114637D02*
Y157020D01*
Y107591D02*
Y109615D01*
X275378Y291535D02*
Y306870D01*
Y246025D02*
Y287992D01*
Y223425D02*
Y226648D01*
Y107591D02*
Y219882D01*
X274378Y291535D02*
Y306870D01*
Y247025D02*
Y287992D01*
Y223425D02*
Y227142D01*
Y107591D02*
Y219882D01*
X273378Y291535D02*
Y306870D01*
Y248025D02*
Y287992D01*
Y223425D02*
Y243014D01*
Y114867D02*
Y219882D01*
Y107591D02*
Y109385D01*
X272378Y291535D02*
Y306870D01*
Y249025D02*
Y287992D01*
Y223425D02*
Y244014D01*
Y115779D02*
Y219882D01*
Y107591D02*
Y108473D01*
X271378Y291535D02*
Y306870D01*
Y250025D02*
Y287992D01*
Y223425D02*
Y245014D01*
Y116270D02*
Y219882D01*
Y107594D02*
Y107982D01*
X270378Y291535D02*
Y306870D01*
Y260995D02*
Y287992D01*
Y251025D02*
Y257509D01*
Y223425D02*
Y246014D01*
Y116484D02*
Y219882D01*
X269378Y291535D02*
Y306870D01*
Y261657D02*
Y287992D01*
Y223679D02*
Y247014D01*
Y116464D02*
Y219882D01*
X268378Y291535D02*
Y306870D01*
Y261808D02*
Y287992D01*
Y224679D02*
Y248014D01*
Y116206D02*
Y219960D01*
Y107591D02*
Y108046D01*
X267378Y304867D02*
Y306870D01*
Y291535D02*
Y299385D01*
Y261550D02*
Y287992D01*
Y225679D02*
Y249014D01*
Y115658D02*
Y220668D01*
Y107591D02*
Y108594D01*
X266378Y305779D02*
Y306870D01*
Y291535D02*
Y298473D01*
Y260676D02*
Y287992D01*
Y226679D02*
Y257827D01*
Y114637D02*
Y221668D01*
Y107591D02*
Y109615D01*
X265378Y306270D02*
Y306870D01*
Y291535D02*
Y297982D01*
Y227679D02*
Y287992D01*
Y107591D02*
Y222668D01*
X264378Y306497D02*
Y306849D01*
Y291535D02*
Y297768D01*
Y228679D02*
Y287992D01*
Y107591D02*
Y223668D01*
X263378Y306464D02*
Y306870D01*
Y291535D02*
Y297787D01*
Y229679D02*
Y287992D01*
Y114867D02*
Y224668D01*
Y107591D02*
Y109385D01*
X262378Y306206D02*
Y306870D01*
Y291535D02*
Y298046D01*
Y230679D02*
Y287992D01*
Y115779D02*
Y225668D01*
Y107591D02*
Y108473D01*
X261378Y305658D02*
Y306870D01*
Y291535D02*
Y298594D01*
Y231679D02*
Y287992D01*
Y116270D02*
Y226668D01*
Y107594D02*
Y107982D01*
X260378Y304637D02*
Y306870D01*
Y291535D02*
Y299615D01*
Y232679D02*
Y287992D01*
Y116484D02*
Y227668D01*
X259378Y291535D02*
Y306870D01*
Y233679D02*
Y287992D01*
Y116464D02*
Y228668D01*
X258378Y291535D02*
Y306870D01*
Y234679D02*
Y287992D01*
Y116206D02*
Y229668D01*
Y107591D02*
Y108046D01*
X257378Y304867D02*
Y306870D01*
Y291535D02*
Y299385D01*
Y235679D02*
Y287992D01*
Y115658D02*
Y230668D01*
Y107591D02*
Y108594D01*
X256378Y305779D02*
Y306870D01*
Y291535D02*
Y298473D01*
Y236679D02*
Y287992D01*
Y114637D02*
Y231668D01*
Y107591D02*
Y109615D01*
X255378Y306270D02*
Y306870D01*
Y291535D02*
Y297982D01*
Y237679D02*
Y287992D01*
Y107591D02*
Y232668D01*
X254378Y306497D02*
Y306849D01*
Y291535D02*
Y297768D01*
Y238679D02*
Y287992D01*
Y107591D02*
Y233668D01*
X253378Y306464D02*
Y306870D01*
Y291535D02*
Y297787D01*
Y239679D02*
Y287880D01*
Y114867D02*
Y234668D01*
Y107591D02*
Y109385D01*
X252378Y306206D02*
Y306870D01*
Y291495D02*
Y298046D01*
Y240679D02*
Y286880D01*
Y115779D02*
Y235668D01*
Y107591D02*
Y108473D01*
X251378Y305658D02*
Y306870D01*
Y290891D02*
Y298594D01*
Y241679D02*
Y285880D01*
Y116270D02*
Y236668D01*
Y107594D02*
Y107982D01*
X250378Y304637D02*
Y306870D01*
Y289891D02*
Y299615D01*
Y242679D02*
Y284880D01*
Y116484D02*
Y237668D01*
X249378Y288891D02*
Y306870D01*
Y243679D02*
Y283880D01*
Y116464D02*
Y238668D01*
X248378Y287891D02*
Y306870D01*
Y244679D02*
Y282880D01*
Y116206D02*
Y239668D01*
Y107591D02*
Y108046D01*
X247378Y304867D02*
Y306870D01*
Y286891D02*
Y299385D01*
Y245679D02*
Y281880D01*
Y115658D02*
Y240668D01*
Y107591D02*
Y108594D01*
X246378Y305779D02*
Y306870D01*
Y285891D02*
Y298473D01*
Y247612D02*
Y280880D01*
Y114637D02*
Y241668D01*
Y107591D02*
Y109615D01*
X245378Y306270D02*
Y306870D01*
Y284891D02*
Y297982D01*
Y248671D02*
Y279880D01*
Y232682D02*
Y242668D01*
Y107591D02*
Y230310D01*
X244378Y306497D02*
Y306849D01*
Y283891D02*
Y297768D01*
Y249000D02*
Y278880D01*
Y239820D02*
Y243668D01*
Y107591D02*
Y229273D01*
X243378Y306464D02*
Y306870D01*
Y282891D02*
Y297787D01*
Y248913D02*
Y277880D01*
Y240820D02*
Y244000D01*
Y114867D02*
Y228951D01*
Y107591D02*
Y109385D01*
X242378Y306206D02*
Y306870D01*
Y281891D02*
Y298046D01*
Y248355D02*
Y276880D01*
Y241820D02*
Y244559D01*
Y115779D02*
Y229044D01*
Y107591D02*
Y108473D01*
X241378Y305658D02*
Y306870D01*
Y280891D02*
Y298594D01*
Y116270D02*
Y229612D01*
Y107594D02*
Y107982D01*
X240378Y304637D02*
Y306870D01*
Y279891D02*
Y299615D01*
Y116484D02*
Y238809D01*
X239378Y278891D02*
Y306870D01*
Y116464D02*
Y239809D01*
X238378Y285471D02*
Y306870D01*
Y277335D02*
Y283033D01*
Y247412D02*
Y273139D01*
Y237834D02*
Y243139D01*
Y116206D02*
Y235395D01*
Y107591D02*
Y108046D01*
X237378Y304867D02*
Y306870D01*
Y287235D02*
Y299385D01*
Y278258D02*
Y281269D01*
Y248258D02*
Y272293D01*
Y239597D02*
Y242293D01*
Y115658D02*
Y233632D01*
Y107591D02*
Y108594D01*
X236378Y305779D02*
Y306870D01*
Y288034D02*
Y298473D01*
Y279058D02*
Y280470D01*
Y249058D02*
Y271493D01*
Y240396D02*
Y241493D01*
Y114637D02*
Y232832D01*
Y107591D02*
Y109615D01*
X235378Y306270D02*
Y306870D01*
Y288461D02*
Y297982D01*
Y279485D02*
Y280043D01*
Y249485D02*
Y271067D01*
Y107591D02*
Y232405D01*
X234378Y306497D02*
Y306849D01*
Y288625D02*
Y297768D01*
Y249649D02*
Y270902D01*
Y107591D02*
Y232241D01*
X233378Y306464D02*
Y306870D01*
Y288557D02*
Y297787D01*
Y279589D02*
Y279938D01*
Y249581D02*
Y270970D01*
Y114867D02*
Y232309D01*
Y107591D02*
Y109385D01*
X232378Y306206D02*
Y306870D01*
Y288245D02*
Y298046D01*
Y279269D02*
Y280259D01*
Y249269D02*
Y271283D01*
Y240607D02*
Y241283D01*
Y115779D02*
Y232621D01*
Y107591D02*
Y108473D01*
X231378Y305658D02*
Y306870D01*
Y287621D02*
Y298594D01*
Y278645D02*
Y280883D01*
Y248645D02*
Y271906D01*
Y239984D02*
Y241906D01*
Y116270D02*
Y233245D01*
Y107594D02*
Y107982D01*
X230378Y304637D02*
Y306870D01*
Y286434D02*
Y299615D01*
Y277458D02*
Y282070D01*
Y247458D02*
Y273093D01*
Y238797D02*
Y243093D01*
Y116484D02*
Y234432D01*
X229378Y116464D02*
Y306870D01*
X228378Y285471D02*
Y306870D01*
Y276495D02*
Y283033D01*
Y246495D02*
Y274056D01*
Y237834D02*
Y244056D01*
Y116206D02*
Y235395D01*
Y107591D02*
Y108046D01*
X227378Y304867D02*
Y306870D01*
Y287235D02*
Y299385D01*
Y278258D02*
Y281269D01*
Y248258D02*
Y272293D01*
Y239597D02*
Y242293D01*
Y115658D02*
Y233632D01*
Y107591D02*
Y108594D01*
X226378Y305779D02*
Y306870D01*
Y288034D02*
Y298473D01*
Y279058D02*
Y280470D01*
Y249058D02*
Y271493D01*
Y240396D02*
Y241493D01*
Y114637D02*
Y232832D01*
Y107591D02*
Y109615D01*
X225378Y306270D02*
Y306870D01*
Y288461D02*
Y297982D01*
Y279485D02*
Y280043D01*
Y249485D02*
Y271067D01*
Y107591D02*
Y232405D01*
X224378Y306497D02*
Y306849D01*
Y288625D02*
Y297768D01*
Y249649D02*
Y270902D01*
Y107591D02*
Y232241D01*
X223378Y306464D02*
Y306870D01*
Y288557D02*
Y297787D01*
Y279589D02*
Y279938D01*
Y249581D02*
Y270970D01*
Y114867D02*
Y232309D01*
Y107591D02*
Y109385D01*
X222378Y306206D02*
Y306870D01*
Y288245D02*
Y298046D01*
Y279269D02*
Y280259D01*
Y249269D02*
Y271283D01*
Y240607D02*
Y241283D01*
Y115779D02*
Y232621D01*
Y107591D02*
Y108473D01*
X221378Y305658D02*
Y306870D01*
Y287621D02*
Y298594D01*
Y278645D02*
Y280883D01*
Y248645D02*
Y271906D01*
Y239984D02*
Y241906D01*
Y116270D02*
Y233245D01*
Y107594D02*
Y107982D01*
X220378Y304637D02*
Y306870D01*
Y286434D02*
Y299615D01*
Y277458D02*
Y282070D01*
Y247458D02*
Y273093D01*
Y238797D02*
Y243093D01*
Y116484D02*
Y234432D01*
X219378Y116464D02*
Y306870D01*
X218378Y285471D02*
Y306870D01*
Y276495D02*
Y283033D01*
Y246495D02*
Y274056D01*
Y237834D02*
Y244056D01*
Y227832D02*
Y235395D01*
Y218462D02*
Y222562D01*
Y188462D02*
Y213192D01*
Y179013D02*
Y183192D01*
Y116206D02*
Y173743D01*
Y107591D02*
Y108046D01*
X217378Y304867D02*
Y306870D01*
Y287235D02*
Y299385D01*
Y278258D02*
Y281269D01*
Y248258D02*
Y272293D01*
Y239597D02*
Y242293D01*
Y228794D02*
Y233632D01*
Y219423D02*
Y221600D01*
Y189423D02*
Y212230D01*
Y179975D02*
Y182230D01*
Y115658D02*
Y172781D01*
Y107591D02*
Y108594D01*
X216378Y305779D02*
Y306870D01*
Y288034D02*
Y298473D01*
Y279058D02*
Y280470D01*
Y249058D02*
Y271493D01*
Y240396D02*
Y241493D01*
Y229311D02*
Y232832D01*
Y219941D02*
Y221082D01*
Y189941D02*
Y211712D01*
Y180492D02*
Y181712D01*
Y114637D02*
Y172264D01*
Y107591D02*
Y109615D01*
X215378Y306270D02*
Y306870D01*
Y288461D02*
Y297982D01*
Y279485D02*
Y280043D01*
Y249485D02*
Y271067D01*
Y229547D02*
Y232405D01*
Y220177D02*
Y220847D01*
Y190177D02*
Y211477D01*
Y180728D02*
Y181477D01*
Y107591D02*
Y172028D01*
X214378Y306497D02*
Y306849D01*
Y288625D02*
Y297768D01*
Y249649D02*
Y270902D01*
Y229546D02*
Y232241D01*
Y220176D02*
Y220848D01*
Y190176D02*
Y211478D01*
Y180727D02*
Y181478D01*
Y107591D02*
Y172029D01*
X213378Y306464D02*
Y306870D01*
Y288557D02*
Y297787D01*
Y279589D02*
Y279938D01*
Y249581D02*
Y270970D01*
Y229308D02*
Y232309D01*
Y219938D02*
Y221085D01*
Y189938D02*
Y211715D01*
Y180490D02*
Y181715D01*
Y116440D02*
Y172266D01*
X212378Y306206D02*
Y306870D01*
Y288245D02*
Y298046D01*
Y279269D02*
Y280259D01*
Y249269D02*
Y271283D01*
Y240607D02*
Y241283D01*
Y228788D02*
Y232621D01*
Y219418D02*
Y221606D01*
Y189418D02*
Y212236D01*
Y179969D02*
Y182236D01*
Y116504D02*
Y172787D01*
X211378Y305658D02*
Y306870D01*
Y287621D02*
Y298594D01*
Y278645D02*
Y280883D01*
Y248645D02*
Y271906D01*
Y239984D02*
Y241906D01*
Y227822D02*
Y233245D01*
Y218452D02*
Y222572D01*
Y188452D02*
Y213202D01*
Y179003D02*
Y183202D01*
Y116504D02*
Y173753D01*
X210378Y304637D02*
Y306870D01*
Y286434D02*
Y299615D01*
Y277458D02*
Y282070D01*
Y247458D02*
Y273093D01*
Y238797D02*
Y243093D01*
Y116504D02*
Y234432D01*
X209378Y116504D02*
Y306870D01*
X208378Y285471D02*
Y306870D01*
Y276495D02*
Y283033D01*
Y246495D02*
Y274056D01*
Y237834D02*
Y244056D01*
Y227832D02*
Y235395D01*
Y218462D02*
Y222562D01*
Y188462D02*
Y213192D01*
Y179013D02*
Y183192D01*
Y116504D02*
Y173743D01*
X207378Y304867D02*
Y306870D01*
Y287235D02*
Y299385D01*
Y278258D02*
Y281269D01*
Y248258D02*
Y272293D01*
Y239597D02*
Y242293D01*
Y228794D02*
Y233632D01*
Y219423D02*
Y221600D01*
Y189423D02*
Y212230D01*
Y179975D02*
Y182230D01*
Y116504D02*
Y172781D01*
X206378Y305779D02*
Y306870D01*
Y288034D02*
Y298473D01*
Y279058D02*
Y280470D01*
Y249058D02*
Y271493D01*
Y240396D02*
Y241493D01*
Y229311D02*
Y232832D01*
Y219941D02*
Y221082D01*
Y189941D02*
Y211712D01*
Y180492D02*
Y181712D01*
Y116373D02*
Y172264D01*
X205378Y306270D02*
Y306870D01*
Y288461D02*
Y297982D01*
Y279485D02*
Y280043D01*
Y249485D02*
Y271067D01*
Y229547D02*
Y232405D01*
Y220177D02*
Y220847D01*
Y190177D02*
Y211477D01*
Y180728D02*
Y181477D01*
Y107591D02*
Y172028D01*
X204378Y306497D02*
Y306849D01*
Y288625D02*
Y297768D01*
Y249649D02*
Y270902D01*
Y229546D02*
Y232241D01*
Y220176D02*
Y220848D01*
Y190176D02*
Y211478D01*
Y180727D02*
Y181478D01*
Y107591D02*
Y172029D01*
X203378Y306464D02*
Y306870D01*
Y288557D02*
Y297787D01*
Y279589D02*
Y279938D01*
Y249581D02*
Y270970D01*
Y229308D02*
Y232309D01*
Y219938D02*
Y221085D01*
Y189938D02*
Y211715D01*
Y180490D02*
Y181715D01*
Y107591D02*
Y172266D01*
X202378Y306206D02*
Y306870D01*
Y288245D02*
Y298046D01*
Y279269D02*
Y280259D01*
Y249269D02*
Y271283D01*
Y240607D02*
Y241283D01*
Y228788D02*
Y232621D01*
Y219418D02*
Y221606D01*
Y189418D02*
Y212236D01*
Y179969D02*
Y182236D01*
Y107591D02*
Y172787D01*
X201378Y305658D02*
Y306870D01*
Y287621D02*
Y298594D01*
Y278645D02*
Y280883D01*
Y248645D02*
Y271906D01*
Y239984D02*
Y241906D01*
Y227822D02*
Y233245D01*
Y218452D02*
Y222572D01*
Y188452D02*
Y213202D01*
Y179003D02*
Y183202D01*
Y107591D02*
Y173753D01*
X200378Y304637D02*
Y306870D01*
Y286434D02*
Y299615D01*
Y277458D02*
Y282070D01*
Y247458D02*
Y273093D01*
Y238797D02*
Y243093D01*
Y107591D02*
Y234432D01*
X199378Y165078D02*
Y306870D01*
Y155314D02*
Y162482D01*
Y125314D02*
Y152718D01*
Y115078D02*
Y122718D01*
Y107591D02*
Y112482D01*
X198378Y285471D02*
Y306870D01*
Y276495D02*
Y283033D01*
Y246495D02*
Y274056D01*
Y237834D02*
Y244056D01*
Y227832D02*
Y235395D01*
Y218462D02*
Y222562D01*
Y188462D02*
Y213192D01*
Y179013D02*
Y183192D01*
Y166787D02*
Y173743D01*
Y157024D02*
Y160772D01*
Y127024D02*
Y151008D01*
Y116787D02*
Y121008D01*
Y107591D02*
Y110772D01*
X197378Y304867D02*
Y306870D01*
Y287235D02*
Y299385D01*
Y278258D02*
Y281269D01*
Y248258D02*
Y272293D01*
Y239597D02*
Y242293D01*
Y228794D02*
Y233632D01*
Y219423D02*
Y221600D01*
Y189423D02*
Y212230D01*
Y179975D02*
Y182230D01*
Y167575D02*
Y172781D01*
Y157812D02*
Y159984D01*
Y127812D02*
Y150220D01*
Y117575D02*
Y120220D01*
Y107591D02*
Y109984D01*
X196378Y305779D02*
Y306870D01*
Y288034D02*
Y298473D01*
Y279058D02*
Y280470D01*
Y249058D02*
Y271493D01*
Y240396D02*
Y241493D01*
Y229311D02*
Y232832D01*
Y219941D02*
Y221082D01*
Y189941D02*
Y211712D01*
Y180492D02*
Y181712D01*
Y167995D02*
Y172264D01*
Y158231D02*
Y159564D01*
Y128231D02*
Y149800D01*
Y117995D02*
Y119800D01*
Y107591D02*
Y109564D01*
X195378Y306270D02*
Y306870D01*
Y288461D02*
Y297982D01*
Y279485D02*
Y280043D01*
Y249485D02*
Y271067D01*
Y229547D02*
Y232405D01*
Y220177D02*
Y220847D01*
Y190177D02*
Y211477D01*
Y180728D02*
Y181477D01*
Y168154D02*
Y172028D01*
Y158390D02*
Y159405D01*
Y128390D02*
Y149642D01*
Y118154D02*
Y119642D01*
Y107591D02*
Y109405D01*
X194378Y306497D02*
Y306849D01*
Y288625D02*
Y297768D01*
Y249649D02*
Y270902D01*
Y229546D02*
Y232241D01*
Y220176D02*
Y220848D01*
Y190176D02*
Y211478D01*
Y180727D02*
Y181478D01*
Y168080D02*
Y172029D01*
Y158316D02*
Y159479D01*
Y128316D02*
Y149715D01*
Y118080D02*
Y119715D01*
Y107591D02*
Y109479D01*
X193378Y306464D02*
Y306870D01*
Y288557D02*
Y297787D01*
Y279589D02*
Y279938D01*
Y249581D02*
Y270970D01*
Y229308D02*
Y232309D01*
Y219938D02*
Y221085D01*
Y189938D02*
Y211715D01*
Y180490D02*
Y181715D01*
Y167762D02*
Y172266D01*
Y157998D02*
Y159797D01*
Y127998D02*
Y150033D01*
Y117762D02*
Y120033D01*
Y107591D02*
Y109797D01*
X192378Y306206D02*
Y306870D01*
Y288245D02*
Y298046D01*
Y279269D02*
Y280259D01*
Y249269D02*
Y271283D01*
Y240607D02*
Y241283D01*
Y228788D02*
Y232621D01*
Y219418D02*
Y221606D01*
Y189418D02*
Y212236D01*
Y179969D02*
Y182236D01*
Y167129D02*
Y172787D01*
Y157365D02*
Y160430D01*
Y127365D02*
Y150666D01*
Y117129D02*
Y120666D01*
Y107591D02*
Y110430D01*
X191378Y305658D02*
Y306870D01*
Y287621D02*
Y298594D01*
Y278645D02*
Y280883D01*
Y248645D02*
Y271906D01*
Y239984D02*
Y241906D01*
Y227822D02*
Y233245D01*
Y218452D02*
Y222572D01*
Y188452D02*
Y213202D01*
Y179003D02*
Y183202D01*
Y165920D02*
Y173753D01*
Y156157D02*
Y161639D01*
Y126157D02*
Y151875D01*
Y115920D02*
Y121875D01*
Y107591D02*
Y111639D01*
X190378Y304637D02*
Y306870D01*
Y286434D02*
Y299615D01*
Y277458D02*
Y282070D01*
Y247458D02*
Y273093D01*
Y238797D02*
Y243093D01*
Y107591D02*
Y234432D01*
X189378Y165078D02*
Y306870D01*
Y155314D02*
Y162482D01*
Y125314D02*
Y152718D01*
Y115078D02*
Y122718D01*
Y107591D02*
Y112482D01*
X188378Y285471D02*
Y306870D01*
Y276495D02*
Y283033D01*
Y246495D02*
Y274056D01*
Y237834D02*
Y244056D01*
Y227832D02*
Y235395D01*
Y218462D02*
Y222562D01*
Y188462D02*
Y213192D01*
Y179013D02*
Y183192D01*
Y166787D02*
Y173743D01*
Y157024D02*
Y160772D01*
Y127024D02*
Y151008D01*
Y116787D02*
Y121008D01*
Y107591D02*
Y110772D01*
X187378Y304867D02*
Y306870D01*
Y287235D02*
Y299385D01*
Y278258D02*
Y281269D01*
Y248258D02*
Y272293D01*
Y239597D02*
Y242293D01*
Y228794D02*
Y233632D01*
Y219423D02*
Y221600D01*
Y189423D02*
Y212230D01*
Y179975D02*
Y182230D01*
Y167575D02*
Y172781D01*
Y157812D02*
Y159984D01*
Y127812D02*
Y150220D01*
Y117575D02*
Y120220D01*
Y107591D02*
Y109984D01*
X186378Y305779D02*
Y306870D01*
Y288034D02*
Y298473D01*
Y279058D02*
Y280470D01*
Y249058D02*
Y271493D01*
Y240396D02*
Y241493D01*
Y229311D02*
Y232832D01*
Y219941D02*
Y221082D01*
Y189941D02*
Y211712D01*
Y180492D02*
Y181712D01*
Y167995D02*
Y172264D01*
Y158231D02*
Y159564D01*
Y128231D02*
Y149800D01*
Y117995D02*
Y119800D01*
Y107591D02*
Y109564D01*
X185378Y306270D02*
Y306870D01*
Y288461D02*
Y297982D01*
Y279485D02*
Y280043D01*
Y249485D02*
Y271067D01*
Y229547D02*
Y232405D01*
Y220177D02*
Y220847D01*
Y190177D02*
Y211477D01*
Y180728D02*
Y181477D01*
Y168154D02*
Y172028D01*
Y158390D02*
Y159405D01*
Y128390D02*
Y149642D01*
Y118154D02*
Y119642D01*
Y107591D02*
Y109405D01*
X184378Y306497D02*
Y306849D01*
Y288625D02*
Y297768D01*
Y249649D02*
Y270902D01*
Y229546D02*
Y232241D01*
Y220176D02*
Y220848D01*
Y190176D02*
Y211478D01*
Y180727D02*
Y181478D01*
Y168080D02*
Y172029D01*
Y158316D02*
Y159479D01*
Y128316D02*
Y149715D01*
Y118080D02*
Y119715D01*
Y107591D02*
Y109479D01*
X183378Y306464D02*
Y306870D01*
Y288557D02*
Y297787D01*
Y279589D02*
Y279938D01*
Y249581D02*
Y270970D01*
Y229308D02*
Y232309D01*
Y219938D02*
Y221085D01*
Y189938D02*
Y211715D01*
Y180490D02*
Y181715D01*
Y167762D02*
Y172266D01*
Y157998D02*
Y159797D01*
Y127998D02*
Y150033D01*
Y117762D02*
Y120033D01*
Y107591D02*
Y109797D01*
X182378Y306206D02*
Y306870D01*
Y288245D02*
Y298046D01*
Y279269D02*
Y280259D01*
Y249269D02*
Y271283D01*
Y240607D02*
Y241283D01*
Y228788D02*
Y232621D01*
Y219418D02*
Y221606D01*
Y189418D02*
Y212236D01*
Y179969D02*
Y182236D01*
Y167129D02*
Y172787D01*
Y157365D02*
Y160430D01*
Y127365D02*
Y150666D01*
Y117129D02*
Y120666D01*
Y107591D02*
Y110430D01*
X181378Y305658D02*
Y306870D01*
Y287621D02*
Y298594D01*
Y278645D02*
Y280883D01*
Y248645D02*
Y271906D01*
Y239984D02*
Y241906D01*
Y227822D02*
Y233245D01*
Y218452D02*
Y222572D01*
Y188452D02*
Y213202D01*
Y179003D02*
Y183202D01*
Y165920D02*
Y173753D01*
Y156157D02*
Y161639D01*
Y126157D02*
Y151875D01*
Y115920D02*
Y121875D01*
Y107591D02*
Y111639D01*
X180378Y304637D02*
Y306870D01*
Y286434D02*
Y299615D01*
Y277458D02*
Y282070D01*
Y247458D02*
Y273093D01*
Y238797D02*
Y243093D01*
Y107591D02*
Y234432D01*
X179378Y165078D02*
Y306870D01*
Y155314D02*
Y162482D01*
Y125314D02*
Y152718D01*
Y115078D02*
Y122718D01*
Y107591D02*
Y112482D01*
X178378Y285471D02*
Y306870D01*
Y276495D02*
Y283033D01*
Y246495D02*
Y274056D01*
Y237834D02*
Y244056D01*
Y227832D02*
Y235395D01*
Y218462D02*
Y222562D01*
Y188462D02*
Y213192D01*
Y179013D02*
Y183192D01*
Y166787D02*
Y173743D01*
Y157024D02*
Y160772D01*
Y127024D02*
Y151008D01*
Y116787D02*
Y121008D01*
Y107591D02*
Y110772D01*
X177378Y306440D02*
Y306870D01*
Y287235D02*
Y297811D01*
Y278258D02*
Y281269D01*
Y248258D02*
Y272293D01*
Y239597D02*
Y242293D01*
Y228794D02*
Y233632D01*
Y219423D02*
Y221600D01*
Y189423D02*
Y212230D01*
Y179975D02*
Y182230D01*
Y167575D02*
Y172781D01*
Y157812D02*
Y159984D01*
Y127812D02*
Y150220D01*
Y117575D02*
Y120220D01*
Y107591D02*
Y109984D01*
X176378Y288034D02*
Y297748D01*
Y279058D02*
Y280470D01*
Y249058D02*
Y271493D01*
Y240396D02*
Y241493D01*
Y229311D02*
Y232832D01*
Y219941D02*
Y221082D01*
Y189941D02*
Y211712D01*
Y180492D02*
Y181712D01*
Y167995D02*
Y172264D01*
Y158231D02*
Y159564D01*
Y128231D02*
Y149800D01*
Y117995D02*
Y119800D01*
Y107591D02*
Y109564D01*
X175378Y288461D02*
Y297748D01*
Y279485D02*
Y280043D01*
Y249485D02*
Y271067D01*
Y229547D02*
Y232405D01*
Y220177D02*
Y220847D01*
Y190177D02*
Y211477D01*
Y180728D02*
Y181477D01*
Y168154D02*
Y172028D01*
Y158390D02*
Y159405D01*
Y128390D02*
Y149642D01*
Y118154D02*
Y119642D01*
Y107591D02*
Y109405D01*
X174378Y288625D02*
Y297748D01*
Y249649D02*
Y270902D01*
Y229546D02*
Y232241D01*
Y220176D02*
Y220848D01*
Y190176D02*
Y211478D01*
Y180727D02*
Y181478D01*
Y168080D02*
Y172029D01*
Y158316D02*
Y159479D01*
Y128316D02*
Y149715D01*
Y118080D02*
Y119715D01*
Y107591D02*
Y109479D01*
X173378Y288557D02*
Y297748D01*
Y279589D02*
Y279938D01*
Y249581D02*
Y270970D01*
Y229308D02*
Y232309D01*
Y219938D02*
Y221085D01*
Y189938D02*
Y211715D01*
Y180490D02*
Y181715D01*
Y167762D02*
Y172266D01*
Y157998D02*
Y159797D01*
Y127998D02*
Y150033D01*
Y117762D02*
Y120033D01*
Y107591D02*
Y109797D01*
X172378Y288245D02*
Y297748D01*
Y279269D02*
Y280259D01*
Y249269D02*
Y271283D01*
Y240607D02*
Y241283D01*
Y228788D02*
Y232621D01*
Y219418D02*
Y221606D01*
Y189418D02*
Y212236D01*
Y179969D02*
Y182236D01*
Y167129D02*
Y172787D01*
Y157365D02*
Y160430D01*
Y127365D02*
Y150666D01*
Y117129D02*
Y120666D01*
Y107591D02*
Y110430D01*
X171378Y287621D02*
Y297748D01*
Y278645D02*
Y280883D01*
Y248645D02*
Y271906D01*
Y239984D02*
Y241906D01*
Y227822D02*
Y233245D01*
Y218452D02*
Y222572D01*
Y188452D02*
Y213202D01*
Y179003D02*
Y183202D01*
Y165920D02*
Y173753D01*
Y156157D02*
Y161639D01*
Y126157D02*
Y151875D01*
Y115920D02*
Y121875D01*
Y107591D02*
Y111639D01*
X170378Y306373D02*
Y306870D01*
Y286434D02*
Y297879D01*
Y277458D02*
Y282070D01*
Y247458D02*
Y273093D01*
Y238797D02*
Y243093D01*
Y107591D02*
Y234432D01*
X169378Y165078D02*
Y306870D01*
Y155314D02*
Y162482D01*
Y125314D02*
Y152718D01*
Y115078D02*
Y122718D01*
Y107591D02*
Y112482D01*
X168378Y287921D02*
Y306870D01*
Y276495D02*
Y280583D01*
Y248944D02*
Y274056D01*
Y240283D02*
Y241607D01*
Y227832D02*
Y232945D01*
Y218462D02*
Y222562D01*
Y188462D02*
Y213192D01*
Y179013D02*
Y183192D01*
Y166787D02*
Y173743D01*
Y157024D02*
Y160772D01*
Y127024D02*
Y151008D01*
Y116787D02*
Y121008D01*
Y107591D02*
Y110772D01*
X167378Y288615D02*
Y306870D01*
Y278258D02*
Y279889D01*
Y249638D02*
Y272293D01*
Y228794D02*
Y232251D01*
Y219423D02*
Y221600D01*
Y189423D02*
Y212230D01*
Y179975D02*
Y182230D01*
Y167575D02*
Y172781D01*
Y157812D02*
Y159984D01*
Y127812D02*
Y150220D01*
Y117575D02*
Y120220D01*
Y107591D02*
Y109984D01*
X166378Y288630D02*
Y306870D01*
Y279058D02*
Y279874D01*
Y249654D02*
Y271493D01*
Y229311D02*
Y232236D01*
Y219941D02*
Y221082D01*
Y189941D02*
Y211712D01*
Y180492D02*
Y181712D01*
Y167995D02*
Y172264D01*
Y158231D02*
Y159564D01*
Y128231D02*
Y149800D01*
Y117995D02*
Y119800D01*
Y107591D02*
Y109564D01*
X165378Y288630D02*
Y306870D01*
Y279485D02*
Y279869D01*
Y249654D02*
Y271067D01*
Y229547D02*
Y232236D01*
Y220177D02*
Y220847D01*
Y190177D02*
Y211477D01*
Y180728D02*
Y181477D01*
Y168154D02*
Y172028D01*
Y158390D02*
Y159405D01*
Y128390D02*
Y149642D01*
Y118154D02*
Y119642D01*
Y107591D02*
Y109405D01*
X164378Y288630D02*
Y306870D01*
Y249654D02*
Y270902D01*
Y229546D02*
Y232236D01*
Y220176D02*
Y220848D01*
Y190176D02*
Y211478D01*
Y180727D02*
Y181478D01*
Y168080D02*
Y172029D01*
Y158316D02*
Y159479D01*
Y128316D02*
Y149715D01*
Y118080D02*
Y119715D01*
Y107591D02*
Y109479D01*
X163378Y288630D02*
Y306870D01*
Y249654D02*
Y270970D01*
Y229308D02*
Y232236D01*
Y219938D02*
Y221085D01*
Y189938D02*
Y211715D01*
Y180490D02*
Y181715D01*
Y167762D02*
Y172266D01*
Y157998D02*
Y159797D01*
Y127998D02*
Y150033D01*
Y117762D02*
Y120033D01*
Y107591D02*
Y109797D01*
X162378Y288630D02*
Y306870D01*
Y279269D02*
Y279874D01*
Y249654D02*
Y271283D01*
Y228788D02*
Y232236D01*
Y219418D02*
Y221606D01*
Y189418D02*
Y212236D01*
Y179969D02*
Y182236D01*
Y167129D02*
Y172787D01*
Y157365D02*
Y160430D01*
Y127365D02*
Y150666D01*
Y117129D02*
Y120666D01*
Y107591D02*
Y110430D01*
X161378Y288630D02*
Y306870D01*
Y278645D02*
Y279874D01*
Y249654D02*
Y271906D01*
Y227822D02*
Y232236D01*
Y218452D02*
Y222572D01*
Y188452D02*
Y213202D01*
Y179003D02*
Y183202D01*
Y165920D02*
Y173753D01*
Y156157D02*
Y161639D01*
Y126157D02*
Y151875D01*
Y115920D02*
Y121875D01*
Y107591D02*
Y111639D01*
X160378Y288377D02*
Y306870D01*
Y277458D02*
Y280127D01*
Y249401D02*
Y273093D01*
Y240740D02*
Y241150D01*
Y107591D02*
Y232489D01*
X159378Y165078D02*
Y306870D01*
Y155314D02*
Y162482D01*
Y125314D02*
Y152718D01*
Y115078D02*
Y122718D01*
Y107591D02*
Y112482D01*
X158378Y227832D02*
Y306870D01*
Y218462D02*
Y222562D01*
Y188462D02*
Y213192D01*
Y179013D02*
Y183192D01*
Y166787D02*
Y173743D01*
Y157024D02*
Y160772D01*
Y127024D02*
Y151008D01*
Y116787D02*
Y121008D01*
Y107591D02*
Y110772D01*
X157378Y228794D02*
Y306870D01*
Y219423D02*
Y221600D01*
Y189423D02*
Y212230D01*
Y179975D02*
Y182230D01*
Y167575D02*
Y172781D01*
Y157812D02*
Y159984D01*
Y127812D02*
Y150220D01*
Y117575D02*
Y120220D01*
Y107591D02*
Y109984D01*
X156378Y229311D02*
Y306870D01*
Y219941D02*
Y221082D01*
Y189941D02*
Y211712D01*
Y180492D02*
Y181712D01*
Y167995D02*
Y172264D01*
Y158231D02*
Y159564D01*
Y128231D02*
Y149800D01*
Y117995D02*
Y119800D01*
Y107591D02*
Y109564D01*
X155378Y229547D02*
Y306870D01*
Y220177D02*
Y220847D01*
Y190177D02*
Y211477D01*
Y180728D02*
Y181477D01*
Y168154D02*
Y172028D01*
Y158390D02*
Y159405D01*
Y128390D02*
Y149642D01*
Y118154D02*
Y119642D01*
Y107591D02*
Y109405D01*
X154378Y229546D02*
Y306870D01*
Y220176D02*
Y220848D01*
Y190176D02*
Y211478D01*
Y180727D02*
Y181478D01*
Y168080D02*
Y172029D01*
Y158316D02*
Y159479D01*
Y128316D02*
Y149715D01*
Y118080D02*
Y119715D01*
Y107591D02*
Y109479D01*
X153378Y229308D02*
Y306870D01*
Y219938D02*
Y221085D01*
Y189938D02*
Y211715D01*
Y180490D02*
Y181715D01*
Y167762D02*
Y172266D01*
Y157998D02*
Y159797D01*
Y127998D02*
Y150033D01*
Y117762D02*
Y120033D01*
Y107591D02*
Y109797D01*
X152378Y228788D02*
Y306870D01*
Y219418D02*
Y221606D01*
Y189418D02*
Y212236D01*
Y179969D02*
Y182236D01*
Y167129D02*
Y172787D01*
Y157365D02*
Y160430D01*
Y127365D02*
Y150666D01*
Y117129D02*
Y120666D01*
Y107591D02*
Y110430D01*
X151378Y227822D02*
Y306870D01*
Y218452D02*
Y222572D01*
Y188452D02*
Y213202D01*
Y179003D02*
Y183202D01*
Y165920D02*
Y173753D01*
Y156157D02*
Y161639D01*
Y126157D02*
Y151875D01*
Y115920D02*
Y121875D01*
Y107591D02*
Y111639D01*
X150378Y107591D02*
Y306870D01*
X149378Y165078D02*
Y306870D01*
Y155314D02*
Y162482D01*
Y125314D02*
Y152718D01*
Y115078D02*
Y122718D01*
Y107591D02*
Y112482D01*
X148378Y229482D02*
Y306870D01*
Y218462D02*
Y220911D01*
Y190112D02*
Y213192D01*
Y180664D02*
Y181541D01*
Y166787D02*
Y172092D01*
Y157024D02*
Y160772D01*
Y127024D02*
Y151008D01*
Y116787D02*
Y121008D01*
Y107591D02*
Y110772D01*
X147378Y229575D02*
Y306870D01*
Y219423D02*
Y220819D01*
Y190205D02*
Y212230D01*
Y180756D02*
Y181449D01*
Y167575D02*
Y172000D01*
Y157812D02*
Y159984D01*
Y127812D02*
Y150220D01*
Y117575D02*
Y120220D01*
Y107591D02*
Y109984D01*
X146378Y229575D02*
Y306870D01*
Y219941D02*
Y220819D01*
Y190205D02*
Y211712D01*
Y180756D02*
Y181449D01*
Y167995D02*
Y172000D01*
Y158231D02*
Y159564D01*
Y128231D02*
Y149800D01*
Y117995D02*
Y119800D01*
Y107591D02*
Y109564D01*
X145378Y229575D02*
Y306870D01*
Y220177D02*
Y220819D01*
Y190205D02*
Y211477D01*
Y180756D02*
Y181449D01*
Y168154D02*
Y172000D01*
Y158390D02*
Y159405D01*
Y128390D02*
Y149642D01*
Y118154D02*
Y119642D01*
Y107591D02*
Y109405D01*
X144378Y229575D02*
Y306870D01*
Y220176D02*
Y220819D01*
Y190205D02*
Y211478D01*
Y180756D02*
Y181449D01*
Y168080D02*
Y172000D01*
Y158316D02*
Y159479D01*
Y128316D02*
Y149715D01*
Y118080D02*
Y119715D01*
Y107591D02*
Y109479D01*
X143378Y229575D02*
Y306870D01*
Y219938D02*
Y220819D01*
Y190205D02*
Y211715D01*
Y180756D02*
Y181449D01*
Y167762D02*
Y172000D01*
Y157998D02*
Y159797D01*
Y127998D02*
Y150033D01*
Y117762D02*
Y120033D01*
Y107591D02*
Y109797D01*
X142378Y229575D02*
Y306870D01*
Y219418D02*
Y220819D01*
Y190205D02*
Y212236D01*
Y180756D02*
Y181449D01*
Y167129D02*
Y172000D01*
Y157365D02*
Y160430D01*
Y127365D02*
Y150666D01*
Y117129D02*
Y120666D01*
Y107591D02*
Y110430D01*
X141378Y229479D02*
Y306870D01*
Y218452D02*
Y220914D01*
Y190109D02*
Y213202D01*
Y180660D02*
Y181544D01*
Y165920D02*
Y172095D01*
Y156157D02*
Y161639D01*
Y126157D02*
Y151875D01*
Y115920D02*
Y121875D01*
Y107591D02*
Y111639D01*
X140378Y107591D02*
Y306870D01*
X139378Y165078D02*
Y306870D01*
Y155314D02*
Y162482D01*
Y125314D02*
Y152718D01*
Y115078D02*
Y122718D01*
Y107591D02*
Y112482D01*
X138378Y166787D02*
Y306870D01*
Y157024D02*
Y160772D01*
Y127024D02*
Y151008D01*
Y116787D02*
Y121008D01*
Y107591D02*
Y110772D01*
X137378Y167575D02*
Y306870D01*
Y157812D02*
Y159984D01*
Y127812D02*
Y150220D01*
Y117575D02*
Y120220D01*
Y107591D02*
Y109984D01*
X136378Y167995D02*
Y306870D01*
Y158231D02*
Y159564D01*
Y128231D02*
Y149800D01*
Y117995D02*
Y119800D01*
Y107591D02*
Y109564D01*
X135378Y168154D02*
Y306870D01*
Y158390D02*
Y159405D01*
Y128390D02*
Y149642D01*
Y118154D02*
Y119642D01*
Y107591D02*
Y109405D01*
X134378Y168080D02*
Y306870D01*
Y158316D02*
Y159479D01*
Y128316D02*
Y149715D01*
Y118080D02*
Y119715D01*
Y107591D02*
Y109479D01*
X133378Y167762D02*
Y306870D01*
Y157998D02*
Y159797D01*
Y127998D02*
Y150033D01*
Y117762D02*
Y120033D01*
Y107591D02*
Y109797D01*
X132378Y167129D02*
Y306870D01*
Y157365D02*
Y160430D01*
Y127365D02*
Y150666D01*
Y117129D02*
Y120666D01*
Y107591D02*
Y110430D01*
X131378Y165920D02*
Y306870D01*
Y156157D02*
Y161639D01*
Y126157D02*
Y151875D01*
Y115920D02*
Y121875D01*
Y107591D02*
Y111639D01*
X130378Y107591D02*
Y306870D01*
X129378Y167489D02*
Y306870D01*
Y155314D02*
Y160070D01*
Y127726D02*
Y152718D01*
Y117489D02*
Y120306D01*
Y107591D02*
Y110070D01*
X128378Y168146D02*
Y306870D01*
Y157024D02*
Y159414D01*
Y128382D02*
Y151008D01*
Y118146D02*
Y119650D01*
Y107591D02*
Y109414D01*
X127378Y168158D02*
Y306870D01*
Y157812D02*
Y159402D01*
Y128394D02*
Y150220D01*
Y118158D02*
Y119638D01*
Y107591D02*
Y109402D01*
X126378Y168158D02*
Y306870D01*
Y158231D02*
Y159402D01*
Y128394D02*
Y149800D01*
Y118158D02*
Y119638D01*
Y107591D02*
Y109402D01*
X125378Y168158D02*
Y306870D01*
Y158390D02*
Y159402D01*
Y128394D02*
Y149642D01*
Y118158D02*
Y119638D01*
Y107591D02*
Y109402D01*
X124378Y168158D02*
Y306870D01*
Y158316D02*
Y159402D01*
Y128394D02*
Y149715D01*
Y118158D02*
Y119638D01*
Y107591D02*
Y109402D01*
X123378Y168158D02*
Y306870D01*
Y157998D02*
Y159402D01*
Y128394D02*
Y150033D01*
Y118158D02*
Y119638D01*
Y107591D02*
Y109402D01*
X122378Y168158D02*
Y306870D01*
Y157365D02*
Y159402D01*
Y128394D02*
Y150666D01*
Y118158D02*
Y119638D01*
Y107591D02*
Y109402D01*
X121378Y167888D02*
Y306870D01*
Y156157D02*
Y159671D01*
Y128124D02*
Y151875D01*
Y117888D02*
Y119907D01*
Y107591D02*
Y109671D01*
X120378Y107591D02*
Y306870D01*
X119378Y107591D02*
Y306870D01*
X118378Y107591D02*
Y306870D01*
X117378Y107591D02*
Y306870D01*
X116378Y107591D02*
Y306870D01*
X115378Y107591D02*
Y306870D01*
X114378Y107591D02*
Y306870D01*
X113378Y107591D02*
Y306870D01*
X112378Y107591D02*
Y306870D01*
X111378Y107591D02*
Y306870D01*
X110378Y107591D02*
Y306870D01*
X109378Y107591D02*
Y306870D01*
X108378Y107591D02*
Y306870D01*
X107378Y107591D02*
Y306870D01*
X106378Y107591D02*
Y306870D01*
X105378Y107591D02*
Y306870D01*
X104378Y107591D02*
Y306870D01*
X103378Y107591D02*
Y306870D01*
X102378Y107591D02*
Y306870D01*
G54D32*
X292164Y139408D02*
X291189Y138434D01*
X288545Y139408D02*
X289519Y138434D01*
X288545Y135789D02*
X289519Y136763D01*
X292164Y135789D02*
X291189Y136763D01*
X334487Y240983D02*
X333512Y240008D01*
X330868Y240983D02*
X331842Y240008D01*
X330868Y237364D02*
X331842Y238338D01*
X334487Y237364D02*
X333512Y238338D01*
X347676Y240983D02*
X346701Y240008D01*
X344057Y240983D02*
X345031Y240008D01*
X344057Y237364D02*
X345031Y238338D01*
X347676Y237364D02*
X346701Y238338D01*
G54D40*
X290354Y137598D03*
X329134Y191535D03*
X316732Y174409D03*
X303150Y177362D03*
X298819Y259252D03*
X243110Y231496D03*
X288386Y259055D03*
X244094Y246457D03*
X278740Y259055D03*
X292913Y228543D03*
X279528Y221654D03*
X268504Y259252D03*
X275984Y229134D03*
X285630Y228937D03*
X345866Y239173D03*
X300984Y228740D03*
X318701Y259252D03*
X318898Y228150D03*
X332677Y239173D03*
X308268Y228740D03*
X308465Y259449D03*
G74*
X0Y0D02*
M02*
