M48
;FILE_FORMAT=2:4
INCH,LZ
FMAT,2
ICI,OFF
;TYPE=PLATED
T1C.01181
T2C.035
T3C.0374
%
M72
G90
G93X0Y0
T1C.01181F095S3
X024311Y02315
X024409Y024646
X02685Y025925
X029882Y025925
X028839Y025906
X027874Y025906
X027598Y022913
X028563Y022894
X029291Y022854
X027953Y022165
X029035Y01376
X031673Y017441
X030315Y017736
X032913Y019154
X03189Y022815
X030827Y022874
X030098Y022874
X033268Y023917
X034587Y023917
X03187Y025925
X030846Y025945
T2C.035F197S55
X01252Y011378
X01352Y011378
X01452Y011378
X01252Y012402
X01352Y012402
X01452Y012402
X01452Y015402
X01352Y015402
X01252Y015402
X01252Y016378
X01352Y016378
X01452Y016378
X014488Y017638
X014488Y018583
X014488Y021583
X014488Y02252
X017396Y030213
X016417Y028425
X017417Y028425
X017417Y027528
X016417Y027528
X016417Y024528
X017417Y024528
X017417Y023661
X016417Y023661
X016488Y02252
X017488Y02252
X015488Y02252
X017488Y021583
X016488Y021583
X015488Y021583
X015488Y018583
X016488Y018583
X017488Y018583
X016488Y017638
X015488Y017638
X017488Y017638
X01552Y016378
X01652Y016378
X01652Y015402
X01552Y015402
X01552Y012402
X01652Y012402
X01552Y011378
X01652Y011378
X01752Y011378
X01852Y011378
X01952Y011378
X01752Y012402
X01852Y012402
X01952Y012402
X01952Y015402
X01852Y015402
X01752Y015402
X01752Y016378
X01852Y016378
X01952Y016378
X019488Y017638
X018488Y017638
X018488Y018583
X019488Y018583
X019488Y021583
X018488Y021583
X019488Y02252
X018488Y02252
X019417Y023661
X018417Y023661
X018417Y024528
X019417Y024528
X019417Y027528
X018417Y027528
X018417Y028425
X019417Y028425
X018396Y030213
X019396Y030213
X020396Y030213
X021396Y030213
X022396Y030213
X020417Y028425
X021417Y028425
X022417Y028425
X022417Y027528
X021417Y027528
X020417Y027528
X020417Y024528
X021417Y024528
X022417Y024528
X020417Y023661
X021417Y023661
X022417Y023661
X020488Y02252
X021488Y02252
X021488Y021583
X020488Y021583
X020488Y018583
X021488Y018583
X021488Y017638
X020488Y017638
X020996Y011213
X021996Y011213
X023996Y011213
X024996Y011213
X022996Y011213
X023417Y023661
X023417Y024528
X023417Y027528
X023417Y028425
X024396Y030213
X023396Y030213
X025396Y030213
X026396Y030213
X027996Y030213
X028996Y030213
X029996Y030213
X029054Y016077
X028054Y016077
X025996Y011213
X027996Y011213
X026996Y011213
X030002Y011206
X032002Y011206
X031002Y011206
X033002Y011206
X035002Y011206
X034002Y011206
X031054Y016077
X030054Y016077
X031996Y030213
X034996Y030213
X033996Y030213
X030996Y030213
X032996Y030213
X036125Y027118
X036125Y026118
X036125Y025118
X036125Y024118
T3C.0374F197S55
X034429Y014173
X034508Y01687
X035508Y01687
X036508Y01687
X036429Y014173
X035429Y014173
M30
